pressuru.sfdir

StartChar: exclam
Encoding: 33 33 118
Width: 260
Flags: MW
HStem: 0 180<35 225 35 225> 780 20G<20 240 240 240>
VStem: 20 220<650 800 650 800> 35 190<0 180 0 180>
LayerCount: 2
Fore
SplineSet
225 180 m 1xd0
 225 0 l 1
 35 0 l 1
 35 180 l 1
 225 180 l 1xd0
240 650 m 1xe0
 210 235 l 1
 50 235 l 1
 20 650 l 1
 20 800 l 1
 240 800 l 1
 240 650 l 1xe0
EndSplineSet
EndChar

StartChar: quotedbl
Encoding: 34 34 158
Width: 410
Flags: MW
HStem: 500 21G<50 160 50 50 250 250 250 360> 780 20G<20 190 190 190 220 390 390 390>
VStem: 20 170<690 800 690 800> 220 170<690 800 690 800>
LayerCount: 2
Fore
SplineSet
190 690 m 1
 160 500 l 1
 50 500 l 1
 20 690 l 1
 20 800 l 1
 190 800 l 1
 190 690 l 1
390 690 m 1
 360 500 l 1
 250 500 l 1
 220 690 l 1
 220 800 l 1
 390 800 l 1
 390 690 l 1
EndSplineSet
EndChar

StartChar: numbersign
Encoding: 35 35 162
Width: 737
Flags: MW
HStem: 0 21G<81 251 81 81 311 481 311 311> 210 150<10 125 10 157 327 355 10 295 557 682> 460 150<55 178 55 210 380 408 55 348 610 727> 780 20G<251 421 421 421 481 651 651 651>
LayerCount: 2
Fore
SplineSet
610 610 m 1
 727 610 l 1
 727 460 l 1
 578 460 l 1
 557 360 l 1
 682 360 l 1
 682 210 l 1
 525 210 l 1
 481 0 l 1
 311 0 l 1
 355 210 l 1
 295 210 l 1
 251 0 l 1
 81 0 l 1
 125 210 l 1
 10 210 l 1
 10 360 l 1
 157 360 l 1
 178 460 l 1
 55 460 l 1
 55 610 l 1
 210 610 l 1
 251 800 l 1
 421 800 l 1
 380 610 l 1
 440 610 l 1
 481 800 l 1
 651 800 l 1
 610 610 l 1
348 460 m 1
 327 360 l 1
 387 360 l 1
 408 460 l 1
 348 460 l 1
EndSplineSet
EndChar

StartChar: dollar
Encoding: 36 36 206
Width: 496
Flags: MW
HStem: -150 21G<198 298 198 198> 630 20G<236.5 259.5> 930 20G<198 298 298 298>
VStem: 23 195<530 590 590 610> 198 100<-150 -12 -150 -11 -150 -11 811 950> 278 200<190 220 220 310 158 610>
LayerCount: 2
Fore
SplineSet
298 950 m 1xe8
 298 811 l 1xe8
 420 793 473 710 473 595 c 2
 473 535 l 1
 278 535 l 1
 278 610 l 2
 278 630 271 650 248 650 c 0
 225 650 218 630 218 610 c 2
 218 590 l 2
 218 470 478 495 478 225 c 0xf4
 478 91 426 5 298 -12 c 1
 298 -150 l 1
 198 -150 l 1
 198 -11 l 1xe8
 69 6 18 94 18 215 c 2
 18 300 l 1
 218 300 l 1
 218 190 l 2
 218 170 225 150 248 150 c 0
 271 150 278 170 278 190 c 2
 278 220 l 2
 278 400 23 335 23 595 c 0xf4
 23 706 77 793 198 811 c 1
 198 950 l 1
 298 950 l 1xe8
EndSplineSet
EndChar

StartChar: percent
Encoding: 37 37 164
Width: 737
Flags: MW
HStem: -15 105<535 559 535 597> 0 21G<129 209 209 209> 250 105<535 559> 445 105<178 202 178 240> 710 105<178 202> 780 20G<529 609 529 529>
VStem: 20 135<584 600 600 660 584 695> 225 135<600 660 660 676> 377 135<124 140 140 200 124 235> 582 135<140 200 200 216>
LayerCount: 2
Fore
SplineSet
209 0 m 1x77c0
 609 800 l 1
 529 800 l 1
 129 0 l 1
 209 0 l 1x77c0
225 600 m 2
 225 660 l 2
 225 692 214 710 190 710 c 0xbbc0
 166 710 155 692 155 660 c 2
 155 600 l 2
 155 568 166 550 190 550 c 0
 214 550 225 568 225 600 c 2
20 630 m 0
 20 760 90 815 190 815 c 0
 290 815 360 760 360 630 c 0
 360 500 290 445 190 445 c 0
 90 445 20 500 20 630 c 0
582 140 m 2
 582 200 l 2
 582 232 571 250 547 250 c 0
 523 250 512 232 512 200 c 2
 512 140 l 2
 512 108 523 90 547 90 c 0
 571 90 582 108 582 140 c 2
377 170 m 0
 377 300 447 355 547 355 c 0
 647 355 717 300 717 170 c 0
 717 40 647 -15 547 -15 c 0
 447 -15 377 40 377 170 c 0
EndSplineSet
EndChar

StartChar: ampersand
Encoding: 38 38 163
Width: 575
Flags: MW
HStem: -15 165<140 276.5> 0 21G<335 515 335 335> 350 140<285 290 290 295 495 550 495 495> 650 165<258.5 281.5>
VStem: 45 195<532.5 560 560 610> 295 200<180 350 97.5 350> 325 170<97.5 100>
LayerCount: 2
Fore
SplineSet
40 175 m 2xba
 40 270 l 2
 40 405 125 415 125 415 c 1
 135 415 l 1
 135 425 l 1
 125 425 l 1
 125 425 45 450 45 595 c 0
 45 715 105 815 270 815 c 0
 430 815 495 720 495 595 c 2
 495 540 l 1
 300 540 l 1
 300 610 l 2
 300 630 293 650 270 650 c 0
 247 650 240 630 240 610 c 2
 240 560 l 2
 240 505 245 490 285 490 c 2
 550 490 l 1
 550 350 l 1
 495 350 l 1
 495 165 l 2
 495 30 515 20 515 20 c 1
 515 0 l 1
 335 0 l 1x7c
 335 0 325 20 325 100 c 1
 315 100 l 1
 315 100 320 -15 185 -15 c 0
 95 -15 40 45 40 175 c 2xba
295 180 m 2
 295 350 l 1
 290 350 l 2
 240 350 240 330 240 280 c 2
 240 187 l 2
 240 167 246 150 267 150 c 0xbc
 286 150 295 163 295 180 c 2
EndSplineSet
EndChar

StartChar: quotesingle
Encoding: 39 39 159
Width: 240
Flags: MW
HStem: 500 21G<60 180 60 60> 780 20G<20 220 220 220>
VStem: 20 200<710 800 710 800>
LayerCount: 2
Fore
SplineSet
220 710 m 1
 180 500 l 1
 60 500 l 1
 20 710 l 1
 20 800 l 1
 220 800 l 1
 220 710 l 1
EndSplineSet
EndChar

StartChar: parenleft
Encoding: 40 40 160
Width: 330
Flags: MW
HStem: -150 21G<200 330 200 200> 840 20G<200 330 330 330>
VStem: 30 175<187.5 522.5 187.5 527.5>
LayerCount: 2
Fore
SplineSet
200 860 m 1
 330 860 l 1
 330 860 205 690 205 355 c 0
 205 20 330 -150 330 -150 c 1
 200 -150 l 1
 200 -150 30 10 30 355 c 0
 30 700 200 860 200 860 c 1
EndSplineSet
EndChar

StartChar: parenright
Encoding: 41 41 161
Width: 330
Flags: MW
HStem: -150 21G<0 130 0 0> 840 20G<0 130 130 130>
VStem: 125 175<187.5 522.5>
LayerCount: 2
Fore
SplineSet
0 860 m 1
 130 860 l 1
 130 860 300 700 300 355 c 0
 300 10 130 -150 130 -150 c 1
 0 -150 l 1
 0 -150 125 20 125 355 c 0
 125 690 0 860 0 860 c 1
EndSplineSet
EndChar

StartChar: asterisk
Encoding: 42 42 165
Width: 464
Flags: MW
HStem: 417 21G<171 171 293 293> 800 20G<162 302 302 302>
LayerCount: 2
Fore
SplineSet
162 770 m 1
 162 820 l 1
 302 820 l 1
 302 770 l 1
 283 691 l 1
 353 733 l 1
 401 748 l 1
 444 615 l 1
 396 600 l 1
 315 593 l 1
 377 540 l 1
 406 499 l 1
 293 417 l 1
 264 458 l 1
 232 533 l 1
 200 458 l 1
 171 417 l 1
 58 499 l 1
 87 540 l 1
 148 593 l 1
 68 600 l 1
 20 615 l 1
 63 748 l 1
 111 733 l 1
 180 691 l 1
 162 770 l 1
EndSplineSet
EndChar

StartChar: plus
Encoding: 43 43 133
Width: 560
Flags: MW
HStem: 170 21G<195 365 195 195> 325 170<50 195 50 195 365 510> 630 20G<195 365 365 365>
VStem: 195 170<170 325 170 325 495 650>
LayerCount: 2
Fore
SplineSet
195 650 m 1
 365 650 l 1
 365 495 l 1
 510 495 l 1
 510 325 l 1
 365 325 l 1
 365 170 l 1
 195 170 l 1
 195 325 l 1
 50 325 l 1
 50 495 l 1
 195 495 l 1
 195 650 l 1
EndSplineSet
EndChar

StartChar: comma
Encoding: 44 44 149
Width: 230
Flags: MW
HStem: -165 100<20 50 20 60 20 50> 0 180<20 100 20 210>
VStem: 20 190<-165 10 -65 10 0 10 10 180 -52.5 180> 100 110<-10 0 0 0>
LayerCount: 2
Fore
SplineSet
210 180 m 1xe0
 210 10 l 2
 210 -115 170 -165 60 -165 c 2
 20 -165 l 1
 20 -65 l 1xe0
 80 -65 100 -60 100 -10 c 2
 100 0 l 1xd0
 20 0 l 1
 20 180 l 1
 210 180 l 1xe0
EndSplineSet
EndChar

StartChar: hyphen
Encoding: 45 45 120
Width: 360
Flags: MW
HStem: 260 180<20 340 20 340>
LayerCount: 2
Fore
SplineSet
340 440 m 1
 340 260 l 1
 20 260 l 1
 20 440 l 1
 340 440 l 1
EndSplineSet
EndChar

StartChar: period
Encoding: 46 46 117
Width: 230
Flags: MW
HStem: 0 180<20 210 20 210>
VStem: 20 190<0 180 0 180>
LayerCount: 2
Fore
SplineSet
210 180 m 1
 210 0 l 1
 20 0 l 1
 20 180 l 1
 210 180 l 1
EndSplineSet
EndChar

StartChar: slash
Encoding: 47 47 145
Width: 390
Flags: MW
HStem: -150 21G<0 170 0 0> 780 20G<210 380 380 380>
LayerCount: 2
Fore
SplineSet
380 800 m 1
 170 -150 l 1
 0 -150 l 1
 210 800 l 1
 380 800 l 1
EndSplineSet
EndChar

StartChar: one
Encoding: 49 49 125
Width: 330
Flags: MW
HStem: 0 21G<100 300 100 100> 780 20G<190 300 300 300>
VStem: 100 200<0 600 600 600>
LayerCount: 2
Fore
SplineSet
190 800 m 1
 300 800 l 1
 300 0 l 1
 100 0 l 1
 100 600 l 1
 10 600 l 1
 10 680 l 1
 105 695 155 740 190 800 c 1
EndSplineSet
EndChar

StartChar: two
Encoding: 50 50 130
Width: 500
Flags: MW
HStem: 0 180<240 480 240 480> 650 165<238.5 261.5>
VStem: 20 200<510 585 585 610 510 647.5> 20 220<0 225 180 225 180 235> 280 200<580 610 610 620>
LayerCount: 2
Fore
SplineSet
220 510 m 1xe8
 20 510 l 1
 20 585 l 2
 20 710 85 815 250 815 c 0
 415 815 480 710 480 585 c 0
 480 345 240 270 240 180 c 1xd8
 480 180 l 1
 480 0 l 1
 20 0 l 1
 20 100 l 2
 20 370 280 400 280 580 c 2
 280 610 l 2
 280 630 273 650 250 650 c 0
 227 650 220 630 220 610 c 2
 220 510 l 1xe8
EndSplineSet
EndChar

StartChar: four
Encoding: 52 52 132
Width: 560
Flags: MW
HStem: 0 21G<240 440 240 240> 165 150<135 240 135 240 10 240 440 550> 780 20G<240 440 440 440>
VStem: 240 200<0 165 0 165 315 565 565 565>
LayerCount: 2
Fore
SplineSet
240 800 m 1
 440 800 l 1
 440 315 l 1
 550 315 l 1
 550 165 l 1
 440 165 l 1
 440 0 l 1
 240 0 l 1
 240 165 l 1
 10 165 l 1
 10 305 l 1
 240 800 l 1
135 315 m 1
 240 315 l 1
 240 565 l 1
 135 315 l 1
EndSplineSet
EndChar

StartChar: five
Encoding: 53 53 128
Width: 500
Flags: MW
HStem: -15 165<240 260 240 332.5> 340 225<25 370> 420 145<243 370> 630 170<205 475 205 205>
VStem: 25 180<515 630 515 800 515 800> 25 195<177.5 800> 280 200<190 235 235 375 157.5 385 157.5 395>
LayerCount: 2
Fore
SplineSet
280 190 m 2xd6
 280 385 l 2
 280 405 273 420 253 420 c 0xba
 233 420 225 405 225 385 c 2
 225 340 l 1
 25 340 l 1
 25 800 l 1
 475 800 l 1
 475 630 l 1
 205 630 l 1
 205 515 l 1xda
 215 515 l 1
 216 517 230 565 310 565 c 0
 430 565 480 510 480 375 c 2
 480 235 l 2
 480 80 415 -15 250 -15 c 0
 85 -15 20 80 20 235 c 2
 20 280 l 1
 220 280 l 1
 220 190 l 2
 220 165 230 150 250 150 c 0
 270 150 280 165 280 190 c 2xd6
EndSplineSet
EndChar

StartChar: six
Encoding: 54 54 126
Width: 500
Flags: MW
HStem: -15 165<240 260 240 332.5> 390 130<240 372.5> 650 165<240 260>
VStem: 20 200<205 355 470 595 595 610> 280 200<190 205 205 320 142.5 355 142.5 365 560 595>
LayerCount: 2
Fore
SplineSet
20 205 m 2
 20 595 l 2
 20 720 85 815 250 815 c 0
 415 815 480 720 480 595 c 2
 480 560 l 1
 280 560 l 1
 280 610 l 2
 280 635 270 650 250 650 c 0
 230 650 220 635 220 610 c 2
 220 470 l 1
 230 470 l 1
 230 470 240 520 325 520 c 0
 420 520 480 460 480 320 c 2
 480 205 l 2
 480 80 415 -15 250 -15 c 0
 85 -15 20 80 20 205 c 2
220 355 m 2
 220 190 l 2
 220 165 230 150 250 150 c 0
 270 150 280 165 280 190 c 2
 280 355 l 2
 280 375 270 390 250 390 c 0
 230 390 220 375 220 355 c 2
EndSplineSet
EndChar

StartChar: seven
Encoding: 55 55 131
Width: 490
Flags: MW
HStem: 0 21G<90 290 90 90> 620 180<20 290 20 470>
VStem: 90 200<0 200>
LayerCount: 2
Fore
SplineSet
20 800 m 1
 470 800 l 1
 470 630 l 1
 470 630 290 440 290 0 c 1
 90 0 l 1
 90 400 290 620 290 620 c 1
 20 620 l 1
 20 800 l 1
EndSplineSet
EndChar

StartChar: eight
Encoding: 56 56 129
Width: 500
Flags: MW
HStem: -15 165<238.5 261.5 238.5 332.5> 345 150<238.5 261.5 238.5 262.5> 650 165<238.5 261.5>
VStem: 25 195<532.5 555 555 610> 280 200<190 215 215 250 142.5 285 142.5 306>
LayerCount: 2
Fore
SplineSet
20 215 m 2
 20 250 l 2
 20 395 105 415 105 415 c 1
 115 415 l 1
 115 425 l 1
 105 425 l 1
 105 425 25 445 25 595 c 0
 25 715 85 815 250 815 c 0
 415 815 475 715 475 595 c 0
 475 445 395 425 395 425 c 1
 385 425 l 1
 385 415 l 1
 395 415 l 1
 395 415 480 395 480 250 c 2
 480 215 l 2
 480 70 415 -15 250 -15 c 0
 85 -15 20 70 20 215 c 2
280 190 m 2
 280 285 l 2
 280 327 275 345 250 345 c 0
 225 345 220 327 220 285 c 2
 220 190 l 2
 220 170 227 150 250 150 c 0
 273 150 280 170 280 190 c 2
280 555 m 2
 280 610 l 2
 280 630 273 650 250 650 c 0
 227 650 220 630 220 610 c 2
 220 555 l 2
 220 510 227 495 250 495 c 0
 273 495 280 510 280 555 c 2
EndSplineSet
EndChar

StartChar: nine
Encoding: 57 57 127
Width: 500
Flags: MW
HStem: -15 165<240 260 240 332.5> 280 130<127.5 260> 650 165<240 260>
VStem: 20 200<205 240 177.5 240 480 595 595 610> 280 200<190 205 205 330 330 330 445 595>
LayerCount: 2
Fore
SplineSet
480 595 m 2
 480 205 l 2
 480 80 415 -15 250 -15 c 0
 85 -15 20 80 20 205 c 2
 20 240 l 1
 220 240 l 1
 220 190 l 2
 220 165 230 150 250 150 c 0
 270 150 280 165 280 190 c 2
 280 330 l 1
 270 330 l 1
 270 330 260 280 175 280 c 0
 80 280 20 340 20 480 c 2
 20 595 l 2
 20 720 85 815 250 815 c 0
 415 815 480 720 480 595 c 2
280 445 m 2
 280 610 l 2
 280 635 270 650 250 650 c 0
 230 650 220 635 220 610 c 2
 220 445 l 2
 220 425 230 410 250 410 c 0
 270 410 280 425 280 445 c 2
EndSplineSet
EndChar

StartChar: colon
Encoding: 58 58 119
Width: 230
Flags: MW
HStem: 90 180<20 210 20 210> 370 180<20 210 20 210>
VStem: 20 190<90 270 90 270 370 550>
LayerCount: 2
Fore
SplineSet
210 270 m 1
 210 90 l 1
 20 90 l 1
 20 270 l 1
 210 270 l 1
210 550 m 1
 210 370 l 1
 20 370 l 1
 20 550 l 1
 210 550 l 1
EndSplineSet
EndChar

StartChar: semicolon
Encoding: 59 59 157
Width: 230
Flags: MW
HStem: -165 100<20 50 20 60 20 50> 0 180<20 100 20 210> 320 180<20 210 20 210>
VStem: 20 190<-165 10 -65 10 0 10 10 180 -52.5 180 320 500> 100 110<-10 0 0 0>
LayerCount: 2
Fore
SplineSet
210 500 m 1xf0
 210 320 l 1
 20 320 l 1
 20 500 l 1
 210 500 l 1xf0
210 180 m 1
 210 10 l 2
 210 -115 170 -165 60 -165 c 2
 20 -165 l 1
 20 -65 l 1xf0
 80 -65 100 -60 100 -10 c 2
 100 0 l 1xe8
 20 0 l 1
 20 180 l 1
 210 180 l 1
EndSplineSet
EndChar

StartChar: less
Encoding: 60 60 204
Width: 427
Flags: MW
HStem: 118 21G<297 297> 652 20G<297 297>
LayerCount: 2
Fore
SplineSet
297 118 m 1
 20 395 l 1
 297 672 l 1
 387 582 l 1
 200 395 l 1
 387 208 l 1
 297 118 l 1
EndSplineSet
EndChar

StartChar: equal
Encoding: 61 61 137
Width: 530
Flags: MW
HStem: 230 150<50 480 50 480> 440 150<50 480 50 480>
LayerCount: 2
Fore
SplineSet
50 380 m 1
 480 380 l 1
 480 230 l 1
 50 230 l 1
 50 380 l 1
50 590 m 1
 480 590 l 1
 480 440 l 1
 50 440 l 1
 50 590 l 1
EndSplineSet
EndChar

StartChar: greater
Encoding: 62 62 205
Width: 427
Flags: MW
HStem: 118 21G<130 130> 652 20G<130 130>
LayerCount: 2
Fore
SplineSet
407 395 m 1
 130 118 l 1
 40 208 l 1
 227 395 l 1
 40 582 l 1
 130 672 l 1
 407 395 l 1
EndSplineSet
EndChar

StartChar: question
Encoding: 63 63 138
Width: 500
Flags: MW
HStem: 0 180<150 340 150 340> 650 165<238.5 261.5>
VStem: 20 200<515 595 595 610 515 657.5> 150 70 280 60 280 200<590 610 610 620>
LayerCount: 2
Fore
SplineSet
340 290 m 2xe8
 340 235 l 1
 150 235 l 1
 150 280 l 2xd8
 150 480 280 430 280 590 c 2
 280 610 l 2
 280 630 273 650 250 650 c 0
 227 650 220 630 220 610 c 2
 220 515 l 1
 20 515 l 1
 20 595 l 2
 20 720 90 815 250 815 c 0
 410 815 480 720 480 595 c 0xe4
 480 405 340 390 340 290 c 2xe8
340 180 m 1
 340 0 l 1
 150 0 l 1
 150 180 l 1
 340 180 l 1
EndSplineSet
EndChar

StartChar: at
Encoding: 64 64 215
Width: 995
Flags: MW
HStem: -185 130<404 524 404 531> 30 135<382.5 514 488 778> 415 210<430.5 473 283 573> 505 120<493 513> 705 130<404 598>
VStem: 20 141<198.5 451.5 198.5 488.5> 273 190<201 243 201 247.5> 533 190<225 335 335 335 414 425 160 475 160 483.5> 836 139<330 494>
LayerCount: 2
Fore
SplineSet
473 415 m 1xef80
 283 415 l 1xef80
 283 445 l 2
 283 550 358 625 503 625 c 0
 643 625 723 555 723 425 c 2
 723 160 l 1
 805 150 836 275 836 385 c 0
 836 603 695 705 501 705 c 0
 307 705 161 578 161 325 c 0
 161 72 307 -55 501 -55 c 0
 547 -55 590 -48 629 -34 c 1
 674 -156 l 1
 620 -175 562 -185 500 -185 c 0
 232 -185 20 -2 20 325 c 0
 20 652 232 835 500 835 c 0
 768 835 975 677 975 385 c 0
 975 150 860 30 696 30 c 0
 600 30 570 60 558 110 c 1
 548 110 l 1
 548 110 520 30 420 30 c 0
 345 30 273 75 273 175 c 0
 273 320 420 363 513 405 c 2
 533 414 l 1
 533 475 l 2
 533 492 523 505 503 505 c 0xdf80
 483 505 473 492 473 475 c 2
 473 415 l 1xef80
533 225 m 2
 533 335 l 1
 508 315 l 2
 480 293 463 265 463 221 c 0
 463 181 478 165 498 165 c 0
 530 165 533 195 533 225 c 2
EndSplineSet
EndChar

StartChar: D
Encoding: 68 68 23
Width: 505
Flags: MW
HStem: 0 150<220 230 230 250 220 255> 650 150<220 230 220 220>
VStem: 30 190<150 650 150 800 150 800> 285 200<225 240 240 560>
LayerCount: 2
Fore
SplineSet
30 0 m 1
 30 800 l 1
 255 800 l 2
 405 800 485 750 485 560 c 2
 485 240 l 2
 485 50 405 0 255 0 c 2
 30 0 l 1
285 225 m 2
 285 575 l 2
 285 635 270 650 230 650 c 2
 220 650 l 1
 220 150 l 1
 230 150 l 2
 270 150 285 165 285 225 c 2
EndSplineSet
EndChar

StartChar: E
Encoding: 69 69 30
Width: 430
Flags: MW
HStem: 0 180<230 410 230 410> 320 180<230 380 230 380> 620 180<230 410 230 230>
VStem: 30 200<180 320 180 500 500 620>
LayerCount: 2
Fore
SplineSet
380 500 m 1
 380 320 l 1
 230 320 l 1
 230 180 l 1
 410 180 l 1
 410 0 l 1
 30 0 l 1
 30 800 l 1
 410 800 l 1
 410 620 l 1
 230 620 l 1
 230 500 l 1
 380 500 l 1
EndSplineSet
EndChar

StartChar: F
Encoding: 70 70 53
Width: 430
Flags: MW
HStem: 0 21G<30 230 30 30> 320 180<230 390 230 390> 620 180<230 410 230 230>
VStem: 30 200<0 320 0 500 500 620>
LayerCount: 2
Fore
SplineSet
390 500 m 1
 390 320 l 1
 230 320 l 1
 230 0 l 1
 30 0 l 1
 30 800 l 1
 410 800 l 1
 410 620 l 1
 230 620 l 1
 230 500 l 1
 390 500 l 1
EndSplineSet
EndChar

StartChar: G
Encoding: 71 71 109
Width: 505
Flags: MW
HStem: -15 165<245.5 274 245.5 303> 0 21G<365 480 365 365> 650 165<238.5 261.5>
VStem: 20 200<235 565 565 610> 245 235<320 440 0 440> 280 200<500 565 0 610 0 620> 300 180<280 320 320 320>
LayerCount: 2
Fore
SplineSet
20 235 m 2xb8
 20 565 l 2
 20 720 85 815 250 815 c 0
 415 815 480 720 480 565 c 2
 480 500 l 1
 280 500 l 1
 280 610 l 2xb4
 280 630 273 650 250 650 c 0
 227 650 220 630 220 610 c 2
 220 203 l 2
 220 168 233 150 258 150 c 0
 290 150 300 183 300 280 c 2
 300 320 l 1xb2
 245 320 l 1
 245 440 l 1
 480 440 l 1
 480 0 l 1
 365 0 l 1x78
 380 200 l 1
 360 200 l 1
 360 200 398 -15 208 -15 c 0
 73 -15 20 80 20 235 c 2xb8
EndSplineSet
EndChar

StartChar: H
Encoding: 72 72 177
Width: 520
Flags: MW
HStem: 0 21G<30 230 30 30 290 490 290 290> 780 20G<30 230 230 230 290 490 490 490>
VStem: 30 200<0 320 0 500 500 800> 290 200<0 320 320 320 500 800 0 800>
LayerCount: 2
Fore
SplineSet
290 800 m 1
 490 800 l 1
 490 0 l 1
 290 0 l 1
 290 320 l 1
 230 320 l 1
 230 0 l 1
 30 0 l 1
 30 800 l 1
 230 800 l 1
 230 500 l 1
 290 500 l 1
 290 800 l 1
EndSplineSet
EndChar

StartChar: L
Encoding: 76 76 12
Width: 430
Flags: MW
HStem: 0 180<230 420 230 420> 780 20G<30 230 230 230>
VStem: 30 200<180 800 180 800 180 800>
LayerCount: 2
Fore
SplineSet
420 0 m 1
 30 0 l 1
 30 800 l 1
 230 800 l 1
 230 180 l 1
 420 180 l 1
 420 0 l 1
EndSplineSet
EndChar

StartChar: N
Encoding: 78 78 48
Width: 520
Flags: MW
HStem: 0 21G<30 215 30 30 315 490 315 315> 780 20G<30 205 205 205 305 490 490 490>
VStem: 30 177 312 178
LayerCount: 2
Fore
SplineSet
30 800 m 1
 205 800 l 1
 320 435 l 1
 305 800 l 1
 490 800 l 1
 490 0 l 1
 315 0 l 1
 200 365 l 1
 215 0 l 1
 30 0 l 1
 30 800 l 1
EndSplineSet
EndChar

StartChar: Q
Encoding: 81 81 107
Width: 500
Flags: MW
HStem: -230 185<272.5 450 335 450 335 450> 650 165<238.5 261.5>
VStem: 20 200<235 565 565 610> 280 200<190 235 235 565>
LayerCount: 2
Fore
SplineSet
20 235 m 2
 20 565 l 2
 20 720 85 815 250 815 c 0
 415 815 480 720 480 565 c 2
 480 235 l 2
 480 98 430 8 305 -11 c 1
 305 -15 l 2
 305 -35 318 -45 335 -45 c 2
 450 -45 l 1
 450 -230 l 1
 320 -230 l 2
 225 -230 170 -210 170 -80 c 2
 170 -6 l 1
 63 21 20 108 20 235 c 2
250 150 m 0
 273 150 280 170 280 190 c 2
 280 610 l 2
 280 630 273 650 250 650 c 0
 227 650 220 630 220 610 c 2
 220 190 l 2
 220 170 227 150 250 150 c 0
EndSplineSet
EndChar

StartChar: R
Encoding: 82 82 54
Width: 520
Flags: MW
HStem: 0 21G<30 30 30 230 310 310 310 510> 780 20G<30 290 290 370>
VStem: 30 200<0 300 0 465 465 645> 290 200<165 270 270 275 97.5 278.5 495 535 535 610>
LayerCount: 2
Fore
SplineSet
30 0 m 1
 30 800 l 1
 290 800 l 2
 450 800 490 715 490 610 c 2
 490 535 l 2
 490 410 400 395 400 395 c 1
 390 395 l 1
 390 385 l 1
 400 385 l 1
 400 385 490 375 490 275 c 2
 490 165 l 2
 490 30 510 20 510 20 c 1
 510 0 l 1
 310 0 l 1
 310 0 290 10 290 165 c 2
 290 270 l 2
 290 287 280 300 260 300 c 2
 230 300 l 1
 230 0 l 1
 30 0 l 1
290 495 m 2
 290 615 l 2
 290 632 280 645 260 645 c 2
 230 645 l 1
 230 465 l 1
 260 465 l 2
 280 465 290 478 290 495 c 2
EndSplineSet
EndChar

StartChar: T
Encoding: 84 84 10
Width: 480
Flags: MW
HStem: 0 21G<140 340 140 140> 620 180<10 140 10 470 340 470 340 340>
VStem: 140 200<0 620 0 620>
LayerCount: 2
Fore
SplineSet
10 800 m 1
 470 800 l 1
 470 620 l 1
 340 620 l 1
 340 0 l 1
 140 0 l 1
 140 620 l 1
 10 620 l 1
 10 800 l 1
EndSplineSet
EndChar

StartChar: V
Encoding: 86 86 65
Width: 550
Flags: MW
HStem: 0 21G<128 422 128 128> 780 20G<10 215 215 215 335 540 540 540>
LayerCount: 2
Fore
SplineSet
265 250 m 1
 285 250 l 1
 335 800 l 1
 540 800 l 1
 422 0 l 1
 128 0 l 1
 10 800 l 1
 215 800 l 1
 265 250 l 1
EndSplineSet
EndChar

StartChar: W
Encoding: 87 87 70
Width: 820
Flags: MW
HStem: 0 21G<105 365 105 105 455 715 455 455> 780 20G<10 220 220 220 307 513 513 513 600 810 810 810>
LayerCount: 2
Fore
SplineSet
600 800 m 1
 810 800 l 1
 715 0 l 1
 455 0 l 1
 415 438 l 1
 405 438 l 1
 365 0 l 1
 105 0 l 1
 10 800 l 1
 220 800 l 1
 245 270 l 1
 255 270 l 1
 307 800 l 1
 513 800 l 1
 565 270 l 1
 575 270 l 1
 600 800 l 1
EndSplineSet
EndChar

StartChar: X
Encoding: 88 88 71
Width: 560
Flags: MW
HStem: 0 21G<10 225 10 10 335 550 335 335> 780 20G<10 225 225 225 335 550 550 550>
LayerCount: 2
Fore
SplineSet
135 410 m 1
 10 800 l 1
 225 800 l 1
 275 580 l 1
 285 580 l 1
 335 800 l 1
 550 800 l 1
 425 410 l 1
 550 0 l 1
 335 0 l 1
 285 230 l 1
 275 230 l 1
 225 0 l 1
 10 0 l 1
 135 410 l 1
EndSplineSet
EndChar

StartChar: bracketleft
Encoding: 91 91 143
Width: 340
Flags: MW
HStem: -150 150<210 320 210 320> 710 150<210 210 210 320>
VStem: 40 170<0 710 0 860 0 860>
LayerCount: 2
Fore
SplineSet
210 710 m 1
 210 0 l 1
 320 0 l 1
 320 -150 l 1
 40 -150 l 1
 40 860 l 1
 320 860 l 1
 320 710 l 1
 210 710 l 1
EndSplineSet
EndChar

StartChar: backslash
Encoding: 92 92 146
Width: 390
Flags: MW
HStem: -150 21G<220 220 220 390> 780 20G<10 180 180 180>
LayerCount: 2
Fore
SplineSet
220 -150 m 1
 10 800 l 1
 180 800 l 1
 390 -150 l 1
 220 -150 l 1
EndSplineSet
EndChar

StartChar: bracketright
Encoding: 93 93 144
Width: 340
Flags: MW
HStem: -150 150<20 130 20 300 20 130> 710 150<20 130 20 300>
VStem: 130 170<0 710 710 710>
LayerCount: 2
Fore
SplineSet
130 0 m 1
 130 710 l 1
 20 710 l 1
 20 860 l 1
 300 860 l 1
 300 -150 l 1
 20 -150 l 1
 20 0 l 1
 130 0 l 1
EndSplineSet
EndChar

StartChar: asciicircum
Encoding: 94 94 209
Width: 500
Flags: MW
HStem: 600 220<175 180 20 325 320 325 175 480 320 320>
LayerCount: 2
Fore
SplineSet
20 620 m 1
 175 820 l 1
 325 820 l 1
 480 620 l 1
 480 600 l 1
 320 600 l 1
 255 705 l 1
 245 705 l 1
 180 600 l 1
 20 600 l 1
 20 620 l 1
EndSplineSet
EndChar

StartChar: underscore
Encoding: 95 95 136
Width: 580
Flags: MW
HStem: 0 170<40 540 40 540>
LayerCount: 2
Fore
SplineSet
540 170 m 1
 540 0 l 1
 40 0 l 1
 40 170 l 1
 540 170 l 1
EndSplineSet
EndChar

StartChar: b
Encoding: 98 98 43
Width: 490
Flags: MW
HStem: -15 120<240 372.5> 0 105<30 260> 535 130<240 377.5> 780 20G<30 220 220 220>
VStem: 30 190<0 59 130 140 140 500 575 800> 280 190<140 190 190 495>
LayerCount: 2
Fore
SplineSet
30 0 m 1x7c
 30 800 l 1
 220 800 l 1
 220 575 l 1
 223 583 254 665 340 665 c 0
 415 665 470 620 470 495 c 2
 470 190 l 2
 470 30 410 -15 335 -15 c 0xbc
 252 -15 221 56 220 59 c 1
 220 0 l 1
 30 0 l 1x7c
280 140 m 2x7c
 280 500 l 2
 280 520 270 535 250 535 c 0
 230 535 220 520 220 500 c 2
 220 140 l 2
 220 120 230 105 250 105 c 0
 270 105 280 120 280 140 c 2x7c
EndSplineSet
EndChar

StartChar: d
Encoding: 100 100 60
Width: 490
Flags: MW
HStem: -15 120<120.5 250> 0 21G<290 460 290 290> 560 105<120 250> 560 240<230 460>
VStem: 20 190<165 460 460 525> 270 190<140 525 525 535 605 800 0 800>
LayerCount: 2
Fore
SplineSet
460 800 m 1x9c
 460 0 l 1
 290 0 l 1x5c
 275 65 l 1
 275 65 253 -15 158 -15 c 0
 83 -15 20 30 20 165 c 2
 20 460 l 2
 20 620 80 665 160 665 c 0xac
 238 665 268 608 270 605 c 1
 270 800 l 1
 460 800 l 1x9c
210 525 m 2
 210 140 l 2
 210 120 220 105 240 105 c 0xac
 260 105 270 120 270 140 c 2
 270 525 l 2
 270 545 260 560 240 560 c 0
 220 560 210 545 210 525 c 2
EndSplineSet
EndChar

StartChar: f
Encoding: 102 102 85
Width: 400
Flags: MW
HStem: 0 21G<105 295 105 105> 490 160<10 100 10 105 10 100 300 390> 710 160<291.5 300 300 375>
VStem: 105 165 105 190<0 490 0 490>
LayerCount: 2
Fore
SplineSet
270 680 m 0xf0
 270 660 283 650 300 650 c 2
 390 650 l 1
 390 490 l 1
 295 490 l 1
 295 0 l 1xe8
 105 0 l 1
 105 490 l 1
 10 490 l 1
 10 650 l 1
 100 650 l 1
 100 700 l 2
 100 840 185 870 290 870 c 2
 375 870 l 1
 375 710 l 1
 300 710 l 2
 283 710 270 700 270 680 c 0xf0
EndSplineSet
EndChar

StartChar: h
Encoding: 104 104 52
Width: 500
Flags: MW
HStem: 0 21G<30 220 30 30 280 470 280 280> 515 150<240 382.5> 780 20G<30 220 220 220>
VStem: 30 190<0 480 0 560 560 800> 280 190<0 480 480 490>
LayerCount: 2
Fore
SplineSet
280 0 m 1
 280 480 l 2
 280 500 270 515 250 515 c 0
 230 515 220 500 220 480 c 2
 220 0 l 1
 30 0 l 1
 30 800 l 1
 220 800 l 1
 220 560 l 1
 220 560 255 665 345 665 c 0
 420 665 470 620 470 495 c 2
 470 0 l 1
 280 0 l 1
EndSplineSet
EndChar

StartChar: i
Encoding: 105 105 33
Width: 250
Flags: MW
HStem: 0 21G<30 220 30 30> 650 150<30 220 30 220>
VStem: 30 190<0 610 0 610 650 800>
LayerCount: 2
Fore
SplineSet
30 610 m 1
 220 610 l 1
 220 0 l 1
 30 0 l 1
 30 610 l 1
30 800 m 1
 220 800 l 1
 220 650 l 1
 30 650 l 1
 30 800 l 1
EndSplineSet
EndChar

StartChar: j
Encoding: 106 106 75
Width: 250
Flags: MW
HStem: -180 150<-50 0 0 10 -50 70 -50 0> 650 150<30 220 30 220>
VStem: 30 190<0 30 30 610 650 800>
LayerCount: 2
Fore
SplineSet
30 800 m 1
 220 800 l 1
 220 650 l 1
 30 650 l 1
 30 800 l 1
30 0 m 2
 30 610 l 1
 220 610 l 1
 220 30 l 2
 220 -95 200 -180 70 -180 c 2
 -50 -180 l 1
 -50 -30 l 1
 0 -30 l 2
 20 -30 30 -17 30 0 c 2
EndSplineSet
EndChar

StartChar: k
Encoding: 107 107 74
Width: 490
Flags: MW
HStem: 0 21G<30 220 30 30 290 480 290 290> 630 20G<290 480> 780 20G<30 220 220 220>
VStem: 30 190<0 255 405 800> 270 190<165 205 205 210 97.5 222.5 457.5 562.5>
LayerCount: 2
Fore
SplineSet
30 800 m 1
 220 800 l 1
 220 405 l 1
 245 405 270 415 270 500 c 0
 270 640 290 650 290 650 c 1
 480 650 l 1
 480 630 l 1
 480 630 460 615 460 510 c 0
 460 350 375 345 375 345 c 1
 365 345 l 1
 365 335 l 1
 375 335 l 1
 375 335 460 335 460 210 c 2
 460 165 l 2
 460 30 480 20 480 20 c 1
 480 0 l 1
 290 0 l 1
 290 0 270 10 270 165 c 2
 270 205 l 2
 270 240 270 255 230 255 c 2
 220 255 l 1
 220 0 l 1
 30 0 l 1
 30 800 l 1
EndSplineSet
EndChar

StartChar: l
Encoding: 108 108 39
Width: 250
Flags: MW
HStem: 0 21G<30 220 30 30> 780 20G<30 220 220 220>
VStem: 30 190<0 800 0 800>
LayerCount: 2
Fore
SplineSet
30 800 m 1
 220 800 l 1
 220 0 l 1
 30 0 l 1
 30 800 l 1
EndSplineSet
EndChar

StartChar: n
Encoding: 110 110 37
Width: 500
Flags: MW
HStem: 0 21G<30 220 30 30 280 470 280 280> 515 135<30 260> 515 150<240 382.5>
VStem: 30 190<0 480 0 560 560 650 0 650> 280 190<0 480 480 490>
LayerCount: 2
Fore
SplineSet
280 0 m 1xb8
 280 480 l 2
 280 500 270 515 250 515 c 0
 230 515 220 500 220 480 c 2
 220 0 l 1
 30 0 l 1
 30 650 l 1
 220 650 l 1xd8
 220 560 l 1
 220 560 255 665 345 665 c 0
 420 665 470 620 470 495 c 2
 470 0 l 1
 280 0 l 1xb8
EndSplineSet
EndChar

StartChar: o
Encoding: 111 111 32
Width: 480
Flags: MW
HStem: -15 130<230 250 230 322.5> 535 130<230 250>
VStem: 20 190<215 435 435 502.5> 270 190<147.5 215 215 435>
LayerCount: 2
Fore
SplineSet
20 215 m 2
 20 435 l 2
 20 570 75 665 240 665 c 0
 405 665 460 570 460 435 c 2
 460 215 l 2
 460 80 405 -15 240 -15 c 0
 75 -15 20 80 20 215 c 2
270 145 m 2
 270 505 l 2
 270 522 260 535 240 535 c 0
 220 535 210 522 210 505 c 2
 210 145 l 2
 210 128 220 115 240 115 c 0
 260 115 270 128 270 145 c 2
EndSplineSet
EndChar

StartChar: p
Encoding: 112 112 38
Width: 490
Flags: MW
HStem: -150 245<30 260 30 260> -15 110<240 370> 525 125<30 260> 525 140<240 377.5>
VStem: 30 190<-150 44 120 130 130 490> 280 190<130 190 190 490 490 495>
LayerCount: 2
Fore
SplineSet
30 -150 m 1xac
 30 650 l 1
 220 650 l 1xac
 210 570 l 1
 220 570 l 1
 220 570 250 665 340 665 c 0
 415 665 470 620 470 495 c 2
 470 190 l 2
 470 30 410 -15 330 -15 c 0x5c
 252 -15 221 41 220 44 c 1
 220 -150 l 1
 30 -150 l 1xac
280 130 m 2
 280 490 l 2
 280 510 270 525 250 525 c 0
 230 525 220 510 220 490 c 2
 220 130 l 2
 220 110 230 95 250 95 c 0
 270 95 280 110 280 130 c 2
EndSplineSet
EndChar

StartChar: q
Encoding: 113 113 61
Width: 490
Flags: MW
HStem: -150 21G<270 460 270 270> -15 120<120.5 250> 545 105<230 460> 545 120<117.5 250>
VStem: 20 190<165 460 460 510> 270 190<-150 64 64 64 140 510 510 520 585 650 -150 650>
LayerCount: 2
Fore
SplineSet
460 650 m 1xec
 460 -150 l 1
 270 -150 l 1
 270 64 l 1
 268 57 248 -15 158 -15 c 0
 83 -15 20 30 20 165 c 2
 20 460 l 2
 20 620 80 665 155 665 c 0xdc
 238 665 268 589 270 585 c 1
 270 650 l 1
 460 650 l 1xec
210 510 m 2xec
 210 140 l 2
 210 120 220 105 240 105 c 0
 260 105 270 120 270 140 c 2
 270 510 l 2
 270 530 260 545 240 545 c 0
 220 545 210 530 210 510 c 2xec
EndSplineSet
EndChar

StartChar: s
Encoding: 115 115 84
Width: 476
Flags: MW
HStem: -15 130<228 248 228 323> 425 240<268 323 160.5 453 268 268> 535 130<228 248>
VStem: 23 185<430 485 485 505> 268 190<145 170 170 235 122.5 505>
LayerCount: 2
Fore
SplineSet
238 115 m 0xb8
 258 115 268 128 268 145 c 2
 268 170 l 2
 268 300 23 280 23 475 c 0
 23 575 83 665 238 665 c 0
 408 665 453 560 453 495 c 2
 453 425 l 1
 268 425 l 1xd8
 268 505 l 2
 268 522 258 535 238 535 c 0
 218 535 208 522 208 505 c 2
 208 485 l 2
 208 375 458 385 458 175 c 0
 458 70 408 -15 238 -15 c 0
 68 -15 18 80 18 165 c 2
 18 240 l 1
 208 240 l 1
 208 145 l 2
 208 128 218 115 238 115 c 0xb8
EndSplineSet
EndChar

StartChar: t
Encoding: 116 116 86
Width: 395
Flags: MW
HStem: -10 160<188 355> 490 160<10 100 10 105 290 385> 780 20G<290 290>
VStem: 100 190<180 490>
LayerCount: 2
Fore
SplineSet
385 490 m 1
 290 490 l 1
 290 180 l 2
 290 160 295 150 320 150 c 2
 355 150 l 1
 355 0 l 1
 355 0 330 -10 265 -10 c 0
 111 -10 100 80 100 180 c 2
 100 490 l 1
 10 490 l 1
 10 650 l 1
 105 650 l 1
 105 755 l 1
 290 800 l 1
 290 650 l 1
 385 650 l 1
 385 490 l 1
EndSplineSet
EndChar

StartChar: u
Encoding: 117 117 40
Width: 500
Flags: MW
HStem: -15 150<117.5 260> 0 21G<300 470 300 300> 630 20G<30 220 220 220 280 470 470 470>
VStem: 30 190<160 170 170 650> 280 190<90 90 170 650 0 650>
LayerCount: 2
Fore
SplineSet
220 650 m 1xb8
 220 170 l 2
 220 150 230 135 250 135 c 0xb8
 270 135 280 150 280 170 c 2
 280 650 l 1
 470 650 l 1
 470 0 l 1
 300 0 l 1x78
 287 90 l 1
 280 90 l 1
 280 90 245 -15 155 -15 c 0
 80 -15 30 30 30 155 c 2
 30 650 l 1
 220 650 l 1xb8
EndSplineSet
EndChar

StartChar: v
Encoding: 118 118 80
Width: 520
Flags: MW
HStem: 0 21G<125 395 125 125> 630 20G<10 210 210 210 310 510 510 510>
LayerCount: 2
Fore
SplineSet
210 650 m 1
 250 230 l 1
 270 230 l 1
 310 650 l 1
 510 650 l 1
 395 0 l 1
 125 0 l 1
 10 650 l 1
 210 650 l 1
EndSplineSet
EndChar

StartChar: w
Encoding: 119 119 83
Width: 760
Flags: MW
HStem: 0 21G<92 331 92 92 429 668 429 429> 630 20G<10 200 200 200 290 470 470 470 560 750 750 750>
LayerCount: 2
Fore
SplineSet
525 230 m 1
 535 230 l 1
 560 650 l 1
 750 650 l 1
 668 0 l 1
 429 0 l 1
 385 340 l 1
 375 340 l 1
 331 0 l 1
 92 0 l 1
 10 650 l 1
 200 650 l 1
 225 230 l 1
 235 230 l 1
 290 650 l 1
 470 650 l 1
 525 230 l 1
EndSplineSet
EndChar

StartChar: y
Encoding: 121 121 111
Width: 515
Flags: MW
HStem: -160 160<30 135 30 205 30 135> 630 20G<10 210 210 210 305 505 505 505>
LayerCount: 2
Fore
SplineSet
270 200 m 1
 305 650 l 1
 505 650 l 1
 425 120 l 2
 391 -103 355 -160 205 -160 c 2
 30 -160 l 1
 30 0 l 1
 135 0 l 1
 10 650 l 1
 210 650 l 1
 260 200 l 1
 270 200 l 1
EndSplineSet
EndChar

StartChar: z
Encoding: 122 122 76
Width: 450
Flags: MW
HStem: 0 170<222 430 222 430> 480 170<20 228 20 430>
LayerCount: 2
Fore
SplineSet
20 0 m 1
 20 165 l 1
 228 480 l 1
 20 480 l 1
 20 650 l 1
 430 650 l 1
 430 485 l 1
 222 170 l 1
 430 170 l 1
 430 0 l 1
 20 0 l 1
EndSplineSet
EndChar

StartChar: braceleft
Encoding: 123 123 166
Width: 380
Flags: MW
HStem: -150 21G<230 290 290 350> 0 21G<320 350 350 350> 295 140<20 50 20 50> 840 20G<290 350 350 350>
VStem: 90 190<35 40 40 230 480 500 500 670>
LayerCount: 2
Fore
SplineSet
190 360 m 1
 200 360 l 1
 200 360 280 360 280 230 c 2
 280 40 l 2
 280 10 300 0 320 0 c 2
 350 0 l 1
 350 -150 l 1
 290 -150 l 2
 170 -150 90 -120 90 35 c 2
 90 250 l 2
 90 290 80 295 50 295 c 2
 20 295 l 1
 20 435 l 1
 50 435 l 2
 80 435 90 440 90 480 c 2
 90 675 l 2
 90 830 170 860 290 860 c 2
 350 860 l 1
 350 710 l 1
 320 710 l 2
 300 710 280 700 280 670 c 2
 280 500 l 2
 280 370 200 370 200 370 c 1
 190 370 l 1
 190 360 l 1
EndSplineSet
EndChar

StartChar: bar
Encoding: 124 124 139
Width: 270
Flags: MW
HStem: -150 21G<40 230 40 40> 930 20G<40 230 230 230>
VStem: 40 190<-150 950 -150 950>
LayerCount: 2
Fore
SplineSet
230 950 m 1
 230 -150 l 1
 40 -150 l 1
 40 950 l 1
 230 950 l 1
EndSplineSet
EndChar

StartChar: braceright
Encoding: 125 125 167
Width: 380
Flags: MW
HStem: -150 21G<30 90 30 30> 0 21G<30 60 60 70> 295 140<315 360 330 360> 840 20G<30 90 90 150>
VStem: 100 190<40 230 230 250 500 670 670 675>
LayerCount: 2
Fore
SplineSet
180 360 m 1
 190 360 l 1
 190 370 l 1
 180 370 l 1
 180 370 100 370 100 500 c 2
 100 670 l 2
 100 700 80 710 60 710 c 2
 30 710 l 1
 30 860 l 1
 90 860 l 2
 210 860 290 830 290 675 c 2
 290 480 l 2
 290 440 300 435 330 435 c 2
 360 435 l 1
 360 295 l 1
 330 295 l 2
 300 295 290 290 290 250 c 2
 290 35 l 2
 290 -120 210 -150 90 -150 c 2
 30 -150 l 1
 30 0 l 1
 60 0 l 2
 80 0 100 10 100 40 c 2
 100 230 l 2
 100 360 180 360 180 360 c 1
EndSplineSet
EndChar

StartChar: asciitilde
Encoding: 126 126 426
Width: 610
Flags: MW
HStem: 260 180<385.5 420.5 373.5 488.5> 330 110 330 180<190.5 225 122.5 237>
LayerCount: 2
Fore
SplineSet
445 500 m 1x40
 590 480 l 1
 590 443 l 2
 590 330 540 260 437 260 c 0x80
 334 260 271 330 203 330 c 0
 178 330 165 318 165 290 c 2
 165 270 l 1
 20 290 l 1
 20 326 l 2
 20 439 71 510 174 510 c 0x20
 276 510 339 440 408 440 c 0
 433 440 445 453 445 480 c 2
 445 500 l 1x40
EndSplineSet
EndChar

StartChar: exclamdown
Encoding: 161 161 218
Width: 260
Flags: MW
HStem: 0 21G<20 240 20 20> 620 180<35 225 35 225>
VStem: 20 220<0 150 0 150> 35 190<620 800 620 800>
LayerCount: 2
Fore
SplineSet
35 620 m 1xd0
 35 800 l 1
 225 800 l 1
 225 620 l 1
 35 620 l 1xd0
20 150 m 1xe0
 50 565 l 1
 210 565 l 1
 240 150 l 1
 240 0 l 1
 20 0 l 1
 20 150 l 1xe0
EndSplineSet
EndChar

StartChar: cent
Encoding: 162 162 220
Width: 480
Flags: MW
HStem: -150 21G<190 290 190 190> 780 20G<190 290 290 290>
VStem: 20 190<215 435 435 495> 190 100<-150 -12 -150 -12 661 800> 270 190<154.5 215 215 285 154.5 285 390 435>
LayerCount: 2
Fore
SplineSet
290 -12 m 1xd0
 290 -150 l 1
 190 -150 l 1
 190 -12 l 1xd0
 63 5 20 94 20 215 c 2
 20 435 l 2xe8
 20 555 63 643 190 661 c 1
 190 800 l 1
 290 800 l 1
 290 661 l 1xd0
 416 643 460 555 460 435 c 2
 460 390 l 1
 270 390 l 1
 270 505 l 2
 270 522 260 535 240 535 c 0
 220 535 210 522 210 505 c 2
 210 145 l 2
 210 128 220 115 240 115 c 0
 260 115 270 128 270 145 c 2
 270 285 l 1
 460 285 l 1
 460 215 l 2xe8
 460 94 416 5 290 -12 c 1xd0
EndSplineSet
EndChar

StartChar: sterling
Encoding: 163 163 223
Width: 575
Flags: MW
HStem: -15 165<324.5 337.5 310 447.5> 20 130 360 80<5 92 5 111 5 92 289 415 289 289> 650 165<277.5 302.5>
VStem: 65 190<572.5 615 572.5 652.5> 115 175<277.5 322> 325 200<500 565 500 610 500 620> 355 200<190 260 132.5 260>
LayerCount: 2
Fore
SplineSet
415 440 m 1xba
 415 360 l 1
 289 360 l 1
 290 353 290 347 290 340 c 0
 290 215 235 160 235 160 c 1
 270 160 295 150 325 150 c 0xb6
 350 150 355 170 355 190 c 2
 355 260 l 1
 555 260 l 1
 555 185 l 2
 555 80 520 -15 375 -15 c 0xb9
 274 -15 220 20 135 20 c 0
 95 20 65 0 65 0 c 1x7a
 30 155 l 1
 30 155 115 190 115 315 c 0xb6
 115 329 113 344 111 360 c 1
 5 360 l 1
 5 440 l 1
 92 440 l 1
 79 488 65 537 65 585 c 0xba
 65 720 130 815 295 815 c 0
 460 815 525 720 525 565 c 2
 525 500 l 1
 325 500 l 1
 325 610 l 2
 325 630 315 650 290 650 c 0xb6
 265 650 255 630 255 600 c 0
 255 545 270 497 280 440 c 1
 415 440 l 1xba
EndSplineSet
EndChar

StartChar: currency
Encoding: 164 164 216
Width: 592
Flags: MW
HStem: 134 21G<77 77 515 515> 180 130<271 321 271 321> 510 130<271 321> 666 20G<77 77 515 515>
VStem: 66 140<384 435.5> 386 140<384 435.5 384 442.5>
LayerCount: 2
Fore
SplineSet
572 629 m 1
 486 543 l 1
 511 507 526 461 526 410 c 0
 526 358 511 313 486 276 c 1
 572 191 l 1
 515 134 l 1
 429 219 l 1
 392 194 346 180 296 180 c 0
 245 180 200 194 162 219 c 1
 77 134 l 1
 20 191 l 1
 105 276 l 1
 80 313 66 358 66 410 c 0
 66 461 80 507 105 543 c 1
 20 629 l 1
 77 686 l 1
 162 600 l 1
 200 626 245 640 296 640 c 0
 346 640 392 626 429 600 c 1
 515 686 l 1
 572 629 l 1
206 410 m 0
 206 345 246 310 296 310 c 0
 346 310 386 345 386 410 c 0
 386 475 346 510 296 510 c 0
 246 510 206 475 206 410 c 0
EndSplineSet
EndChar

StartChar: yen
Encoding: 165 165 222
Width: 540
Flags: MW
HStem: 0 21G<157 383 157 157> 190 80<37 155 37 155 37 157 384 503> 310 80<37 116 37 145 37 116 423 503> 780 20G<10 220 220 220 320 530 530 530>
VStem: 157 226<0 190 0 190>
LayerCount: 2
Fore
SplineSet
37 190 m 1
 37 270 l 1
 155 270 l 1
 145 310 l 1
 37 310 l 1
 37 390 l 1
 116 390 l 1
 10 755 l 1
 10 800 l 1
 220 800 l 1
 265 480 l 1
 275 480 l 1
 320 800 l 1
 530 800 l 1
 530 755 l 1
 423 390 l 1
 503 390 l 1
 503 310 l 1
 394 310 l 1
 384 270 l 1
 503 270 l 1
 503 190 l 1
 383 190 l 1
 383 0 l 1
 157 0 l 1
 157 190 l 1
 37 190 l 1
EndSplineSet
EndChar

StartChar: brokenbar
Encoding: 166 166 140
Width: 270
Flags: MW
HStem: -150 21G<40 230 40 40> 930 20G<40 230 230 230>
VStem: 40 190<-150 370 -150 370 450 950>
LayerCount: 2
Fore
SplineSet
230 370 m 1
 230 -150 l 1
 40 -150 l 1
 40 370 l 1
 230 370 l 1
230 950 m 1
 230 450 l 1
 40 450 l 1
 40 950 l 1
 230 950 l 1
EndSplineSet
EndChar

StartChar: section
Encoding: 167 167 217
Width: 495
Flags: MW
HStem: -165 130<240 260 240 327.5> -165 240<165 220 35 327.5> 575 240<275 330 167.5 460 275 275> 685 130<235 255>
VStem: 30 185<580 635 635 645 580 680> 280 185<5 15 15 67.5 -30 70>
LayerCount: 2
Fore
SplineSet
373 175 m 1x9c
 373 165 l 1
 373 165 465 120 465 15 c 0
 465 -75 405 -165 250 -165 c 0
 80 -165 35 -60 35 5 c 2
 35 75 l 1
 220 75 l 1x6c
 220 5 l 2
 220 -20 230 -35 250 -35 c 0
 270 -35 280 -20 280 5 c 2
 280 15 l 2
 280 125 30 135 30 325 c 0
 30 445 122 475 122 475 c 1
 122 485 l 1
 122 485 30 520 30 635 c 0
 30 725 90 815 245 815 c 0
 415 815 460 710 460 645 c 2
 460 575 l 1
 275 575 l 1xac
 275 645 l 2
 275 670 265 685 245 685 c 0
 225 685 215 670 215 645 c 2
 215 635 l 2
 215 525 465 515 465 325 c 0
 465 205 373 175 373 175 c 1x9c
220 351 m 2
 220 298 l 2
 220 271 231 260 247 260 c 0
 263 260 275 271 275 298 c 2
 275 351 l 2
 275 378 263 390 247 390 c 0
 231 390 220 378 220 351 c 2
EndSplineSet
EndChar

StartChar: copyright
Encoding: 169 169 207
Width: 1000
Flags: MW
HStem: -185 130<404 598 404 634> -185 210<418.5 583.5 418.5 634> 155 215<491 721> 285 85<531 721 531 721> 285 210<491 721 491 531> 625 210<418.5 583.5> 705 130<404 598>
VStem: 20 141<198.5 451.5 198.5 488.5> 471 60<185 285 370 465> 841 139<198.5 451.5>
LayerCount: 2
Fore
SplineSet
531 465 m 2x8dc0
 531 370 l 1
 721 370 l 1
 721 395 l 2
 721 530 666 625 501 625 c 0
 336 625 281 530 281 395 c 2
 281 255 l 2
 281 120 336 25 501 25 c 0
 666 25 721 120 721 255 c 2
 721 285 l 1
 531 285 l 1x55c0
 531 185 l 2
 531 168 521 155 501 155 c 0xa5c0
 481 155 471 168 471 185 c 2
 471 465 l 2
 471 482 481 495 501 495 c 0
 521 495 531 482 531 465 c 2x8dc0
20 325 m 0
 20 652 232 835 500 835 c 0
 768 835 980 652 980 325 c 0
 980 -2 768 -185 500 -185 c 0
 232 -185 20 -2 20 325 c 0
161 325 m 0
 161 72 307 -55 501 -55 c 0
 695 -55 841 72 841 325 c 0
 841 578 695 705 501 705 c 0xa3c0
 307 705 161 578 161 325 c 0
EndSplineSet
EndChar

StartChar: guillemotleft
Encoding: 171 171 173
Width: 543
Flags: MW
HStem: 130 21G<183 313 183 183 393 523 393 393> 540 20G<183 313 313 313 393 523 523 523>
LayerCount: 2
Fore
SplineSet
393 560 m 1
 523 560 l 1
 405 345 l 1
 523 130 l 1
 393 130 l 1
 230 345 l 1
 393 560 l 1
183 560 m 1
 313 560 l 1
 195 345 l 1
 313 130 l 1
 183 130 l 1
 20 345 l 1
 183 560 l 1
EndSplineSet
EndChar

StartChar: uni00AD
Encoding: 173 173 134
Width: 520
Flags: MW
HStem: 325 170<50 470 50 470>
LayerCount: 2
Fore
SplineSet
50 495 m 1
 470 495 l 1
 470 325 l 1
 50 325 l 1
 50 495 l 1
EndSplineSet
EndChar

StartChar: registered
Encoding: 174 174 208
Width: 1000
Flags: MW
HStem: -185 130<404 598 404 634> 705 130<404 598>
VStem: 20 141<198.5 451.5 198.5 488.5> 315 160<40 240 40 375 375 475> 530 170<165 185 185 205> 841 139<198.5 451.5>
LayerCount: 2
Fore
SplineSet
20 325 m 0
 20 652 232 835 500 835 c 0
 768 835 980 652 980 325 c 0
 980 -2 768 -185 500 -185 c 0
 232 -185 20 -2 20 325 c 0
161 325 m 0
 161 72 307 -55 501 -55 c 0
 695 -55 841 72 841 325 c 0
 841 578 695 705 501 705 c 0
 307 705 161 578 161 325 c 0
315 40 m 1
 315 610 l 1
 510 610 l 2
 640 610 700 550 700 445 c 0
 700 325 630 310 630 310 c 1
 620 310 l 1
 620 300 l 1
 630 300 l 1
 630 300 700 285 700 170 c 0
 700 65 720 60 720 60 c 1
 720 40 l 1
 550 40 l 1
 550 40 530 50 530 165 c 2
 530 185 l 2
 530 225 520 240 495 240 c 2
 475 240 l 1
 475 40 l 1
 315 40 l 1
475 475 m 1
 475 375 l 1
 490 375 l 2
 525 375 535 390 535 425 c 2
 535 435 l 2
 535 460 525 475 495 475 c 2
 475 475 l 1
EndSplineSet
EndChar

StartChar: degree
Encoding: 176 176 147
Width: 400
Flags: MW
HStem: 445 105<188 212 188 250> 710 105<188 212>
VStem: 30 135<584 600 600 660 584 695> 235 135<600 660 660 676>
LayerCount: 2
Fore
SplineSet
235 600 m 2
 235 660 l 2
 235 692 224 710 200 710 c 0
 176 710 165 692 165 660 c 2
 165 600 l 2
 165 568 176 550 200 550 c 0
 224 550 235 568 235 600 c 2
30 630 m 0
 30 760 100 815 200 815 c 0
 300 815 370 760 370 630 c 0
 370 500 300 445 200 445 c 0
 100 445 30 500 30 630 c 0
EndSplineSet
EndChar

StartChar: plusminus
Encoding: 177 177 135
Width: 560
Flags: MW
HStem: 50 170<50 510 50 510> 410 170<50 195 50 195 365 510> 715 20G<195 365 365 365>
VStem: 195 170<270 410 270 410 580 735>
LayerCount: 2
Fore
SplineSet
195 735 m 1
 365 735 l 1
 365 580 l 1
 510 580 l 1
 510 410 l 1
 365 410 l 1
 365 270 l 1
 195 270 l 1
 195 410 l 1
 50 410 l 1
 50 580 l 1
 195 580 l 1
 195 735 l 1
50 220 m 1
 510 220 l 1
 510 50 l 1
 50 50 l 1
 50 220 l 1
EndSplineSet
EndChar

StartChar: paragraph
Encoding: 182 182 175
Width: 710
Flags: MW
HStem: -150 21G<250 400 250 250 450 600 450 450> 800 150<400 450 400 400 600 680 600 600>
VStem: 250 150<-150 340 340 340> 450 150<-150 800 -150 800>
LayerCount: 2
Fore
SplineSet
250 950 m 2
 680 950 l 1
 680 800 l 1
 600 800 l 1
 600 -150 l 1
 450 -150 l 1
 450 800 l 1
 400 800 l 1
 400 -150 l 1
 250 -150 l 1
 250 340 l 1
 100 340 30 445 30 570 c 2
 30 720 l 2
 30 845 100 950 250 950 c 2
EndSplineSet
EndChar

StartChar: periodcentered
Encoding: 183 183 142
Width: 290
Flags: MW
HStem: 320 180<50 240 50 240>
VStem: 50 190<320 500 320 500>
LayerCount: 2
Fore
SplineSet
240 500 m 1
 240 320 l 1
 50 320 l 1
 50 500 l 1
 240 500 l 1
EndSplineSet
EndChar

StartChar: guillemotright
Encoding: 187 187 174
Width: 543
Flags: MW
HStem: 130 21G<20 150 20 20 230 230 230 360> 540 20G<20 150 150 150 230 360 360 360>
LayerCount: 2
Fore
SplineSet
20 560 m 1
 150 560 l 1
 313 345 l 1
 150 130 l 1
 20 130 l 1
 138 345 l 1
 20 560 l 1
230 560 m 1
 360 560 l 1
 523 345 l 1
 360 130 l 1
 230 130 l 1
 348 345 l 1
 230 560 l 1
EndSplineSet
EndChar

StartChar: questiondown
Encoding: 191 191 219
Width: 500
Flags: MW
HStem: -15 165<238.5 261.5 238.5 330> 620 180<160 350 160 350>
VStem: 20 200<180 190 190 210 180 300> 160 60 280 70 280 200<190 205 205 285 142.5 285>
LayerCount: 2
Fore
SplineSet
160 510 m 2xd8
 160 565 l 1
 350 565 l 1
 350 520 l 2xd8
 350 320 220 370 220 210 c 2
 220 190 l 2
 220 170 227 150 250 150 c 0
 273 150 280 170 280 190 c 2
 280 285 l 1
 480 285 l 1
 480 205 l 2
 480 80 410 -15 250 -15 c 0
 90 -15 20 80 20 205 c 0xe4
 20 395 160 410 160 510 c 2xd8
160 620 m 1
 160 800 l 1
 350 800 l 1
 350 620 l 1
 160 620 l 1
EndSplineSet
EndChar

StartChar: Acircumflex
Encoding: 194 194 272
Width: 556
Flags: MW
HStem: 0 21G<10 208 10 10 348 546 348 348> 130 170<237 318 237 335 221 318> 780 20G<136 420 420 420> 840 210<203 208 48 353 348 353 203 508 348 348>
LayerCount: 2
Fore
SplineSet
348 0 m 1
 335 130 l 1
 221 130 l 1
 208 0 l 1
 10 0 l 1
 87 520 l 2
 126 780 136 800 136 800 c 1
 420 800 l 1
 420 800 430 780 469 520 c 2
 546 0 l 1
 348 0 l 1
268 610 m 1
 237 300 l 1
 318 300 l 1
 288 610 l 1
 268 610 l 1
48 860 m 1
 203 1050 l 1
 353 1050 l 1
 508 860 l 1
 508 840 l 1
 348 840 l 1
 283 940 l 1
 273 940 l 1
 208 840 l 1
 48 840 l 1
 48 860 l 1
EndSplineSet
EndChar

StartChar: Atilde
Encoding: 195 195 280
Width: 556
Flags: MW
HStem: 0 21G<10 208 10 10 348 546 348 348> 130 170<237 318 237 335 221 318> 780 20G<136 420 420 420> 840 144<349.5 360 328.5 421.5> 881 144<201 210 138 232>
LayerCount: 2
Fore
SplineSet
348 0 m 1xe8
 335 130 l 1
 221 130 l 1
 208 0 l 1
 10 0 l 1
 87 520 l 2
 126 780 136 800 136 800 c 1
 420 800 l 1
 420 800 430 780 469 520 c 2
 546 0 l 1
 348 0 l 1xe8
268 610 m 1
 237 300 l 1
 318 300 l 1
 288 610 l 1
 268 610 l 1
378 1025 m 1
 510 1025 l 1xe8
 510 976 l 2
 510 889 456 840 387 840 c 0xf0
 312 840 251 881 213 881 c 0xe8
 189 881 182 867 182 845 c 2
 182 840 l 1
 50 840 l 1xf0
 50 888 l 2
 50 975 103 1025 173 1025 c 0xe8
 247 1025 309 984 348 984 c 0xf0
 372 984 378 999 378 1020 c 2
 378 1025 l 1
EndSplineSet
EndChar

StartChar: Aring
Encoding: 197 197 274
Width: 556
Flags: MW
HStem: 0 21G<10 208 10 10 348 546 348 348> 130 170<237 318 237 335 221 318> 780 20G<131 175 175 175 380 425 425 425> 985 100<266 290>
VStem: 108 135<889 905 905 935 889 977.5> 313 135<905 935 935 951>
LayerCount: 2
Fore
SplineSet
108 930 m 0
 108 1025 178 1085 278 1085 c 0
 378 1085 448 1025 448 930 c 0
 448 835 380 810 380 810 c 1
 380 800 l 1
 425 800 l 1
 546 0 l 1
 348 0 l 1
 335 130 l 1
 221 130 l 1
 208 0 l 1
 10 0 l 1
 131 800 l 1
 175 800 l 1
 175 810 l 1
 175 810 108 835 108 930 c 0
268 610 m 1
 237 300 l 1
 318 300 l 1
 288 610 l 1
 268 610 l 1
313 905 m 2
 313 935 l 2
 313 967 302 985 278 985 c 0
 254 985 243 967 243 935 c 2
 243 905 l 2
 243 873 254 855 278 855 c 0
 302 855 313 873 313 905 c 2
EndSplineSet
EndChar

StartChar: AE
Encoding: 198 198 284
Width: 735
Flags: MW
HStem: 0 180<535 715 535 715> 150 180<256 335 256 335 220 335> 320 180<535 685 535 685> 620 180<315 335 315 315 535 715 535 535>
VStem: 335 200<0 320 150 320 500 620>
LayerCount: 2
Fore
SplineSet
190 0 m 1xb8
 0 0 l 1
 198 800 l 1
 715 800 l 1
 715 620 l 1
 535 620 l 1
 535 500 l 1
 685 500 l 1
 685 320 l 1
 535 320 l 1
 535 180 l 1
 715 180 l 1
 715 0 l 1
 335 0 l 1xb8
 335 150 l 1
 220 150 l 1x58
 190 0 l 1xb8
335 620 m 1
 315 620 l 1
 256 330 l 1
 335 330 l 1x58
 335 620 l 1
EndSplineSet
EndChar

StartChar: Ccedilla
Encoding: 199 199 276
Width: 500
Flags: MW
HStem: -275 90<231.5 251.5 231.5 287.5> -275 120<212.5 215 125 287.5> -95 245<238.5 248> 650 165<238.5 261.5>
VStem: 20 200<235 565 565 610> 125 95 280 94 280 200<190 235 235 340 164.5 340 480 565>
LayerCount: 2
Fore
SplineSet
271 -140 m 0xba
 271 -110 259 -95 237 -95 c 0
 212 -95 205 -125 205 -125 c 1
 130 -75 l 1
 130 -75 147 -29 198 -11 c 1
 71 7 20 97 20 235 c 2
 20 565 l 2
 20 720 85 815 250 815 c 0
 415 815 480 720 480 565 c 2
 480 480 l 1
 280 480 l 1
 280 610 l 2
 280 630 273 650 250 650 c 0
 227 650 220 630 220 610 c 2
 220 190 l 2
 220 170 227 150 250 150 c 0
 273 150 280 170 280 190 c 2
 280 340 l 1
 480 340 l 1
 480 235 l 2xb9
 480 94 426 3 292 -12 c 1
 340 -28 374 -69 374 -140 c 0
 374 -225 325 -275 250 -275 c 0
 175 -275 125 -230 125 -155 c 1
 215 -155 l 1x76
 215 -167 221 -185 242 -185 c 0
 261 -185 271 -170 271 -140 c 0xba
EndSplineSet
EndChar

StartChar: Egrave
Encoding: 200 200 260
Width: 430
Flags: MW
HStem: 180 140<230 380 230 410 230 380> 320 180<230 380 230 380> 620 180<230 410 30 410> 840 230<165 165 165 225 30 295>
VStem: 30 200<180 320 500 620 0 320>
LayerCount: 2
Fore
SplineSet
380 320 m 1xb8
 380 500 l 1
 230 500 l 1
 230 620 l 1
 410 620 l 1
 410 800 l 1
 30 800 l 1
 30 0 l 1
 410 0 l 1xf8
 410 180 l 1
 230 180 l 1
 230 320 l 1
 380 320 l 1xb8
165 840 m 1
 30 1070 l 1
 225 1070 l 1
 295 840 l 1
 165 840 l 1
EndSplineSet
EndChar

StartChar: Eacute
Encoding: 201 201 259
Width: 430
Flags: MW
HStem: 0 180<230 410 230 410> 320 180<230 380 230 380> 620 180<230 410 230 230> 845 230<210 270 140 405>
VStem: 30 200<180 320 180 500 500 620>
LayerCount: 2
Fore
SplineSet
380 500 m 1
 380 320 l 1
 230 320 l 1
 230 180 l 1
 410 180 l 1
 410 0 l 1
 30 0 l 1
 30 800 l 1
 410 800 l 1
 410 620 l 1
 230 620 l 1
 230 500 l 1
 380 500 l 1
405 1075 m 1
 270 845 l 1
 140 845 l 1
 210 1075 l 1
 405 1075 l 1
EndSplineSet
EndChar

StartChar: Ecircumflex
Encoding: 202 202 270
Width: 430
Flags: MW
HStem: 0 180<230 410 230 410> 320 180<230 380 230 380> 620 180<230 410 230 230> 840 210<145 150 -10 295 290 295 145 450 290 290>
VStem: 30 200<180 320 180 500 500 620>
LayerCount: 2
Fore
SplineSet
380 500 m 1
 380 320 l 1
 230 320 l 1
 230 180 l 1
 410 180 l 1
 410 0 l 1
 30 0 l 1
 30 800 l 1
 410 800 l 1
 410 620 l 1
 230 620 l 1
 230 500 l 1
 380 500 l 1
-10 860 m 1
 145 1050 l 1
 295 1050 l 1
 450 860 l 1
 450 840 l 1
 290 840 l 1
 225 940 l 1
 215 940 l 1
 150 840 l 1
 -10 840 l 1
 -10 860 l 1
EndSplineSet
EndChar

StartChar: Igrave
Encoding: 204 204 258
Width: 260
Flags: MW
HStem: 0 21G<30 230 230 230> 780 20G<30 230 30 30> 840 230<85 85 85 145 -50 215>
VStem: 30 200<0 800 0 800>
LayerCount: 2
Fore
SplineSet
230 0 m 1
 230 800 l 1
 30 800 l 1
 30 0 l 1
 230 0 l 1
85 840 m 1
 -50 1070 l 1
 145 1070 l 1
 215 840 l 1
 85 840 l 1
EndSplineSet
EndChar

StartChar: Iacute
Encoding: 205 205 257
Width: 260
Flags: MW
HStem: 0 21G<30 230 30 30> 780 20G<30 230 230 230> 845 230<130 190 60 325>
VStem: 30 200<0 800 0 800>
LayerCount: 2
Fore
SplineSet
230 800 m 1
 230 0 l 1
 30 0 l 1
 30 800 l 1
 230 800 l 1
325 1075 m 1
 190 845 l 1
 60 845 l 1
 130 1075 l 1
 325 1075 l 1
EndSplineSet
EndChar

StartChar: Icircumflex
Encoding: 206 206 271
Width: 260
Flags: MW
HStem: 0 21G<30 230 30 30> 780 20G<30 230 230 230> 840 210<55 60 -100 205 200 205 55 360 200 200>
VStem: 30 200<0 800 0 800>
LayerCount: 2
Fore
SplineSet
230 800 m 1
 230 0 l 1
 30 0 l 1
 30 800 l 1
 230 800 l 1
-100 860 m 1
 55 1050 l 1
 205 1050 l 1
 360 860 l 1
 360 840 l 1
 200 840 l 1
 135 940 l 1
 125 940 l 1
 60 840 l 1
 -100 840 l 1
 -100 860 l 1
EndSplineSet
EndChar

StartChar: Eth
Encoding: 208 208 237
Width: 555
Flags: MW
HStem: 0 150<270 280 280 300 270 305> 360 80<0 80 0 80 270 315> 650 150<270 280 270 270>
VStem: 80 190<150 360 150 360 150 360 440 650> 335 200<225 240 240 560>
CounterMasks: 1 e0
LayerCount: 2
Fore
SplineSet
0 360 m 1
 0 440 l 1
 80 440 l 1
 80 800 l 1
 305 800 l 2
 455 800 535 750 535 560 c 2
 535 240 l 2
 535 50 455 0 305 0 c 2
 80 0 l 1
 80 360 l 1
 0 360 l 1
335 225 m 2
 335 575 l 2
 335 635 320 650 280 650 c 2
 270 650 l 1
 270 440 l 1
 315 440 l 1
 315 360 l 1
 270 360 l 1
 270 150 l 1
 280 150 l 2
 320 150 335 165 335 225 c 2
EndSplineSet
EndChar

StartChar: Ntilde
Encoding: 209 209 281
Width: 520
Flags: MW
HStem: 0 21G<30 215 30 30 315 490 315 315> 780 20G<30 205 205 205 305 490 490 490> 840 144<329.5 340 308.5 401.5> 881 144<181 190 118 212>
VStem: 30 177 312 178
LayerCount: 2
Fore
SplineSet
30 800 m 1xdc
 205 800 l 1
 320 435 l 1
 305 800 l 1
 490 800 l 1
 490 0 l 1
 315 0 l 1
 200 365 l 1
 215 0 l 1
 30 0 l 1
 30 800 l 1xdc
358 1025 m 1
 490 1025 l 1xdc
 490 976 l 2
 490 889 436 840 367 840 c 0xec
 292 840 231 881 193 881 c 0xdc
 169 881 162 867 162 845 c 2
 162 840 l 1
 30 840 l 1xec
 30 888 l 2
 30 975 83 1025 153 1025 c 0xdc
 227 1025 289 984 328 984 c 0xec
 352 984 358 999 358 1020 c 2
 358 1025 l 1
EndSplineSet
EndChar

StartChar: Oacute
Encoding: 211 211 255
Width: 500
Flags: MW
HStem: -15 165<238.5 261.5 238.5 332.5> 650 165<238.5 261.5> 845 230<245 305 175 440>
VStem: 20 200<235 565 565 610> 280 200<190 235 235 565>
LayerCount: 2
Fore
SplineSet
250 150 m 0
 273 150 280 170 280 190 c 2
 280 610 l 2
 280 630 273 650 250 650 c 0
 227 650 220 630 220 610 c 2
 220 190 l 2
 220 170 227 150 250 150 c 0
20 235 m 2
 20 565 l 2
 20 720 85 815 250 815 c 0
 415 815 480 720 480 565 c 2
 480 235 l 2
 480 80 415 -15 250 -15 c 0
 85 -15 20 80 20 235 c 2
440 1075 m 1
 305 845 l 1
 175 845 l 1
 245 1075 l 1
 440 1075 l 1
EndSplineSet
EndChar

StartChar: Ocircumflex
Encoding: 212 212 269
Width: 500
Flags: MW
HStem: -15 165<238.5 261.5 238.5 332.5> 650 165<238.5 261.5> 840 210<175 180 20 325 320 325 175 480 320 320>
VStem: 20 200<235 565 565 610> 280 200<190 235 235 565>
LayerCount: 2
Fore
SplineSet
250 150 m 0
 273 150 280 170 280 190 c 2
 280 610 l 2
 280 630 273 650 250 650 c 0
 227 650 220 630 220 610 c 2
 220 190 l 2
 220 170 227 150 250 150 c 0
20 235 m 2
 20 565 l 2
 20 720 85 815 250 815 c 0
 415 815 480 720 480 565 c 2
 480 235 l 2
 480 80 415 -15 250 -15 c 0
 85 -15 20 80 20 235 c 2
20 860 m 1
 175 1050 l 1
 325 1050 l 1
 480 860 l 1
 480 840 l 1
 320 840 l 1
 255 940 l 1
 245 940 l 1
 180 840 l 1
 20 840 l 1
 20 860 l 1
EndSplineSet
EndChar

StartChar: Otilde
Encoding: 213 213 282
Width: 500
Flags: MW
HStem: -15 165<238.5 261.5 238.5 332.5> 650 165<238.5 261.5> 840 144<319.5 330 298.5 391.5> 881 144<171 180 108 202>
VStem: 20 200<235 565 565 610> 280 200<190 235 235 565>
LayerCount: 2
Fore
SplineSet
250 150 m 0xdc
 273 150 280 170 280 190 c 2
 280 610 l 2
 280 630 273 650 250 650 c 0
 227 650 220 630 220 610 c 2
 220 190 l 2
 220 170 227 150 250 150 c 0xdc
20 235 m 2
 20 565 l 2
 20 720 85 815 250 815 c 0
 415 815 480 720 480 565 c 2
 480 235 l 2
 480 80 415 -15 250 -15 c 0
 85 -15 20 80 20 235 c 2
348 1025 m 1
 480 1025 l 1xdc
 480 976 l 2
 480 889 426 840 357 840 c 0xec
 282 840 221 881 183 881 c 0xdc
 159 881 152 867 152 845 c 2
 152 840 l 1
 20 840 l 1xec
 20 888 l 2
 20 975 73 1025 143 1025 c 0xdc
 217 1025 279 984 318 984 c 0xec
 342 984 348 999 348 1020 c 2
 348 1025 l 1
EndSplineSet
EndChar

StartChar: multiply
Encoding: 215 215 221
Width: 550
Flags: MW
HStem: 180 21G<165 165 385 385> 620 20G<165 165 385 385>
LayerCount: 2
Fore
SplineSet
155 410 m 1
 45 520 l 1
 165 640 l 1
 275 530 l 1
 385 640 l 1
 505 520 l 1
 395 410 l 1
 505 300 l 1
 385 180 l 1
 275 290 l 1
 165 180 l 1
 45 300 l 1
 155 410 l 1
EndSplineSet
EndChar

StartChar: Oslash
Encoding: 216 216 239
Width: 500
Flags: MW
HStem: -15 165<238.5 261.5 238.5 332.5> 0 21G<-1 79 -1 -1> 650 165<238.5 261.5> 780 20G<420 500 500 500>
VStem: 20 200<235 268 420 565 565 610> 280 200<190 235 235 382 382 382 534 565>
LayerCount: 2
Fore
SplineSet
500 800 m 1x9c
 452 709 l 1
 471 670 480 621 480 565 c 2
 480 235 l 2
 480 80 415 -15 250 -15 c 0x9c
 182 -15 131 1 95 30 c 1
 79 0 l 1
 -1 0 l 1
 47 92 l 1
 28 131 20 179 20 235 c 2
 20 565 l 2
 20 720 85 815 250 815 c 0x6c
 317 815 367 799 404 770 c 1
 420 800 l 1
 500 800 l 1x9c
250 150 m 0
 273 150 280 170 280 190 c 2
 280 382 l 1
 220 268 l 1
 220 190 l 2
 220 170 227 150 250 150 c 0
220 610 m 2
 220 420 l 1
 280 534 l 1
 280 610 l 2
 280 630 273 650 250 650 c 0xac
 227 650 220 630 220 610 c 2
EndSplineSet
EndChar

StartChar: Uacute
Encoding: 218 218 253
Width: 520
Flags: MW
HStem: -15 155<248.5 271.5 248.5 342.5> 780 20G<30 230 230 230 290 490 490 490> 840 230<250 310 180 445>
VStem: 30 200<210 800> 290 200<180 210 210 800>
LayerCount: 2
Fore
SplineSet
290 180 m 2
 290 800 l 1
 490 800 l 1
 490 210 l 2
 490 75 425 -15 260 -15 c 0
 95 -15 30 75 30 210 c 2
 30 800 l 1
 230 800 l 1
 230 180 l 2
 230 160 237 140 260 140 c 0
 283 140 290 160 290 180 c 2
445 1070 m 1
 310 840 l 1
 180 840 l 1
 250 1070 l 1
 445 1070 l 1
EndSplineSet
EndChar

StartChar: Ucircumflex
Encoding: 219 219 268
Width: 520
Flags: MW
HStem: -15 155<248.5 271.5 248.5 342.5> 780 20G<30 230 230 230 290 490 490 490> 840 210<185 190 30 335 330 335 185 490 330 330>
VStem: 30 200<210 800> 290 200<180 210 210 800>
LayerCount: 2
Fore
SplineSet
290 180 m 2
 290 800 l 1
 490 800 l 1
 490 210 l 2
 490 75 425 -15 260 -15 c 0
 95 -15 30 75 30 210 c 2
 30 800 l 1
 230 800 l 1
 230 180 l 2
 230 160 237 140 260 140 c 0
 283 140 290 160 290 180 c 2
30 860 m 1
 185 1050 l 1
 335 1050 l 1
 490 860 l 1
 490 840 l 1
 330 840 l 1
 265 940 l 1
 255 940 l 1
 190 840 l 1
 30 840 l 1
 30 860 l 1
EndSplineSet
EndChar

StartChar: Udieresis
Encoding: 220 220 230
Width: 520
Flags: MW
HStem: -15 155<248.5 271.5 248.5 342.5> 780 20G<30 230 230 230 290 490 490 490> 840 150<70 240 70 240 70 280 280 450>
VStem: 30 200<210 800> 70 160 290 160<180 990 800 990> 290 200<180 210 210 800>
LayerCount: 2
Fore
SplineSet
290 180 m 2xf2
 290 800 l 1
 490 800 l 1
 490 210 l 2
 490 75 425 -15 260 -15 c 0
 95 -15 30 75 30 210 c 2
 30 800 l 1
 230 800 l 1
 230 180 l 2
 230 160 237 140 260 140 c 0
 283 140 290 160 290 180 c 2xf2
240 990 m 1
 240 840 l 1
 70 840 l 1
 70 990 l 1xec
 240 990 l 1
450 990 m 1
 450 840 l 1
 280 840 l 1
 280 990 l 1
 450 990 l 1
EndSplineSet
EndChar

StartChar: Yacute
Encoding: 221 221 252
Width: 540
Flags: MW
HStem: 0 21G<157 383 157 157> 780 20G<10 220 220 220 320 530 530 530> 840 230<265 325 195 460>
VStem: 157 226<0 245 0 270>
LayerCount: 2
Fore
SplineSet
383 245 m 2
 383 0 l 1
 157 0 l 1
 157 245 l 2
 157 295 140 310 128 350 c 2
 10 755 l 1
 10 800 l 1
 220 800 l 1
 265 480 l 1
 275 480 l 1
 320 800 l 1
 530 800 l 1
 530 755 l 1
 412 350 l 2
 400 310 383 295 383 245 c 2
460 1070 m 1
 325 840 l 1
 195 840 l 1
 265 1070 l 1
 460 1070 l 1
EndSplineSet
EndChar

StartChar: Thorn
Encoding: 222 222 236
Width: 510
Flags: MW
HStem: 0 21G<30 30 30 230> 120 150<230 255 255 260 230 255> 530 150<230 260 230 255> 780 20G<30 230 230 230>
VStem: 30 200<0 120 0 270 270 530 680 800> 305 190<370 385 385 415 310 430 310 457.5>
LayerCount: 2
Fore
SplineSet
30 0 m 1
 30 800 l 1
 230 800 l 1
 230 680 l 1
 260 680 l 2
 430 680 495 565 495 415 c 2
 495 385 l 2
 495 235 430 120 260 120 c 2
 230 120 l 1
 230 0 l 1
 30 0 l 1
230 530 m 1
 230 270 l 1
 255 270 l 2
 295 270 305 315 305 370 c 2
 305 430 l 2
 305 485 295 530 255 530 c 2
 230 530 l 1
EndSplineSet
EndChar

StartChar: germandbls
Encoding: 223 223 283
Width: 518
Flags: MW
HStem: 0 21G<30 220 30 30 250 250 250 290> 660 140<247.5 265>
VStem: 30 190<0 565 565 610> 250 230<345 650 480 650> 295 185<535 610 610 630> 310 170 310 190<205 210 210 252 140 290 140 312.5>
LayerCount: 2
Fore
SplineSet
220 0 m 1xe8
 30 0 l 1
 30 565 l 2
 30 710 90 800 255 800 c 0
 425 800 480 710 480 590 c 0xf0
 480 440 400 422 400 422 c 1
 390 422 l 1
 390 412 l 1
 400 412 l 1
 400 412 500 397 500 252 c 2
 500 210 l 2xe2
 500 70 440 0 290 0 c 2
 250 0 l 1
 250 145 l 1xf0
 270 145 l 2
 300 145 310 160 310 205 c 2
 310 290 l 2xe4
 310 335 295 345 260 345 c 2
 250 345 l 1
 250 480 l 1xf0
 255 480 l 2
 290 480 295 495 295 535 c 2
 295 610 l 2
 295 650 275 660 255 660 c 0
 240 660 220 650 220 610 c 2
 220 0 l 1xe8
EndSplineSet
EndChar

StartChar: atilde
Encoding: 227 227 277
Width: 498
Flags: MW
HStem: -10 145<122.5 260.5> 0 21G<298 468 298 298> 430 235<175.5 218 28 328> 535 130<238 258> 690 144<28 319 315 319 288.5 389.5> 731 144<178 180.5 106 208>
VStem: 18 190<175 227.5 175 247.5> 278 190<70 70 195 325 325 325 414 475 0 505 0 513.5>
LayerCount: 2
Fore
SplineSet
288 70 m 1x6b
 278 70 l 1
 278 70 255 -10 165 -10 c 0
 80 -10 18 50 18 165 c 0
 18 330 165 363 258 405 c 2
 278 414 l 1
 278 505 l 2
 278 522 268 535 248 535 c 0x97
 228 535 218 522 218 505 c 2
 218 430 l 1
 28 430 l 1
 28 465 l 2
 28 590 103 665 248 665 c 0
 408 665 468 595 468 475 c 2
 468 0 l 1
 298 0 l 1
 288 70 l 1x6b
278 195 m 2
 278 325 l 1
 253 305 l 2
 225 283 208 255 208 200 c 0
 208 150 226 135 246 135 c 0
 275 135 278 165 278 195 c 2
338 875 m 1
 468 875 l 1xa7
 468 831 l 2
 468 744 424 690 355 690 c 0xab
 275 690 227 731 189 731 c 0xa7
 167 731 158 717 158 695 c 2
 158 690 l 1
 28 690 l 1xab
 28 733 l 2
 28 820 71 875 141 875 c 0xa7
 220 875 269 834 308 834 c 0xab
 330 834 338 849 338 870 c 2
 338 875 l 1
EndSplineSet
EndChar

StartChar: aring
Encoding: 229 229 273
Width: 498
Flags: MW
HStem: -10 145<122.5 260.5> 0 21G<298 468 298 298> 430 235<175.5 218 28 328> 535 130<238 258> 695 100<236 260 236 298> 925 100<236 260>
VStem: 18 190<175 227.5 175 247.5> 78 130 278 140 278 190<70 70 195 325 325 325 414 475 0 505 0 513.5>
LayerCount: 2
Fore
SplineSet
288 70 m 1x6e40
 278 70 l 1
 278 70 255 -10 165 -10 c 0
 80 -10 18 50 18 165 c 0
 18 330 165 363 258 405 c 2
 278 414 l 1
 278 505 l 2
 278 522 268 535 248 535 c 0x9e80
 228 535 218 522 218 505 c 2
 218 430 l 1
 28 430 l 1
 28 465 l 2
 28 590 103 665 248 665 c 0
 408 665 468 595 468 475 c 2
 468 0 l 1
 298 0 l 1
 288 70 l 1x6e40
278 195 m 2
 278 325 l 1
 253 305 l 2
 225 283 208 255 208 200 c 0
 208 150 226 135 246 135 c 0
 275 135 278 165 278 195 c 2
283 845 m 2
 283 875 l 2
 283 907 272 925 248 925 c 0
 224 925 213 907 213 875 c 2
 213 845 l 2
 213 813 224 795 248 795 c 0
 272 795 283 813 283 845 c 2
78 860 m 0xad80
 78 965 148 1025 248 1025 c 0
 348 1025 418 965 418 860 c 0
 418 755 348 695 248 695 c 0
 148 695 78 755 78 860 c 0xad80
EndSplineSet
EndChar

StartChar: ae
Encoding: 230 230 285
Width: 738
Flags: MW
HStem: -15 21G<478.5 580.5> -10 125 -10 145<122.5 260.5> 0 21G<298 399 298 298> 310 90<468 528 468 718 468 528> 430 235<165.5 218 28 281.5> 535 130<238 258 488 508>
VStem: 18 190<175 227.5 175 247.5> 278 190<70 145 195 310 136.5 325 136.5 325 414 505> 528 190<147.5 215 215 255 147.5 255 400 435>
LayerCount: 2
Fore
SplineSet
278 195 m 2x2bc0
 278 325 l 1
 253 305 l 2
 225 283 208 255 208 200 c 0
 208 150 226 135 246 135 c 0
 275 135 278 165 278 195 c 2x2bc0
528 400 m 1
 528 505 l 2
 528 522 518 535 498 535 c 0
 478 535 468 522 468 505 c 2
 468 400 l 1
 528 400 l 1
368 610 m 1
 378 610 l 2
 379 610 415 665 518 665 c 0
 663 665 718 570 718 435 c 2
 718 310 l 1
 468 310 l 1
 468 145 l 2
 468 128 478 115 498 115 c 0x4dc0
 518 115 528 128 528 145 c 2
 528 255 l 1
 718 255 l 1
 718 215 l 2
 718 80 663 -15 498 -15 c 0x8dc0
 459 -15 427 -9 399 0 c 1
 298 0 l 1x1dc0
 288 70 l 1
 278 70 l 1
 278 70 255 -10 165 -10 c 0
 80 -10 18 50 18 165 c 0
 18 330 165 363 258 405 c 2
 278 414 l 1
 278 505 l 2
 278 522 268 535 248 535 c 0x4bc0
 228 535 218 522 218 505 c 2
 218 430 l 1
 28 430 l 1x4dc0
 28 465 l 2
 28 590 103 665 228 665 c 0
 335 665 368 610 368 610 c 1
EndSplineSet
EndChar

StartChar: ccedilla
Encoding: 231 231 275
Width: 480
Flags: MW
HStem: -275 90<226.5 246.5 226.5 282.5> -275 120<207.5 210 120 282.5> -95 210<230 243> 535 130<230 250>
VStem: 20 190<215 435 435 502.5> 120 90<-161 -155 -161 -155> 270 99 270 190<154 215 215 285 154 285 390 435>
LayerCount: 2
Fore
SplineSet
266 -140 m 0xba
 266 -110 254 -95 232 -95 c 0
 207 -95 200 -125 200 -125 c 1
 125 -75 l 1
 125 -75 141 -29 192 -12 c 1
 64 5 20 94 20 215 c 2
 20 435 l 2
 20 570 75 665 240 665 c 0
 405 665 460 570 460 435 c 2
 460 390 l 1
 270 390 l 1
 270 505 l 2
 270 522 260 535 240 535 c 0
 220 535 210 522 210 505 c 2
 210 145 l 2
 210 128 220 115 240 115 c 0
 260 115 270 128 270 145 c 2
 270 285 l 1
 460 285 l 1
 460 215 l 2xb9
 460 93 415 4 286 -12 c 1
 335 -27 369 -68 369 -140 c 0
 369 -225 320 -275 245 -275 c 0
 170 -275 120 -230 120 -155 c 1
 210 -155 l 1x76
 210 -167 216 -185 237 -185 c 0
 256 -185 266 -170 266 -140 c 0xba
EndSplineSet
EndChar

StartChar: igrave
Encoding: 236 236 251
Width: 250
Flags: MW
HStem: 0 21G<30 220 220 220> 630 20G<30 220 30 30> 690 230<70 70 70 140 -55 200>
VStem: 30 190<0 650 0 650>
LayerCount: 2
Fore
SplineSet
220 650 m 1
 30 650 l 1
 30 0 l 1
 220 0 l 1
 220 650 l 1
70 690 m 1
 -55 920 l 1
 140 920 l 1
 200 690 l 1
 70 690 l 1
EndSplineSet
EndChar

StartChar: iacute
Encoding: 237 237 250
Width: 250
Flags: MW
HStem: 0 21G<30 220 30 30> 630 20G<30 220 220 220> 690 230<115 175 45 310>
VStem: 30 190<0 650 0 650>
LayerCount: 2
Fore
SplineSet
30 650 m 1
 220 650 l 1
 220 0 l 1
 30 0 l 1
 30 650 l 1
310 920 m 1
 175 690 l 1
 45 690 l 1
 115 920 l 1
 310 920 l 1
EndSplineSet
EndChar

StartChar: icircumflex
Encoding: 238 238 265
Width: 250
Flags: MW
HStem: 0 21G<30 220 30 30> 630 20G<30 220 220 220> 690 200<55 65 -95 195 185 195 55 345 185 185>
VStem: 30 190<0 650 0 650>
LayerCount: 2
Fore
SplineSet
30 650 m 1
 220 650 l 1
 220 0 l 1
 30 0 l 1
 30 650 l 1
-95 710 m 1
 55 890 l 1
 195 890 l 1
 345 710 l 1
 345 690 l 1
 185 690 l 1
 130 785 l 1
 120 785 l 1
 65 690 l 1
 -95 690 l 1
 -95 710 l 1
EndSplineSet
EndChar

StartChar: idieresis
Encoding: 239 239 226
Width: 250
Flags: MW
HStem: 0 21G<30 220 30 30> 630 20G<30 220 220 220> 690 150<-55 105 -55 105 -55 145 145 305>
VStem: -55 160<690 840 690 840> 30 190<0 650 0 650> 145 160<690 840 690 840>
LayerCount: 2
Fore
SplineSet
30 650 m 1xe8
 220 650 l 1
 220 0 l 1
 30 0 l 1
 30 650 l 1xe8
-55 840 m 1xf4
 105 840 l 1
 105 690 l 1
 -55 690 l 1
 -55 840 l 1xf4
145 840 m 1
 305 840 l 1
 305 690 l 1
 145 690 l 1
 145 840 l 1
EndSplineSet
EndChar

StartChar: eth
Encoding: 240 240 286
Width: 480
Flags: MW
HStem: -15 130<230 250 230 322.5> 490 125<122.5 250> 770 80<80 100 100 110 80 100> 889 20G<280 280>
VStem: 20 190<215 430 430 455> 320 140
LayerCount: 2
Fore
SplineSet
280 909 m 1
 350 869 l 1
 315 809 l 1
 423 754 460 647 460 500 c 2
 460 215 l 2
 460 80 405 -15 240 -15 c 0
 75 -15 20 80 20 215 c 2
 20 430 l 2
 20 545 65 615 180 615 c 0
 275 615 300 550 300 550 c 1
 320 550 l 1
 320 597 306 664 260 712 c 1
 220 643 l 1
 150 683 l 1
 192 756 l 1
 169 765 142 770 110 770 c 2
 80 770 l 1
 80 850 l 1
 100 850 l 2
 153 850 199 845 238 836 c 1
 280 909 l 1
270 455 m 2
 270 475 260 490 240 490 c 0
 220 490 210 475 210 455 c 2
 210 145 l 2
 210 128 220 115 240 115 c 0
 260 115 270 128 270 145 c 2
 270 455 l 2
EndSplineSet
EndChar

StartChar: ntilde
Encoding: 241 241 278
Width: 500
Flags: MW
HStem: 0 21G<30 220 30 30 280 470 280 280> 515 135<30 260> 515 150<240 382.5> 690 144<30 321 317 321 290.5 391.5> 731 144<180 182.5 108 210>
VStem: 30 190<0 480 0 560 560 650 0 650> 280 190<0 480 480 490>
LayerCount: 2
Fore
SplineSet
280 0 m 1xb6
 280 480 l 2
 280 500 270 515 250 515 c 0
 230 515 220 500 220 480 c 2
 220 0 l 1
 30 0 l 1
 30 650 l 1
 220 650 l 1xce
 220 560 l 1
 220 560 255 665 345 665 c 0
 420 665 470 620 470 495 c 2
 470 0 l 1
 280 0 l 1xb6
340 875 m 1
 470 875 l 1xce
 470 831 l 2
 470 744 426 690 357 690 c 0xd6
 277 690 229 731 191 731 c 0xce
 169 731 160 717 160 695 c 2
 160 690 l 1
 30 690 l 1xd6
 30 733 l 2
 30 820 73 875 143 875 c 0xce
 222 875 271 834 310 834 c 0xd6
 332 834 340 849 340 870 c 2
 340 875 l 1
EndSplineSet
EndChar

StartChar: ograve
Encoding: 242 242 248
Width: 480
Flags: MW
HStem: -15 130<230 250 230 322.5> 535 130<230 250> 695 230<180 180 180 250 55 310>
VStem: 20 190<147.5 215 215 435> 270 190<136.5 435 215 435 435 502.5 215 505>
LayerCount: 2
Fore
SplineSet
20 435 m 2
 20 215 l 2
 20 80 75 -15 240 -15 c 0
 405 -15 460 80 460 215 c 2
 460 435 l 2
 460 570 405 665 240 665 c 0
 75 665 20 570 20 435 c 2
270 505 m 2
 270 145 l 2
 270 128 260 115 240 115 c 0
 220 115 210 128 210 145 c 2
 210 505 l 2
 210 522 220 535 240 535 c 0
 260 535 270 522 270 505 c 2
180 695 m 1
 55 925 l 1
 250 925 l 1
 310 695 l 1
 180 695 l 1
EndSplineSet
EndChar

StartChar: otilde
Encoding: 245 245 279
Width: 480
Flags: MW
HStem: -15 130<230 250 230 322.5> 535 130<230 250> 690 144<20 311 307 311 280.5 381.5> 731 144<170 172.5 98 200>
VStem: 20 190<215 435 435 502.5> 270 190<147.5 215 215 435>
LayerCount: 2
Fore
SplineSet
20 215 m 2xdc
 20 435 l 2
 20 570 75 665 240 665 c 0
 405 665 460 570 460 435 c 2
 460 215 l 2
 460 80 405 -15 240 -15 c 0
 75 -15 20 80 20 215 c 2xdc
270 145 m 2
 270 505 l 2
 270 522 260 535 240 535 c 0
 220 535 210 522 210 505 c 2
 210 145 l 2
 210 128 220 115 240 115 c 0
 260 115 270 128 270 145 c 2
330 875 m 1
 460 875 l 1xdc
 460 831 l 2
 460 744 416 690 347 690 c 0xec
 267 690 219 731 181 731 c 0xdc
 159 731 150 717 150 695 c 2
 150 690 l 1
 20 690 l 1xec
 20 733 l 2
 20 820 63 875 133 875 c 0xdc
 212 875 261 834 300 834 c 0xec
 322 834 330 849 330 870 c 2
 330 875 l 1
EndSplineSet
EndChar

StartChar: odieresis
Encoding: 246 246 240
Width: 480
Flags: MW
HStem: -15 130<230 250 230 322.5> 535 130<230 250> 695 160<45 220 45 220 45 260 260 435>
VStem: 20 190<215 435 435 502.5> 45 165 270 165 270 190<147.5 215 215 435>
LayerCount: 2
Fore
SplineSet
20 215 m 2xf2
 20 435 l 2
 20 570 75 665 240 665 c 0
 405 665 460 570 460 435 c 2
 460 215 l 2
 460 80 405 -15 240 -15 c 0
 75 -15 20 80 20 215 c 2xf2
270 145 m 2
 270 505 l 2
 270 522 260 535 240 535 c 0
 220 535 210 522 210 505 c 2
 210 145 l 2
 210 128 220 115 240 115 c 0
 260 115 270 128 270 145 c 2
45 855 m 1xec
 220 855 l 1
 220 695 l 1
 45 695 l 1
 45 855 l 1xec
260 855 m 1
 435 855 l 1
 435 695 l 1
 260 695 l 1
 260 855 l 1
EndSplineSet
EndChar

StartChar: divide
Encoding: 247 247 224
Width: 530
Flags: MW
HStem: 140 180<170 360 170 360> 370 80<30 500 30 500> 500 180<170 360 170 360>
VStem: 170 190<140 320 140 320 500 680>
CounterMasks: 1 e0
LayerCount: 2
Fore
SplineSet
360 320 m 1
 360 140 l 1
 170 140 l 1
 170 320 l 1
 360 320 l 1
360 680 m 1
 360 500 l 1
 170 500 l 1
 170 680 l 1
 360 680 l 1
30 370 m 1
 30 450 l 1
 500 450 l 1
 500 370 l 1
 30 370 l 1
EndSplineSet
EndChar

StartChar: oslash
Encoding: 248 248 238
Width: 480
Flags: MW
HStem: -15 130<230 250 230 322.5> 0 21G<0 75 0 0> 535 130<230 250> 630 20G<405 480 480 480>
VStem: 20 190<215 217 337 435 435 502.5> 270 190<147.5 215 215 313 313 313 433 435>
LayerCount: 2
Fore
SplineSet
91 27 m 1x9c
 75 0 l 1
 0 0 l 1
 48 78 l 1
 28 115 20 162 20 215 c 2
 20 435 l 2
 20 570 75 665 240 665 c 0x6c
 306 665 354 650 388 623 c 1
 405 650 l 1
 480 650 l 1
 431 572 l 1
 451 534 460 488 460 435 c 2
 460 215 l 2
 460 80 405 -15 240 -15 c 0
 174 -15 126 0 91 27 c 1x9c
240 115 m 0xac
 260 115 270 128 270 145 c 2
 270 313 l 1
 210 217 l 1
 210 145 l 2
 210 128 220 115 240 115 c 0xac
270 433 m 1
 270 505 l 2
 270 522 260 535 240 535 c 0
 220 535 210 522 210 505 c 2
 210 337 l 1
 270 433 l 1
EndSplineSet
EndChar

StartChar: ugrave
Encoding: 249 249 249
Width: 500
Flags: MW
HStem: -15 150<117.5 260> 0 21G<300 470 470 470> 630 20G<30 220 30 30 280 280 280 470> 690 230<205 205 205 275 80 335>
VStem: 30 190<92.5 650 170 650 170 650> 280 190<90 90 160 170 170 650>
LayerCount: 2
Fore
SplineSet
220 170 m 2xbc
 220 650 l 1
 30 650 l 1
 30 155 l 2
 30 30 80 -15 155 -15 c 0xbc
 245 -15 280 90 280 90 c 1
 287 90 l 1
 300 0 l 1
 470 0 l 1x7c
 470 650 l 1
 280 650 l 1
 280 170 l 2
 280 150 270 135 250 135 c 0
 230 135 220 150 220 170 c 2xbc
205 690 m 1
 80 920 l 1
 275 920 l 1
 335 690 l 1
 205 690 l 1
EndSplineSet
EndChar

StartChar: ucircumflex
Encoding: 251 251 267
Width: 500
Flags: MW
HStem: -15 150<117.5 260> 0 21G<300 470 300 300> 630 20G<30 220 220 220 280 470 470 470> 690 200<180 190 30 320 310 320 180 470 310 310>
VStem: 30 190<160 170 170 650> 280 190<90 90 170 650 0 650>
LayerCount: 2
Fore
SplineSet
220 650 m 1xbc
 220 170 l 2
 220 150 230 135 250 135 c 0xbc
 270 135 280 150 280 170 c 2
 280 650 l 1
 470 650 l 1
 470 0 l 1
 300 0 l 1x7c
 287 90 l 1
 280 90 l 1
 280 90 245 -15 155 -15 c 0
 80 -15 30 30 30 155 c 2
 30 650 l 1
 220 650 l 1xbc
30 710 m 1
 180 890 l 1
 320 890 l 1
 470 710 l 1
 470 690 l 1
 310 690 l 1
 255 785 l 1
 245 785 l 1
 190 690 l 1
 30 690 l 1
 30 710 l 1
EndSplineSet
EndChar

StartChar: udieresis
Encoding: 252 252 229
Width: 500
Flags: MW
HStem: -15 150<117.5 260> 0 21G<300 470 300 300> 630 20G<30 220 220 220 280 470 470 470> 690 160<55 230 55 230 55 270 270 445>
VStem: 30 190<160 170 170 650> 55 165 280 165<170 850 650 850> 280 190<90 90 170 650 0 650>
LayerCount: 2
Fore
SplineSet
220 650 m 1xb9
 220 170 l 2
 220 150 230 135 250 135 c 0xba
 270 135 280 150 280 170 c 2
 280 650 l 1
 470 650 l 1
 470 0 l 1
 300 0 l 1x79
 287 90 l 1
 280 90 l 1
 280 90 245 -15 155 -15 c 0
 80 -15 30 30 30 155 c 2
 30 650 l 1
 220 650 l 1xb9
55 850 m 1xb6
 230 850 l 1
 230 690 l 1
 55 690 l 1
 55 850 l 1xb6
270 850 m 1
 445 850 l 1
 445 690 l 1
 270 690 l 1
 270 850 l 1
EndSplineSet
EndChar

StartChar: thorn
Encoding: 254 254 235
Width: 490
Flags: MW
HStem: -150 21G<30 30 30 220> -15 120<240 372.5> 535 130<240 377.5> 780 20G<30 220 220 220>
VStem: 30 190<-150 59 130 140 140 500 575 800> 280 190<140 190 190 495>
LayerCount: 2
Fore
SplineSet
30 -150 m 1
 30 800 l 1
 220 800 l 1
 220 575 l 1
 223 583 254 665 340 665 c 0
 415 665 470 620 470 495 c 2
 470 190 l 2
 470 30 410 -15 335 -15 c 0
 252 -15 221 56 220 59 c 1
 220 -150 l 1
 30 -150 l 1
280 140 m 2
 280 500 l 2
 280 520 270 535 250 535 c 0
 230 535 220 520 220 500 c 2
 220 140 l 2
 220 120 230 105 250 105 c 0
 270 105 280 120 280 140 c 2
EndSplineSet
EndChar

StartChar: ydieresis
Encoding: 255 255 232
Width: 515
Flags: MW
HStem: -160 160<30 135 30 205 30 135> 630 20G<10 210 210 210 305 505 505 505> 690 160<70 245 70 245 70 285 285 460>
VStem: 70 175<690 850 690 850> 287 173
LayerCount: 2
Fore
SplineSet
270 200 m 1
 305 650 l 1
 505 650 l 1
 425 120 l 2
 391 -103 355 -160 205 -160 c 2
 30 -160 l 1
 30 0 l 1
 135 0 l 1
 10 650 l 1
 210 650 l 1
 260 200 l 1
 270 200 l 1
70 850 m 1
 245 850 l 1
 245 690 l 1
 70 690 l 1
 70 850 l 1
285 850 m 1
 460 850 l 1
 460 690 l 1
 285 690 l 1
 285 850 l 1
EndSplineSet
EndChar

StartChar: Abreve
Encoding: 258 258 309
Width: 556
Flags: MW
HStem: 0 21G<10 208 10 10 348 546 348 348> 130 170<237 318 237 335 221 318> 780 20G<136 420 420 420> 840 125<238 318 238 335.5> 840 180<118 335.5>
LayerCount: 2
Fore
SplineSet
348 0 m 1xe8
 335 130 l 1
 221 130 l 1
 208 0 l 1
 10 0 l 1
 87 520 l 2
 126 780 136 800 136 800 c 1
 420 800 l 1
 420 800 430 780 469 520 c 2
 546 0 l 1
 348 0 l 1xe8
268 610 m 1
 237 300 l 1
 318 300 l 1
 288 610 l 1
 268 610 l 1
368 1020 m 1
 438 1020 l 1
 438 1000 l 2
 438 905 393 840 278 840 c 0
 153 840 118 915 118 1000 c 2
 118 1020 l 1
 188 1020 l 1xe8
 188 1000 198 965 278 965 c 0xf0
 358 965 368 1000 368 1020 c 1
EndSplineSet
EndChar

StartChar: abreve
Encoding: 259 259 308
Width: 498
Flags: MW
HStem: -10 145<122.5 260.5> 0 21G<298 468 298 298> 430 235<175.5 218 28 328> 535 130<238 258> 695 125<208 288 208 305.5> 695 180<88 305.5>
VStem: 18 190<175 227.5 175 247.5> 278 190<70 70 195 325 325 325 414 475 0 505 0 513.5>
LayerCount: 2
Fore
SplineSet
288 70 m 1x6b
 278 70 l 1
 278 70 255 -10 165 -10 c 0
 80 -10 18 50 18 165 c 0
 18 330 165 363 258 405 c 2
 278 414 l 1
 278 505 l 2
 278 522 268 535 248 535 c 0x97
 228 535 218 522 218 505 c 2
 218 430 l 1
 28 430 l 1
 28 465 l 2
 28 590 103 665 248 665 c 0
 408 665 468 595 468 475 c 2
 468 0 l 1
 298 0 l 1
 288 70 l 1x6b
278 195 m 2
 278 325 l 1
 253 305 l 2
 225 283 208 255 208 200 c 0
 208 150 226 135 246 135 c 0
 275 135 278 165 278 195 c 2
338 875 m 1
 408 875 l 1
 408 855 l 2
 408 760 363 695 248 695 c 0
 123 695 88 770 88 855 c 2
 88 875 l 1
 158 875 l 1xa7
 158 855 168 820 248 820 c 0xab
 328 820 338 855 338 875 c 1
EndSplineSet
EndChar

StartChar: Aogonek
Encoding: 260 260 410
Width: 556
Flags: MW
HStem: -210 90<438 458 438 488> -210 150<473 488> 0 21G<10 208 10 10 467 546 467 467> 130 170<237 318 237 335 221 318> 780 20G<136 420 420 420>
VStem: 318 105<-91 -67>
LayerCount: 2
Fore
SplineSet
546 0 m 1x7c
 467 0 l 1
 465 -1 423 -21 423 -80 c 0
 423 -102 428 -120 448 -120 c 0xbc
 468 -120 473 -102 473 -80 c 2
 473 -60 l 1
 573 -60 l 1
 573 -90 l 2
 573 -165 528 -210 448 -210 c 0
 373 -210 318 -170 318 -95 c 0
 318 -39 340 -12 349 -3 c 1
 335 130 l 1
 221 130 l 1
 208 0 l 1
 10 0 l 1
 87 520 l 2
 126 780 136 800 136 800 c 1
 420 800 l 1
 420 800 430 780 469 520 c 2
 546 0 l 1x7c
268 610 m 1
 237 300 l 1
 318 300 l 1
 288 610 l 1
 268 610 l 1
EndSplineSet
EndChar

StartChar: Cdotaccent
Encoding: 266 266 339
Width: 500
Flags: MW
HStem: -15 165<238.5 261.5 238.5 332.5> 650 165<238.5 261.5> 840 150<165 335 165 335>
VStem: 20 200<235 565 565 610> 165 170<840 990 840 990> 280 200<190 235 235 340 157.5 340 480 565>
LayerCount: 2
Fore
SplineSet
20 235 m 2xf4
 20 565 l 2
 20 720 85 815 250 815 c 0
 415 815 480 720 480 565 c 2
 480 480 l 1
 280 480 l 1
 280 610 l 2
 280 630 273 650 250 650 c 0
 227 650 220 630 220 610 c 2
 220 190 l 2
 220 170 227 150 250 150 c 0
 273 150 280 170 280 190 c 2
 280 340 l 1
 480 340 l 1
 480 235 l 2
 480 80 415 -15 250 -15 c 0
 85 -15 20 80 20 235 c 2xf4
335 990 m 1xe8
 335 840 l 1
 165 840 l 1
 165 990 l 1
 335 990 l 1xe8
EndSplineSet
EndChar

StartChar: ccaron
Encoding: 269 269 323
Width: 480
Flags: MW
HStem: -15 130<230 250 230 322.5> 535 130<230 250> 695 200<170 180 300 310 170 170> 780 20G<235 245 245 245>
VStem: 20 190<215 435 435 502.5> 270 190<147.5 215 215 285 147.5 285 390 435>
LayerCount: 2
Fore
SplineSet
270 390 m 1xec
 270 505 l 2
 270 522 260 535 240 535 c 0
 220 535 210 522 210 505 c 2
 210 145 l 2
 210 128 220 115 240 115 c 0
 260 115 270 128 270 145 c 2
 270 285 l 1
 460 285 l 1
 460 215 l 2
 460 80 405 -15 240 -15 c 0
 75 -15 20 80 20 215 c 2
 20 435 l 2
 20 570 75 665 240 665 c 0
 405 665 460 570 460 435 c 2
 460 390 l 1
 270 390 l 1xec
460 875 m 1
 310 695 l 1
 170 695 l 1
 20 875 l 1
 20 895 l 1
 180 895 l 1xec
 235 800 l 1
 245 800 l 1xdc
 300 895 l 1
 460 895 l 1
 460 875 l 1
EndSplineSet
EndChar

StartChar: Dcaron
Encoding: 270 270 317
Width: 505
Flags: MW
HStem: 0 150<220 230 230 250 220 255> 650 150<220 230 220 220> 840 200<160 165 305 310 160 160>
VStem: 30 190<150 650 150 800 150 800> 285 200<225 240 240 560>
LayerCount: 2
Fore
SplineSet
30 0 m 1
 30 800 l 1
 255 800 l 2
 405 800 485 750 485 560 c 2
 485 240 l 2
 485 50 405 0 255 0 c 2
 30 0 l 1
285 225 m 2
 285 575 l 2
 285 635 270 650 230 650 c 2
 220 650 l 1
 220 150 l 1
 230 150 l 2
 270 150 285 165 285 225 c 2
465 1020 m 1
 310 840 l 1
 160 840 l 1
 5 1020 l 1
 5 1040 l 1
 165 1040 l 1
 230 950 l 1
 240 950 l 1
 305 1040 l 1
 465 1040 l 1
 465 1020 l 1
EndSplineSet
EndChar

StartChar: dcaron
Encoding: 271 271 417
Width: 710
Flags: MW
HStem: -15 120<120.5 250> 0 21G<290 460 290 290> 455 100<500 530 500 540 500 530> 560 105<120 250> 620 180<500 580 270 500>
VStem: 20 190<165 460 460 525> 270 190<140 525 525 535 605 800 0 800> 500 190<455 630 555 630 620 630 630 800 567.5 800> 580 110<610 620 620 620>
LayerCount: 2
Fore
SplineSet
460 800 m 1xaf
 460 0 l 1
 290 0 l 1x6f
 275 65 l 1
 275 65 253 -15 158 -15 c 0
 83 -15 20 30 20 165 c 2
 20 460 l 2
 20 620 80 665 160 665 c 0xb7
 240 665 270 605 270 605 c 1
 270 800 l 1
 460 800 l 1xaf
210 525 m 2
 210 140 l 2
 210 120 220 105 240 105 c 0
 260 105 270 120 270 140 c 2
 270 525 l 2
 270 545 260 560 240 560 c 0xb7
 220 560 210 545 210 525 c 2
690 800 m 1xaf
 690 630 l 2
 690 505 650 455 540 455 c 2
 500 455 l 1
 500 555 l 1xaf
 560 555 580 560 580 610 c 2
 580 620 l 1xae80
 500 620 l 1
 500 800 l 1
 690 800 l 1xaf
EndSplineSet
EndChar

StartChar: dcroat
Encoding: 273 273 329
Width: 490
Flags: MW
HStem: -15 120<120.5 250> 0 21G<290 460 290 290> 540 105<120 250> 680 90<185 270 185 270 460 540> 845 20G<270 460 460 460>
VStem: 20 190<165 440 440 505> 270 190<140 505 505 515 585 680 0 680 770 865 0 865>
LayerCount: 2
Fore
SplineSet
460 680 m 1xbe
 460 0 l 1
 290 0 l 1x7e
 275 65 l 1
 275 65 253 -15 158 -15 c 0
 83 -15 20 30 20 165 c 2
 20 440 l 2
 20 600 80 645 160 645 c 0
 238 645 268 588 270 585 c 1
 270 680 l 1
 185 680 l 1
 185 770 l 1
 270 770 l 1
 270 865 l 1
 460 865 l 1
 460 770 l 1
 540 770 l 1
 540 680 l 1
 460 680 l 1xbe
210 505 m 2
 210 140 l 2
 210 120 220 105 240 105 c 0xbe
 260 105 270 120 270 140 c 2
 270 505 l 2
 270 525 260 540 240 540 c 0
 220 540 210 525 210 505 c 2
EndSplineSet
EndChar

StartChar: Emacron
Encoding: 274 274 355
Width: 430
Flags: MW
HStem: 180 140<230 380 230 410 230 380> 320 180<230 380 230 380> 620 180<230 410 30 410> 840 80<30 410 30 410>
VStem: 30 200<180 320 500 620 0 320>
LayerCount: 2
Fore
SplineSet
380 320 m 1xb8
 380 500 l 1
 230 500 l 1
 230 620 l 1
 410 620 l 1
 410 800 l 1
 30 800 l 1
 30 0 l 1
 410 0 l 1xf8
 410 180 l 1
 230 180 l 1
 230 320 l 1
 380 320 l 1xb8
30 840 m 1
 30 920 l 1
 410 920 l 1
 410 840 l 1
 30 840 l 1
EndSplineSet
EndChar

StartChar: emacron
Encoding: 275 275 360
Width: 480
Flags: MW
HStem: -15 130<230 250 230 322.5> 255 55<270 460 270 270> 310 90<210 270 210 460> 535 130<230 250> 695 80<50 430 50 430>
VStem: 20 190<147.5 215 215 310 400 435> 270 190<136.5 255 215 255 215 255 400 400 400 435 435 502.5> 430 30
LayerCount: 2
Fore
SplineSet
240 115 m 0xde
 220 115 210 128 210 145 c 2
 210 310 l 1
 460 310 l 1
 460 435 l 2
 460 570 405 665 240 665 c 0
 75 665 20 570 20 435 c 2
 20 215 l 2
 20 80 75 -15 240 -15 c 0
 405 -15 460 80 460 215 c 2
 460 255 l 1
 270 255 l 1
 270 145 l 2
 270 128 260 115 240 115 c 0xde
270 505 m 2
 270 400 l 1
 210 400 l 1xbe
 210 505 l 2
 210 522 220 535 240 535 c 0
 260 535 270 522 270 505 c 2
50 695 m 1
 50 775 l 1
 430 775 l 1
 430 695 l 1xbd
 50 695 l 1
EndSplineSet
EndChar

StartChar: Edotaccent
Encoding: 278 278 363
Width: 430
Flags: MW
HStem: 0 180<230 410 230 410> 320 180<230 380 230 380> 620 180<230 410 230 230> 840 150<140 310 140 310>
VStem: 30 200<180 320 180 500 500 620> 140 170<840 990 840 990>
LayerCount: 2
Fore
SplineSet
380 500 m 1xf8
 380 320 l 1
 230 320 l 1
 230 180 l 1
 410 180 l 1
 410 0 l 1
 30 0 l 1
 30 800 l 1
 410 800 l 1
 410 620 l 1
 230 620 l 1
 230 500 l 1
 380 500 l 1xf8
310 990 m 1xf4
 310 840 l 1
 140 840 l 1
 140 990 l 1
 310 990 l 1xf4
EndSplineSet
EndChar

StartChar: Eogonek
Encoding: 280 280 409
Width: 430
Flags: MW
HStem: -210 90<220 240 220 270> -210 150<255 270> 0 180<30 410 250 410 250 250> 320 180<230 380 230 380> 620 180<230 410 230 230>
VStem: 30 175<-91 800> 30 200<180 180 180 320 500 620> 100 105<-91 -61>
LayerCount: 2
Fore
SplineSet
230 180 m 1xba
 410 180 l 1
 410 0 l 1
 250 0 l 1
 250 0 205 -20 205 -80 c 0xbc
 205 -102 210 -120 230 -120 c 0xba
 250 -120 255 -102 255 -80 c 2
 255 -60 l 1
 355 -60 l 1
 355 -90 l 2
 355 -165 310 -210 230 -210 c 0x7a
 155 -210 100 -170 100 -95 c 0x79
 100 -27 133 -1 134 0 c 1
 30 0 l 1
 30 800 l 1
 410 800 l 1
 410 620 l 1
 230 620 l 1
 230 500 l 1
 380 500 l 1
 380 320 l 1
 230 320 l 1
 230 180 l 1xba
EndSplineSet
EndChar

StartChar: eogonek
Encoding: 281 281 414
Width: 480
Flags: MW
HStem: -210 90<240 260 240 290> -210 150<275 290> -15 130 310 90<210 270 210 460 210 270> 535 130<230 250>
VStem: 20 190<215 310 400 435 435 502.5> 120 105<-91 -66> 270 105 270 190<148.5 215 215 255 148.5 255 400 435>
LayerCount: 2
Fore
SplineSet
240 115 m 0xbc80
 260 115 270 128 270 145 c 2
 270 255 l 1
 460 255 l 1
 460 215 l 2
 460 82 407 -11 249 -15 c 1
 237 -27 225 -48 225 -80 c 0
 225 -102 230 -120 250 -120 c 0xba80
 270 -120 275 -102 275 -80 c 2
 275 -60 l 1
 375 -60 l 1
 375 -90 l 2
 375 -165 330 -210 250 -210 c 0
 175 -210 120 -170 120 -95 c 0x7b
 120 -37 143 -10 151 -3 c 1
 55 26 20 108 20 215 c 2
 20 435 l 2
 20 570 75 665 240 665 c 0
 405 665 460 570 460 435 c 2
 460 310 l 1
 210 310 l 1
 210 145 l 2
 210 128 220 115 240 115 c 0xbc80
270 400 m 1
 270 505 l 2
 270 522 260 535 240 535 c 0
 220 535 210 522 210 505 c 2
 210 400 l 1xbd
 270 400 l 1
EndSplineSet
EndChar

StartChar: Ecaron
Encoding: 282 282 316
Width: 430
Flags: MW
HStem: 0 180<230 410 230 410> 320 180<230 380 230 380> 620 180<230 410 230 230> 840 200<140 145 285 290 140 140>
VStem: 30 200<180 320 180 500 500 620>
LayerCount: 2
Fore
SplineSet
380 500 m 1
 380 320 l 1
 230 320 l 1
 230 180 l 1
 410 180 l 1
 410 0 l 1
 30 0 l 1
 30 800 l 1
 410 800 l 1
 410 620 l 1
 230 620 l 1
 230 500 l 1
 380 500 l 1
445 1020 m 1
 290 840 l 1
 140 840 l 1
 -15 1020 l 1
 -15 1040 l 1
 145 1040 l 1
 210 950 l 1
 220 950 l 1
 285 1040 l 1
 445 1040 l 1
 445 1020 l 1
EndSplineSet
EndChar

StartChar: ecaron
Encoding: 283 283 322
Width: 480
Flags: MW
HStem: -15 130<230 250 230 322.5> 310 90<210 270 210 460 210 270> 535 130<230 250> 695 200<170 180 300 310 170 170> 780 20G<235 245 245 245>
VStem: 20 190<215 310 400 435 435 502.5> 270 190<147.5 215 215 255 147.5 255 400 435>
LayerCount: 2
Fore
SplineSet
240 115 m 0xf6
 260 115 270 128 270 145 c 2
 270 255 l 1
 460 255 l 1
 460 215 l 2
 460 80 405 -15 240 -15 c 0
 75 -15 20 80 20 215 c 2
 20 435 l 2
 20 570 75 665 240 665 c 0
 405 665 460 570 460 435 c 2
 460 310 l 1
 210 310 l 1
 210 145 l 2
 210 128 220 115 240 115 c 0xf6
270 400 m 1
 270 505 l 2
 270 522 260 535 240 535 c 0
 220 535 210 522 210 505 c 2
 210 400 l 1
 270 400 l 1
460 875 m 1
 310 695 l 1
 170 695 l 1
 20 875 l 1
 20 895 l 1
 180 895 l 1xf6
 235 800 l 1
 245 800 l 1xee
 300 895 l 1
 460 895 l 1
 460 875 l 1
EndSplineSet
EndChar

StartChar: gbreve
Encoding: 287 287 337
Width: 490
Flags: MW
HStem: -165 100<230 250 230 327.5> -165 165<157.5 210 20 327.5> 25 120<120.5 250> 545 105<230 460> 545 120<117.5 250> 690 125<205 285 205 302.5> 690 180<85 302.5>
VStem: 20 190<-43.5 -35 -35 0 205 460 460 510> 270 135 270 190<-17.5 60 60 103 103 103 180 510 510 520 585 650>
LayerCount: 2
Fore
SplineSet
210 0 m 1x7540
 210 -35 l 2
 210 -52 220 -65 240 -65 c 0
 260 -65 270 -52 270 -35 c 2
 270 103 l 1
 267 93 245 25 158 25 c 0
 83 25 20 70 20 205 c 2
 20 460 l 2
 20 620 80 665 155 665 c 0xad80
 238 665 268 589 270 585 c 1
 270 650 l 1
 460 650 l 1
 460 60 l 2
 460 -95 415 -165 240 -165 c 0
 75 -165 20 -105 20 0 c 1
 210 0 l 1x7540
335 870 m 1x7380
 405 870 l 1
 405 850 l 2
 405 755 360 690 245 690 c 0
 120 690 85 765 85 850 c 2
 85 870 l 1
 155 870 l 1xb380
 155 850 165 815 245 815 c 0xb580
 325 815 335 850 335 870 c 1x7380
210 510 m 2
 210 180 l 2
 210 160 220 145 240 145 c 0
 260 145 270 160 270 180 c 2
 270 510 l 2
 270 530 260 545 240 545 c 0
 220 545 210 530 210 510 c 2
EndSplineSet
EndChar

StartChar: Gdotaccent
Encoding: 288 288 341
Width: 505
Flags: MW
HStem: -15 165<245.5 274 245.5 303> 0 21G<365 480 365 365> 650 165<238.5 261.5> 840 150<165 335 165 335>
VStem: 20 200<235 565 565 610> 165 170<840 990 840 990> 245 235<320 440 0 440> 280 200<500 565 0 610 0 620> 300 180<280 320 320 320> 372 108
LayerCount: 2
Fore
SplineSet
20 235 m 2xba
 20 565 l 2
 20 720 85 815 250 815 c 0
 415 815 480 720 480 565 c 2
 480 500 l 1
 280 500 l 1
 280 610 l 2xb9
 280 630 273 650 250 650 c 0
 227 650 220 630 220 610 c 2
 220 203 l 2
 220 168 233 150 258 150 c 0
 290 150 300 183 300 280 c 2
 300 320 l 1xb880
 245 320 l 1
 245 440 l 1
 480 440 l 1
 480 0 l 1
 365 0 l 1x7a
 380 200 l 1
 360 200 l 1
 360 200 398 -15 208 -15 c 0
 73 -15 20 80 20 235 c 2xba
335 990 m 1xb440
 335 840 l 1
 165 840 l 1
 165 990 l 1
 335 990 l 1xb440
EndSplineSet
EndChar

StartChar: Gcommaaccent
Encoding: 290 290 356
Width: 505
Flags: MW
HStem: -385 100<165 195 165 205 165 260> -220 180<165 245 245 245> -15 165<245.5 274 245.5 303> 0 21G<365 480 365 365> 440 60<280 480 280 480 280 480> 650 165<238.5 261.5>
VStem: 20 200<235 565 565 610> 245 235<-255 440 -230 440 320 440 0 440> 280 200<500 565 0 610 0 620> 300 180<280 320 320 320>
LayerCount: 2
Fore
SplineSet
20 235 m 2xef
 20 565 l 2
 20 720 85 815 250 815 c 0
 415 815 480 720 480 565 c 2
 480 500 l 1
 280 500 l 1
 280 610 l 2xee80
 280 630 273 650 250 650 c 0
 227 650 220 630 220 610 c 2
 220 203 l 2
 220 168 233 150 258 150 c 0
 290 150 300 183 300 280 c 2
 300 320 l 1xee40
 245 320 l 1
 245 440 l 1
 480 440 l 1
 480 0 l 1
 365 0 l 1xdf
 380 200 l 1
 360 200 l 1
 360 200 398 -15 208 -15 c 0
 73 -15 20 80 20 235 c 2xef
355 -210 m 2
 355 -40 l 1
 165 -40 l 1
 165 -220 l 1
 245 -220 l 1
 245 -230 l 2xef
 245 -280 225 -285 165 -285 c 1
 165 -385 l 1
 205 -385 l 2
 315 -385 355 -335 355 -210 c 2
EndSplineSet
EndChar

StartChar: gcommaaccent
Encoding: 291 291 419
Width: 490
Flags: MW
HStem: -165 100<230 250 230 327.5> -165 165<157.5 210 20 327.5> 25 120<120.5 250> 545 105<230 460> 545 120<117.5 250> 695 180<160 350 270 350 270 350> 940 100<320 350>
VStem: 20 190<-43.5 -35 -35 0 205 460 460 510> 160 110<875 885> 160 190<695 865 865 875 695 927.5> 270 190<-17.5 60 60 103 103 103 180 510 510 520 585 650>
LayerCount: 2
Fore
SplineSet
210 0 m 1x7720
 210 -35 l 2x7720
 210 -52 220 -65 240 -65 c 0
 260 -65 270 -52 270 -35 c 2
 270 103 l 1xb680
 267 93 245 25 158 25 c 0
 83 25 20 70 20 205 c 2
 20 460 l 2
 20 620 80 665 155 665 c 0xaf20
 238 665 268 589 270 585 c 1
 270 650 l 1
 460 650 l 1
 460 60 l 2
 460 -95 415 -165 240 -165 c 0
 75 -165 20 -105 20 0 c 1
 210 0 l 1x7720
160 695 m 1xb640
 160 865 l 2
 160 990 200 1040 310 1040 c 2
 350 1040 l 1
 350 940 l 1xb640
 290 940 270 935 270 885 c 2
 270 875 l 1xb680
 350 875 l 1
 350 695 l 1
 160 695 l 1xb640
210 510 m 2xb720
 210 180 l 2xb720
 210 160 220 145 240 145 c 0
 260 145 270 160 270 180 c 2
 270 510 l 2xb680
 270 530 260 545 240 545 c 0
 220 545 210 530 210 510 c 2xb720
EndSplineSet
EndChar

StartChar: Hcircumflex
Encoding: 292 292 331
Width: 520
Flags: MW
HStem: 0 21G<30 230 30 30 290 490 290 290> 780 20G<30 230 230 230 290 490 490 490> 840 210<185 190 30 335 330 335 185 490 330 330>
VStem: 30 200<0 320 0 500 500 800> 290 200<0 320 320 320 500 800 0 800>
LayerCount: 2
Fore
SplineSet
290 800 m 1
 490 800 l 1
 490 0 l 1
 290 0 l 1
 290 320 l 1
 230 320 l 1
 230 0 l 1
 30 0 l 1
 30 800 l 1
 230 800 l 1
 230 500 l 1
 290 500 l 1
 290 800 l 1
30 860 m 1
 185 1050 l 1
 335 1050 l 1
 490 860 l 1
 490 840 l 1
 330 840 l 1
 265 940 l 1
 255 940 l 1
 190 840 l 1
 30 840 l 1
 30 860 l 1
EndSplineSet
EndChar

StartChar: hcircumflex
Encoding: 293 293 418
Width: 500
Flags: MW
HStem: 0 21G<30 220 30 30 280 470 280 280> 515 150<240 382.5> 780 20G<30 220 220 220> 840 210<170 175 15 320 315 320 170 475 315 315>
VStem: 30 190<0 480 0 560 560 800> 280 190<0 480 480 490>
LayerCount: 2
Fore
SplineSet
280 0 m 1
 280 480 l 2
 280 500 270 515 250 515 c 0
 230 515 220 500 220 480 c 2
 220 0 l 1
 30 0 l 1
 30 800 l 1
 220 800 l 1
 220 560 l 1
 220 560 255 665 345 665 c 0
 420 665 470 620 470 495 c 2
 470 0 l 1
 280 0 l 1
15 860 m 1
 170 1050 l 1
 320 1050 l 1
 475 860 l 1
 475 840 l 1
 315 840 l 1
 250 940 l 1
 240 940 l 1
 175 840 l 1
 15 840 l 1
 15 860 l 1
EndSplineSet
EndChar

StartChar: Hbar
Encoding: 294 294 330
Width: 620
Flags: MW
HStem: 0 21G<80 280 80 80 340 540 340 340> 570 80<0 80 0 80 280 340 540 620> 780 20G<80 280 280 280 340 540 540 540>
VStem: 80 200<0 320 500 570 650 800> 340 200<0 320 320 320 500 570 0 570 650 800>
LayerCount: 2
Fore
SplineSet
0 570 m 1
 0 650 l 1
 80 650 l 1
 80 800 l 1
 280 800 l 1
 280 650 l 1
 340 650 l 1
 340 800 l 1
 540 800 l 1
 540 650 l 1
 620 650 l 1
 620 570 l 1
 540 570 l 1
 540 0 l 1
 340 0 l 1
 340 320 l 1
 280 320 l 1
 280 0 l 1
 80 0 l 1
 80 570 l 1
 0 570 l 1
280 500 m 1
 340 500 l 1
 340 570 l 1
 280 570 l 1
 280 500 l 1
EndSplineSet
EndChar

StartChar: Itilde
Encoding: 296 296 353
Width: 260
Flags: MW
HStem: 0 21G<30 230 30 30> 780 20G<30 230 230 230> 840 144<199.5 210 178.5 271.5> 881 144<51 60 -12 82>
VStem: 30 200<0 800 0 800>
LayerCount: 2
Fore
SplineSet
230 800 m 1xd8
 230 0 l 1
 30 0 l 1
 30 800 l 1
 230 800 l 1xd8
228 1025 m 1
 360 1025 l 1xd8
 360 976 l 2
 360 889 306 840 237 840 c 0xe8
 162 840 101 881 63 881 c 0xd8
 39 881 32 867 32 845 c 2
 32 840 l 1
 -100 840 l 1xe8
 -100 888 l 2
 -100 975 -47 1025 23 1025 c 0xd8
 97 1025 159 984 198 984 c 0xe8
 222 984 228 999 228 1020 c 2
 228 1025 l 1
EndSplineSet
EndChar

StartChar: itilde
Encoding: 297 297 358
Width: 250
Flags: MW
HStem: 0 21G<30 220 30 30> 630 20G<30 220 220 220> 690 144<-95 196 192 196 165.5 266.5> 731 144<55 57.5 -17 85>
VStem: 30 190<0 650 0 650>
LayerCount: 2
Fore
SplineSet
30 650 m 1xd8
 220 650 l 1
 220 0 l 1
 30 0 l 1
 30 650 l 1xd8
215 875 m 1
 345 875 l 1xd8
 345 831 l 2
 345 744 301 690 232 690 c 0xe8
 152 690 104 731 66 731 c 0xd8
 44 731 35 717 35 695 c 2
 35 690 l 1
 -95 690 l 1xe8
 -95 733 l 2
 -95 820 -52 875 18 875 c 0xd8
 97 875 146 834 185 834 c 0xe8
 207 834 215 849 215 870 c 2
 215 875 l 1
EndSplineSet
EndChar

StartChar: imacron
Encoding: 299 299 371
Width: 250
Flags: MW
HStem: 0 21G<30 220 220 220> 630 20G<30 220 30 30> 695 80<-50 300 -50 300>
LayerCount: 2
Fore
SplineSet
220 650 m 1
 30 650 l 1
 30 0 l 1
 220 0 l 1
 220 650 l 1
-50 695 m 1
 -50 775 l 1
 300 775 l 1
 300 695 l 1
 -50 695 l 1
EndSplineSet
EndChar

StartChar: Iogonek
Encoding: 302 302 422
Width: 260
Flags: MW
HStem: -210 90<120 140 120 170> -210 150<155 170> 0 21G<30 30 145 230 145 145> 780 20G<30 230 230 230>
VStem: 0 105<-91 -60> 30 200<0 800>
LayerCount: 2
Fore
SplineSet
230 0 m 1xb4
 145 0 l 1
 145 0 105 -20 105 -80 c 0
 105 -102 110 -120 130 -120 c 0xb8
 150 -120 155 -102 155 -80 c 2
 155 -60 l 1
 255 -60 l 1
 255 -90 l 2
 255 -165 210 -210 130 -210 c 0
 55 -210 0 -170 0 -95 c 0x78
 0 -25 30 0 30 0 c 1
 30 800 l 1
 230 800 l 1
 230 0 l 1xb4
EndSplineSet
EndChar

StartChar: iogonek
Encoding: 303 303 423
Width: 250
Flags: MW
HStem: -210 90<115 135 115 165> -210 150<150 165> 0 21G<30 30 144 220 144 144> 650 150<30 220 30 220>
VStem: -5 105<-91 -60> 30 70<-91 610> 30 190<0 610 0 610 650 800>
LayerCount: 2
Fore
SplineSet
30 610 m 1xb4
 220 610 l 1
 220 0 l 1xb2
 144 0 l 1
 140 -2 100 -23 100 -80 c 0
 100 -102 105 -120 125 -120 c 0xb4
 145 -120 150 -102 150 -80 c 2
 150 -60 l 1
 250 -60 l 1
 250 -90 l 2
 250 -165 205 -210 125 -210 c 0
 50 -210 -5 -170 -5 -95 c 0x78
 -5 -25 30 0 30 0 c 1
 30 610 l 1xb4
30 800 m 1
 220 800 l 1
 220 650 l 1
 30 650 l 1
 30 800 l 1
EndSplineSet
EndChar

StartChar: Idotaccent
Encoding: 304 304 332
Width: 260
Flags: MW
HStem: 0 21G<30 230 30 30> 780 20G<30 230 230 230> 840 150<30 230 30 230>
VStem: 30 200<0 800 0 800 840 990 0 990>
LayerCount: 2
Fore
SplineSet
230 800 m 1
 230 0 l 1
 30 0 l 1
 30 800 l 1
 230 800 l 1
230 990 m 1
 230 840 l 1
 30 840 l 1
 30 990 l 1
 230 990 l 1
EndSplineSet
EndChar

StartChar: dotlessi
Encoding: 305 305 336
Width: 250
Flags: MW
HStem: 0 21G<30 220 30 30> 630 20G<30 220 220 220>
VStem: 30 190<0 650 0 650>
LayerCount: 2
Fore
SplineSet
30 650 m 1
 220 650 l 1
 220 0 l 1
 30 0 l 1
 30 650 l 1
EndSplineSet
EndChar

StartChar: Jcircumflex
Encoding: 308 308 334
Width: 350
Flags: MW
HStem: -10 175<10 197.5> 780 20G<120 320 320 320> 840 210<140 145 -15 290 285 290 140 445 285 285>
VStem: 120 200<245 265 265 800>
LayerCount: 2
Fore
SplineSet
320 800 m 1
 320 265 l 2
 320 55 285 -10 110 -10 c 0
 50 -10 10 0 10 0 c 1
 10 165 l 1
 55 165 l 2
 90 165 120 175 120 245 c 2
 120 800 l 1
 320 800 l 1
-15 860 m 1
 140 1050 l 1
 290 1050 l 1
 445 860 l 1
 445 840 l 1
 285 840 l 1
 220 940 l 1
 210 940 l 1
 145 840 l 1
 -15 840 l 1
 -15 860 l 1
EndSplineSet
EndChar

StartChar: jcircumflex
Encoding: 309 309 338
Width: 250
Flags: MW
HStem: -180 150<-50 0 0 10 -50 70 -50 0> 630 20G<30 220 220 220> 690 200<55 65 -95 195 185 195 55 345 185 185>
VStem: 30 190<0 30 30 650>
LayerCount: 2
Fore
SplineSet
30 0 m 2
 30 650 l 1
 220 650 l 1
 220 30 l 2
 220 -95 200 -180 70 -180 c 2
 -50 -180 l 1
 -50 -30 l 1
 0 -30 l 2
 20 -30 30 -17 30 0 c 2
-95 710 m 1
 55 890 l 1
 195 890 l 1
 345 710 l 1
 345 690 l 1
 185 690 l 1
 130 785 l 1
 120 785 l 1
 65 690 l 1
 -95 690 l 1
 -95 710 l 1
EndSplineSet
EndChar

StartChar: Kcommaaccent
Encoding: 310 310 366
Width: 525
Flags: MW
HStem: -385 100<175 205 175 215 175 270> -285 65<175 205> -220 180<175 255 255 255> 0 21G<30 230 30 30 315 515 315 315> 325 170<230 240 240 245 230 240> 780 20G<507 507>
VStem: 30 200<0 325 495 800> 290 200<165 245 245 250 97.5 270>
LayerCount: 2
Fore
SplineSet
30 800 m 1
 230 800 l 1
 230 495 l 1
 240 495 l 2
 280 495 290 525 290 605 c 2
 290 635 l 2
 290 790 312 800 312 800 c 1
 507 800 l 1
 507 780 l 1
 507 780 485 770 485 635 c 2
 485 600 l 2
 485 430 400 420 400 420 c 1
 390 420 l 1
 390 410 l 1
 400 410 l 1
 400 410 490 405 490 250 c 2
 490 165 l 2
 490 30 515 20 515 20 c 1
 515 0 l 1
 315 0 l 1
 315 0 290 10 290 165 c 2
 290 245 l 2
 290 295 285 325 245 325 c 2
 230 325 l 1
 230 0 l 1
 30 0 l 1
 30 800 l 1
365 -210 m 2
 365 -40 l 1
 175 -40 l 1
 175 -220 l 1
 255 -220 l 1
 255 -230 l 2
 255 -280 235 -285 175 -285 c 1
 175 -385 l 1
 215 -385 l 2
 325 -385 365 -335 365 -210 c 2
EndSplineSet
EndChar

StartChar: kcommaaccent
Encoding: 311 311 374
Width: 490
Flags: MW
HStem: -385 100<160 190 160 200 160 255> -285 65<160 190> -220 180<160 240 240 240> 0 21G<30 220 30 30 290 480 290 290> 630 20G<290 480> 780 20G<30 220 220 220>
VStem: 30 190<0 255 405 800> 270 190<165 205 205 210 97.5 222.5 457.5 562.5>
LayerCount: 2
Fore
SplineSet
30 800 m 1
 220 800 l 1
 220 405 l 1
 245 405 270 415 270 500 c 0
 270 640 290 650 290 650 c 1
 480 650 l 1
 480 630 l 1
 480 630 460 615 460 510 c 0
 460 350 375 345 375 345 c 1
 365 345 l 1
 365 335 l 1
 375 335 l 1
 375 335 460 335 460 210 c 2
 460 165 l 2
 460 30 480 20 480 20 c 1
 480 0 l 1
 290 0 l 1
 290 0 270 10 270 165 c 2
 270 205 l 2
 270 240 270 255 230 255 c 2
 220 255 l 1
 220 0 l 1
 30 0 l 1
 30 800 l 1
350 -210 m 2
 350 -40 l 1
 160 -40 l 1
 160 -220 l 1
 240 -220 l 1
 240 -230 l 2
 240 -280 220 -285 160 -285 c 1
 160 -385 l 1
 200 -385 l 2
 310 -385 350 -335 350 -210 c 2
EndSplineSet
EndChar

StartChar: Lacute
Encoding: 313 313 292
Width: 430
Flags: MW
HStem: 0 180<230 420 230 420> 780 20G<30 230 230 230> 840 230<130 190 60 325>
VStem: 30 200<180 800 180 800 180 800>
LayerCount: 2
Fore
SplineSet
420 0 m 1
 30 0 l 1
 30 800 l 1
 230 800 l 1
 230 180 l 1
 420 180 l 1
 420 0 l 1
325 1070 m 1
 190 840 l 1
 60 840 l 1
 130 1070 l 1
 325 1070 l 1
EndSplineSet
EndChar

StartChar: lacute
Encoding: 314 314 328
Width: 250
Flags: MW
HStem: 0 21G<30 220 30 30> 780 20G<30 220 220 220> 845 230<130 190 60 325>
VStem: 30 190<0 800 0 800>
LayerCount: 2
Fore
SplineSet
30 800 m 1
 220 800 l 1
 220 0 l 1
 30 0 l 1
 30 800 l 1
325 1075 m 1
 190 845 l 1
 60 845 l 1
 130 1075 l 1
 325 1075 l 1
EndSplineSet
EndChar

StartChar: Lcommaaccent
Encoding: 315 315 354
Width: 430
Flags: MW
HStem: -385 100<130 160 130 170 130 225> -285 65<130 160> -220 180<130 210 210 210> 0 180<230 420 230 420> 780 20G<30 230 230 230>
VStem: 30 200<180 800 180 800 180 800>
LayerCount: 2
Fore
SplineSet
420 0 m 1
 30 0 l 1
 30 800 l 1
 230 800 l 1
 230 180 l 1
 420 180 l 1
 420 0 l 1
320 -210 m 2
 320 -40 l 1
 130 -40 l 1
 130 -220 l 1
 210 -220 l 1
 210 -230 l 2
 210 -280 190 -285 130 -285 c 1
 130 -385 l 1
 170 -385 l 2
 280 -385 320 -335 320 -210 c 2
EndSplineSet
EndChar

StartChar: lcommaaccent
Encoding: 316 316 359
Width: 250
Flags: MW
HStem: -385 100<30 60 30 70 30 60> -220 180<30 110 30 220> 0 21G<30 220 30 30> 780 20G<30 220 220 220>
VStem: 30 190<-385 -210 -285 -210 -220 -210 -210 -40 -272.5 -40 0 800> 110 110<-230 -220 -220 -220>
LayerCount: 2
Fore
SplineSet
30 800 m 1xf8
 220 800 l 1
 220 0 l 1
 30 0 l 1
 30 800 l 1xf8
220 -40 m 1
 220 -210 l 2
 220 -335 180 -385 70 -385 c 2
 30 -385 l 1
 30 -285 l 1xf8
 90 -285 110 -280 110 -230 c 2
 110 -220 l 1xf4
 30 -220 l 1
 30 -40 l 1
 220 -40 l 1
EndSplineSet
EndChar

StartChar: Lcaron
Encoding: 317 317 327
Width: 430
Flags: MW
HStem: 0 180<230 420 230 420> 780 20G<30 230 230 230> 840 200<60 65 205 210 60 60>
VStem: 30 200<180 800 180 800 180 800>
LayerCount: 2
Fore
SplineSet
420 0 m 1
 30 0 l 1
 30 800 l 1
 230 800 l 1
 230 180 l 1
 420 180 l 1
 420 0 l 1
365 1020 m 1
 210 840 l 1
 60 840 l 1
 -95 1020 l 1
 -95 1040 l 1
 65 1040 l 1
 130 950 l 1
 140 950 l 1
 205 1040 l 1
 365 1040 l 1
 365 1020 l 1
EndSplineSet
EndChar

StartChar: lcaron
Encoding: 318 318 415
Width: 470
Flags: MW
HStem: 0 21G<30 220 30 30> 455 100<260 290 260 300 260 290> 620 180<260 340 30 260>
VStem: 30 190<0 800 0 800> 260 190<455 630 555 630 620 630 630 800 567.5 800> 340 110<610 620 620 620>
LayerCount: 2
Fore
SplineSet
30 800 m 1xf8
 220 800 l 1
 220 0 l 1
 30 0 l 1
 30 800 l 1xf8
450 800 m 1
 450 630 l 2
 450 505 410 455 300 455 c 2
 260 455 l 1
 260 555 l 1xf8
 320 555 340 560 340 610 c 2
 340 620 l 1xf4
 260 620 l 1
 260 800 l 1
 450 800 l 1
EndSplineSet
EndChar

StartChar: Lslash
Encoding: 321 321 412
Width: 520
Flags: MW
HStem: 0 180<320 510 320 510> 780 20G<120 320 320 320>
VStem: 120 200<180 339 339 339 180 497 497 800>
LayerCount: 2
Fore
SplineSet
423 535 m 1
 450 459 l 1
 320 411 l 1
 320 180 l 1
 510 180 l 1
 510 0 l 1
 120 0 l 1
 120 339 l 1
 27 305 l 1
 0 381 l 1
 120 424 l 1
 120 800 l 1
 320 800 l 1
 320 497 l 1
 423 535 l 1
EndSplineSet
EndChar

StartChar: lslash
Encoding: 322 322 413
Width: 450
Flags: MW
HStem: 0 21G<130 320 130 130> 780 20G<130 320 320 320>
VStem: 130 190<0 342 342 342 0 497 497 800>
LayerCount: 2
Fore
SplineSet
423 535 m 1
 450 459 l 1
 320 411 l 1
 320 0 l 1
 130 0 l 1
 130 342 l 1
 27 305 l 1
 0 381 l 1
 130 428 l 1
 130 800 l 1
 320 800 l 1
 320 497 l 1
 423 535 l 1
EndSplineSet
EndChar

StartChar: Nacute
Encoding: 323 323 295
Width: 520
Flags: MW
HStem: 0 21G<30 215 30 30 315 490 315 315> 780 20G<30 205 205 205 305 490 490 490> 840 230<250 310 180 445>
VStem: 30 177 312 178
LayerCount: 2
Fore
SplineSet
30 800 m 1
 205 800 l 1
 320 435 l 1
 305 800 l 1
 490 800 l 1
 490 0 l 1
 315 0 l 1
 200 365 l 1
 215 0 l 1
 30 0 l 1
 30 800 l 1
445 1070 m 1
 310 840 l 1
 180 840 l 1
 250 1070 l 1
 445 1070 l 1
EndSplineSet
EndChar

StartChar: nacute
Encoding: 324 324 301
Width: 500
Flags: MW
HStem: 0 21G<30 220 30 30 280 470 280 280> 515 135<30 260> 515 150<240 382.5> 690 230<230 290 160 425>
VStem: 30 190<0 480 0 560 560 650 0 650> 280 190<0 480 480 490>
LayerCount: 2
Fore
SplineSet
280 0 m 1xbc
 280 480 l 2
 280 500 270 515 250 515 c 0
 230 515 220 500 220 480 c 2
 220 0 l 1
 30 0 l 1
 30 650 l 1
 220 650 l 1xdc
 220 560 l 1
 220 560 255 665 345 665 c 0
 420 665 470 620 470 495 c 2
 470 0 l 1
 280 0 l 1xbc
425 920 m 1
 290 690 l 1
 160 690 l 1
 230 920 l 1
 425 920 l 1
EndSplineSet
EndChar

StartChar: Ncommaaccent
Encoding: 325 325 364
Width: 520
Flags: MW
HStem: -385 100<165 195 165 205 165 260> -285 65<165 195> -220 180<165 245 245 245> 0 21G<30 215 30 30 315 490 315 315> 780 20G<30 205 205 205 305 490 490 490>
VStem: 30 177 312 178
LayerCount: 2
Fore
SplineSet
30 800 m 1
 205 800 l 1
 320 435 l 1
 305 800 l 1
 490 800 l 1
 490 0 l 1
 315 0 l 1
 200 365 l 1
 215 0 l 1
 30 0 l 1
 30 800 l 1
355 -210 m 2
 355 -40 l 1
 165 -40 l 1
 165 -220 l 1
 245 -220 l 1
 245 -230 l 2
 245 -280 225 -285 165 -285 c 1
 165 -385 l 1
 205 -385 l 2
 315 -385 355 -335 355 -210 c 2
EndSplineSet
EndChar

StartChar: ncommaaccent
Encoding: 326 326 372
Width: 500
Flags: MW
HStem: -385 100<165 195 165 205 165 195> -220 180<165 245 165 355> 0 21G<30 220 30 30 280 470 280 280> 515 135<30 260> 515 150<240 382.5>
VStem: 30 190<0 480 0 560 560 650 0 650> 165 190<-385 -210 -285 -210 -220 -210 -210 -40 -272.5 -40> 245 110<-230 -220 -220 -220> 280 190<0 480 480 490>
LayerCount: 2
Fore
SplineSet
280 0 m 1xec80
 280 480 l 2
 280 500 270 515 250 515 c 0
 230 515 220 500 220 480 c 2
 220 0 l 1
 30 0 l 1
 30 650 l 1
 220 650 l 1xf480
 220 560 l 1
 220 560 255 665 345 665 c 0
 420 665 470 620 470 495 c 2
 470 0 l 1
 280 0 l 1xec80
355 -40 m 1xf2
 355 -210 l 2
 355 -335 315 -385 205 -385 c 2
 165 -385 l 1
 165 -285 l 1xf2
 225 -285 245 -280 245 -230 c 2
 245 -220 l 1xf5
 165 -220 l 1
 165 -40 l 1
 355 -40 l 1xf2
EndSplineSet
EndChar

StartChar: Ncaron
Encoding: 327 327 318
Width: 520
Flags: MW
HStem: 0 21G<30 215 30 30 315 490 315 315> 780 20G<30 205 205 205 305 490 490 490> 840 200<190 195 335 340 190 190>
VStem: 30 177 312 178
LayerCount: 2
Fore
SplineSet
30 800 m 1
 205 800 l 1
 320 435 l 1
 305 800 l 1
 490 800 l 1
 490 0 l 1
 315 0 l 1
 200 365 l 1
 215 0 l 1
 30 0 l 1
 30 800 l 1
495 1020 m 1
 340 840 l 1
 190 840 l 1
 35 1020 l 1
 35 1040 l 1
 195 1040 l 1
 260 950 l 1
 270 950 l 1
 335 1040 l 1
 495 1040 l 1
 495 1020 l 1
EndSplineSet
EndChar

StartChar: ncaron
Encoding: 328 328 321
Width: 500
Flags: MW
HStem: 0 21G<30 220 30 30 280 470 280 280> 515 135<30 260> 515 150<240 382.5> 690 200<170 180 300 310 170 170>
VStem: 30 190<0 480 0 560 560 650 0 650> 280 190<0 480 480 490>
LayerCount: 2
Fore
SplineSet
280 0 m 1xbc
 280 480 l 2
 280 500 270 515 250 515 c 0
 230 515 220 500 220 480 c 2
 220 0 l 1
 30 0 l 1
 30 650 l 1
 220 650 l 1xdc
 220 560 l 1
 220 560 255 665 345 665 c 0
 420 665 470 620 470 495 c 2
 470 0 l 1
 280 0 l 1xbc
460 870 m 1
 310 690 l 1
 170 690 l 1
 20 870 l 1
 20 890 l 1
 180 890 l 1
 235 795 l 1
 245 795 l 1
 300 890 l 1
 460 890 l 1
 460 870 l 1
EndSplineSet
EndChar

StartChar: Eng
Encoding: 330 330 420
Width: 520
Flags: MW
HStem: -180 150<220 270 270 280 220 340 220 270> 0 21G<30 215 30 30 300 300> 780 20G<30 205 205 205 305 490 490 490>
VStem: 30 177 300 190<0 30 30 47 47 47> 312 178
LayerCount: 2
Fore
SplineSet
300 0 m 2
 300 47 l 1
 200 365 l 1
 215 0 l 1
 30 0 l 1
 30 800 l 1
 205 800 l 1
 320 435 l 1
 305 800 l 1
 490 800 l 1
 490 30 l 2
 490 -95 470 -180 340 -180 c 2
 220 -180 l 1
 220 -30 l 1
 270 -30 l 2
 290 -30 300 -17 300 0 c 2
EndSplineSet
EndChar

StartChar: eng
Encoding: 331 331 421
Width: 500
Flags: MW
HStem: -180 150<200 250 250 260 200 320 200 250> 0 21G<30 220 30 30 280 280> 515 135<30 260> 515 150<240 382.5>
VStem: 30 190<0 480 0 560 560 650 0 650> 280 190<0 30 30 480 480 490>
LayerCount: 2
Fore
SplineSet
280 0 m 2xdc
 280 480 l 2
 280 500 270 515 250 515 c 0
 230 515 220 500 220 480 c 2
 220 0 l 1
 30 0 l 1
 30 650 l 1
 220 650 l 1xec
 220 560 l 1
 220 560 255 665 345 665 c 0
 420 665 470 620 470 495 c 2
 470 30 l 2
 470 -95 450 -180 320 -180 c 2
 200 -180 l 1
 200 -30 l 1
 250 -30 l 2
 270 -30 280 -17 280 0 c 2xdc
EndSplineSet
EndChar

StartChar: omacron
Encoding: 333 333 373
Width: 480
Flags: MW
HStem: -15 130<230 250 230 322.5> 535 130<230 250> 695 80<50 430 50 430>
VStem: 20 190<147.5 215 215 435> 270 190<136.5 435 215 435 435 502.5 215 505> 430 30
LayerCount: 2
Fore
SplineSet
20 435 m 2xf8
 20 215 l 2
 20 80 75 -15 240 -15 c 0
 405 -15 460 80 460 215 c 2
 460 435 l 2
 460 570 405 665 240 665 c 0
 75 665 20 570 20 435 c 2xf8
270 505 m 2
 270 145 l 2
 270 128 260 115 240 115 c 0
 220 115 210 128 210 145 c 2
 210 505 l 2
 210 522 220 535 240 535 c 0
 260 535 270 522 270 505 c 2
50 695 m 1
 50 775 l 1
 430 775 l 1
 430 695 l 1xf4
 50 695 l 1
EndSplineSet
EndChar

StartChar: ohungarumlaut
Encoding: 337 337 302
Width: 480
Flags: MW
HStem: -15 130<230 250 230 322.5> 535 130<230 250> 695 230<130 170 60 305 260 260 260 305 330 370>
VStem: 20 190<215 435 435 502.5> 270 190<147.5 215 215 435>
LayerCount: 2
Fore
SplineSet
20 215 m 2
 20 435 l 2
 20 570 75 665 240 665 c 0
 405 665 460 570 460 435 c 2
 460 215 l 2
 460 80 405 -15 240 -15 c 0
 75 -15 20 80 20 215 c 2
270 145 m 2
 270 505 l 2
 270 522 260 535 240 535 c 0
 220 535 210 522 210 505 c 2
 210 145 l 2
 210 128 220 115 240 115 c 0
 260 115 270 128 270 145 c 2
305 925 m 1
 170 695 l 1
 60 695 l 1
 130 925 l 1
 305 925 l 1
505 925 m 1
 370 695 l 1
 260 695 l 1
 330 925 l 1
 505 925 l 1
EndSplineSet
EndChar

StartChar: OE
Encoding: 338 338 381
Width: 680
Flags: MW
HStem: -15 165<238.5 261.5 238.5 269> 0 180<480 660 480 660 349 660> 320 180<480 630 480 630> 620 180<480 660 480 480> 650 165<238.5 261.5>
VStem: 20 200<235 565 565 610> 280 200<190 320 180 500 500 610 610 620>
LayerCount: 2
Fore
SplineSet
250 150 m 0xae
 273 150 280 170 280 190 c 2
 280 610 l 2
 280 630 273 650 250 650 c 0
 227 650 220 630 220 610 c 2
 220 190 l 2
 220 170 227 150 250 150 c 0xae
630 500 m 1
 630 320 l 1
 480 320 l 1
 480 180 l 1
 660 180 l 1
 660 0 l 1
 349 0 l 1x76
 321 -10 288 -15 250 -15 c 0
 85 -15 20 80 20 235 c 2
 20 565 l 2
 20 720 85 815 250 815 c 0xae
 288 815 321 810 349 800 c 1
 660 800 l 1
 660 620 l 1
 480 620 l 1xb6
 480 500 l 1
 630 500 l 1
EndSplineSet
EndChar

StartChar: oe
Encoding: 339 339 380
Width: 730
Flags: MW
HStem: -15 130<230 250 230 272.5 480 500> 310 90<460 520 460 710 460 520> 535 130<230 250 480 500>
VStem: 20 190<215 435 435 502.5> 270 190<145 310 400 505> 520 190<147.5 215 215 255 147.5 255 400 435>
CounterMasks: 1 1c
LayerCount: 2
Fore
SplineSet
270 145 m 2
 270 505 l 2
 270 522 260 535 240 535 c 0
 220 535 210 522 210 505 c 2
 210 145 l 2
 210 128 220 115 240 115 c 0
 260 115 270 128 270 145 c 2
520 400 m 1
 520 505 l 2
 520 522 510 535 490 535 c 0
 470 535 460 522 460 505 c 2
 460 400 l 1
 520 400 l 1
710 310 m 1
 460 310 l 1
 460 145 l 2
 460 128 470 115 490 115 c 0
 510 115 520 128 520 145 c 2
 520 255 l 1
 710 255 l 1
 710 215 l 2
 710 80 655 -15 510 -15 c 0
 405 -15 370 40 370 40 c 1
 360 40 l 1
 360 40 325 -15 220 -15 c 0
 75 -15 20 80 20 215 c 2
 20 435 l 2
 20 570 75 665 220 665 c 0
 325 665 360 610 360 610 c 1
 370 610 l 1
 370 610 405 665 510 665 c 0
 655 665 710 570 710 435 c 2
 710 310 l 1
EndSplineSet
EndChar

StartChar: racute
Encoding: 341 341 299
Width: 375
Flags: MW
HStem: 0 21G<30 30 30 220> 465 195<305 360 345 360> 630 20G<30 210 210 210> 690 230<190 250 120 385>
VStem: 30 190<0 340 0 650>
LayerCount: 2
Fore
SplineSet
30 0 m 1xd8
 30 650 l 1
 210 650 l 1xb8
 180 520 l 1
 200 520 l 1
 200 520 215 670 360 660 c 1
 360 465 l 1
 345 465 l 2
 265 465 220 440 220 340 c 2
 220 0 l 1
 30 0 l 1xd8
385 920 m 1
 250 690 l 1
 120 690 l 1
 190 920 l 1
 385 920 l 1
EndSplineSet
EndChar

StartChar: Rcommaaccent
Encoding: 342 342 352
Width: 520
Flags: MW
HStem: -385 100<170 200 170 210 170 265> -285 65<170 200> -220 180<170 250 250 250> 0 21G<30 30 30 230 310 310 310 510> 780 20G<30 290 290 370>
VStem: 30 200<0 300 0 465 465 645> 290 200<165 270 270 275 97.5 278.5 495 535 535 610>
LayerCount: 2
Fore
SplineSet
30 0 m 1
 30 800 l 1
 290 800 l 2
 450 800 490 715 490 610 c 2
 490 535 l 2
 490 410 400 395 400 395 c 1
 390 395 l 1
 390 385 l 1
 400 385 l 1
 400 385 490 375 490 275 c 2
 490 165 l 2
 490 30 510 20 510 20 c 1
 510 0 l 1
 310 0 l 1
 310 0 290 10 290 165 c 2
 290 270 l 2
 290 287 280 300 260 300 c 2
 230 300 l 1
 230 0 l 1
 30 0 l 1
290 495 m 2
 290 615 l 2
 290 632 280 645 260 645 c 2
 230 645 l 1
 230 465 l 1
 260 465 l 2
 280 465 290 478 290 495 c 2
360 -210 m 2
 360 -40 l 1
 170 -40 l 1
 170 -220 l 1
 250 -220 l 1
 250 -230 l 2
 250 -280 230 -285 170 -285 c 1
 170 -385 l 1
 210 -385 l 2
 320 -385 360 -335 360 -210 c 2
EndSplineSet
EndChar

StartChar: rcommaaccent
Encoding: 343 343 382
Width: 375
Flags: MW
HStem: -385 100<105 135 105 145 105 135> -220 180<105 185 105 295> 0 21G<30 30 30 220> 465 195<305 360 345 360> 630 20G<30 210 210 210>
VStem: 30 190<0 340 0 650> 105 190<-385 -210 -285 -210 -220 -210 -210 -40 -272.5 -40> 185 110<-230 -220 -220 -220>
LayerCount: 2
Fore
SplineSet
30 0 m 1xf4
 30 650 l 1
 210 650 l 1xec
 180 520 l 1
 200 520 l 1
 200 520 215 670 360 660 c 1
 360 465 l 1
 345 465 l 2
 265 465 220 440 220 340 c 2
 220 0 l 1
 30 0 l 1xf4
295 -40 m 1xf2
 295 -210 l 2
 295 -335 255 -385 145 -385 c 2
 105 -385 l 1
 105 -285 l 1xf2
 165 -285 185 -280 185 -230 c 2
 185 -220 l 1xf1
 105 -220 l 1
 105 -40 l 1
 295 -40 l 1xf2
EndSplineSet
EndChar

StartChar: Rcaron
Encoding: 344 344 319
Width: 520
Flags: MW
HStem: 0 21G<30 30 30 230 310 310 310 510> 780 20G<30 290 290 370> 840 200<160 165 305 310 160 160>
VStem: 30 200<0 300 0 465 465 645> 290 200<165 270 270 275 97.5 278.5 495 535 535 610>
LayerCount: 2
Fore
SplineSet
30 0 m 1
 30 800 l 1
 290 800 l 2
 450 800 490 715 490 610 c 2
 490 535 l 2
 490 410 400 395 400 395 c 1
 390 395 l 1
 390 385 l 1
 400 385 l 1
 400 385 490 375 490 275 c 2
 490 165 l 2
 490 30 510 20 510 20 c 1
 510 0 l 1
 310 0 l 1
 310 0 290 10 290 165 c 2
 290 270 l 2
 290 287 280 300 260 300 c 2
 230 300 l 1
 230 0 l 1
 30 0 l 1
290 495 m 2
 290 615 l 2
 290 632 280 645 260 645 c 2
 230 645 l 1
 230 465 l 1
 260 465 l 2
 280 465 290 478 290 495 c 2
465 1020 m 1
 310 840 l 1
 160 840 l 1
 5 1020 l 1
 5 1040 l 1
 165 1040 l 1
 230 950 l 1
 240 950 l 1
 305 1040 l 1
 465 1040 l 1
 465 1020 l 1
EndSplineSet
EndChar

StartChar: rcaron
Encoding: 345 345 320
Width: 375
Flags: MW
HStem: 0 21G<30 30 30 220> 465 195<305 360 345 360> 630 20G<30 210 210 210> 690 200<120 130 250 260 120 120>
VStem: 30 190<0 340 0 650>
LayerCount: 2
Fore
SplineSet
30 0 m 1xd8
 30 650 l 1
 210 650 l 1xb8
 180 520 l 1
 200 520 l 1
 200 520 215 670 360 660 c 1
 360 465 l 1
 345 465 l 2
 265 465 220 440 220 340 c 2
 220 0 l 1
 30 0 l 1xd8
410 870 m 1
 260 690 l 1
 120 690 l 1
 -30 870 l 1
 -30 890 l 1
 130 890 l 1
 185 795 l 1
 195 795 l 1
 250 890 l 1
 410 890 l 1
 410 870 l 1
EndSplineSet
EndChar

StartChar: scircumflex
Encoding: 349 349 349
Width: 476
Flags: MW
HStem: -15 130<228 248 228 323> 425 240<268 323 160.5 453 268 268> 535 130<228 248> 690 200<168 178 18 308 298 308 168 458 298 298>
VStem: 23 185<430 485 485 505> 268 190<145 170 170 235 122.5 505>
LayerCount: 2
Fore
SplineSet
238 115 m 0xbc
 258 115 268 128 268 145 c 2
 268 170 l 2
 268 300 23 280 23 475 c 0
 23 575 83 665 238 665 c 0
 408 665 453 560 453 495 c 2
 453 425 l 1
 268 425 l 1xdc
 268 505 l 2
 268 522 258 535 238 535 c 0
 218 535 208 522 208 505 c 2
 208 485 l 2
 208 375 458 385 458 175 c 0
 458 70 408 -15 238 -15 c 0
 68 -15 18 80 18 165 c 2
 18 240 l 1
 208 240 l 1
 208 145 l 2
 208 128 218 115 238 115 c 0xbc
18 710 m 1
 168 890 l 1
 308 890 l 1
 458 710 l 1
 458 690 l 1
 298 690 l 1
 243 785 l 1
 233 785 l 1
 178 690 l 1
 18 690 l 1
 18 710 l 1
EndSplineSet
EndChar

StartChar: Scedilla
Encoding: 350 350 377
Width: 496
Flags: MW
HStem: -275 90<231.5 251.5 231.5 287.5> -275 120<212.5 215 125 287.5> -95 245<236.5 248> 650 165<236.5 259.5>
VStem: 23 195<530 590 590 610> 125 93 278 96 278 200<190 220 220 310 157 610>
LayerCount: 2
Fore
SplineSet
271 -140 m 0xba
 271 -110 259 -95 237 -95 c 0
 212 -95 205 -125 205 -125 c 1
 130 -75 l 1
 130 -75 147 -29 198 -11 c 1
 69 6 18 94 18 215 c 2
 18 300 l 1
 218 300 l 1
 218 190 l 2
 218 170 225 150 248 150 c 0
 271 150 278 170 278 190 c 2
 278 220 l 2
 278 400 23 335 23 595 c 0
 23 720 91 815 246 815 c 0
 405 815 473 725 473 595 c 2
 473 535 l 1
 278 535 l 1
 278 610 l 2
 278 630 271 650 248 650 c 0
 225 650 218 630 218 610 c 2
 218 590 l 2
 218 470 478 495 478 225 c 0xb9
 478 89 425 3 293 -12 c 1
 341 -28 374 -69 374 -140 c 0
 374 -225 325 -275 250 -275 c 0
 175 -275 125 -230 125 -155 c 1
 215 -155 l 1x76
 215 -167 221 -185 242 -185 c 0
 261 -185 271 -170 271 -140 c 0xba
EndSplineSet
EndChar

StartChar: scedilla
Encoding: 351 351 378
Width: 476
Flags: MW
HStem: -275 90<222.5 242.5 222.5 278.5> -275 120<203.5 206 116 278.5> -95 210<228 239> 425 240<268 323 160.5 453 268 268> 535 130<228 248>
VStem: 23 185<430 485 485 505> 116 92 268 97 268 190<145 170 170 235 127.5 505>
LayerCount: 2
Fore
SplineSet
262 -140 m 0xb5
 262 -110 250 -95 228 -95 c 0
 203 -95 196 -125 196 -125 c 1
 121 -75 l 1
 121 -75 137 -30 187 -12 c 1
 58 5 18 89 18 165 c 2
 18 240 l 1
 208 240 l 1
 208 145 l 2
 208 128 218 115 238 115 c 0
 258 115 268 128 268 145 c 2
 268 170 l 2
 268 300 23 280 23 475 c 0
 23 575 83 665 238 665 c 0
 408 665 453 560 453 495 c 2
 453 425 l 1
 268 425 l 1xb5
 268 505 l 2
 268 522 258 535 238 535 c 0
 218 535 208 522 208 505 c 2
 208 485 l 2
 208 375 458 385 458 175 c 0xac80
 458 80 417 2 284 -12 c 1
 332 -28 365 -69 365 -140 c 0
 365 -225 316 -275 241 -275 c 0
 166 -275 116 -230 116 -155 c 1
 206 -155 l 1x73
 206 -167 212 -185 233 -185 c 0
 252 -185 262 -170 262 -140 c 0xb5
EndSplineSet
EndChar

StartChar: scaron
Encoding: 353 353 325
Width: 476
Flags: MW
HStem: -15 130<228 248 228 323> 425 240<268 323 160.5 453 268 268> 535 130<228 248> 695 200<168 178 298 308 168 168> 780 20G<233 243 243 243>
VStem: 23 185<430 485 485 505> 268 190<145 170 170 235 122.5 505>
LayerCount: 2
Fore
SplineSet
238 115 m 0xb6
 258 115 268 128 268 145 c 2
 268 170 l 2
 268 300 23 280 23 475 c 0
 23 575 83 665 238 665 c 0
 408 665 453 560 453 495 c 2
 453 425 l 1
 268 425 l 1xd6
 268 505 l 2
 268 522 258 535 238 535 c 0
 218 535 208 522 208 505 c 2
 208 485 l 2
 208 375 458 385 458 175 c 0
 458 70 408 -15 238 -15 c 0
 68 -15 18 80 18 165 c 2
 18 240 l 1
 208 240 l 1
 208 145 l 2
 208 128 218 115 238 115 c 0xb6
458 875 m 1
 308 695 l 1
 168 695 l 1
 18 875 l 1
 18 895 l 1
 178 895 l 1xd6
 233 800 l 1
 243 800 l 1xce
 298 895 l 1
 458 895 l 1
 458 875 l 1
EndSplineSet
EndChar

StartChar: Tcommaaccent
Encoding: 354 354 310
Width: 480
Flags: MW
HStem: -385 100<145 175 145 185 145 175> -220 180<145 225 145 335> 0 21G<140 340 140 140> 620 180<10 140 10 470 340 470 340 340>
VStem: 140 200<0 620 0 620> 225 115
LayerCount: 2
Fore
SplineSet
10 800 m 1xf8
 470 800 l 1
 470 620 l 1
 340 620 l 1
 340 0 l 1
 140 0 l 1
 140 620 l 1
 10 620 l 1
 10 800 l 1xf8
335 -40 m 1
 335 -210 l 2
 335 -335 295 -385 185 -385 c 2
 145 -385 l 1
 145 -285 l 1
 205 -285 225 -280 225 -230 c 2
 225 -220 l 1xf4
 145 -220 l 1
 145 -40 l 1
 335 -40 l 1
EndSplineSet
EndChar

StartChar: tcommaaccent
Encoding: 355 355 311
Width: 395
Flags: MW
HStem: -385 100<140 170 140 180 140 235> -285 65<140 170> -220 180<140 220 220 220> -10 160<188 355> 490 160<10 100 10 105 290 385> 780 20G<290 290>
VStem: 100 190<180 490>
LayerCount: 2
Fore
SplineSet
385 490 m 1
 290 490 l 1
 290 180 l 2
 290 160 295 150 320 150 c 2
 355 150 l 1
 355 0 l 1
 355 0 330 -10 265 -10 c 0
 111 -10 100 80 100 180 c 2
 100 490 l 1
 10 490 l 1
 10 650 l 1
 105 650 l 1
 105 755 l 1
 290 800 l 1
 290 650 l 1
 385 650 l 1
 385 490 l 1
330 -210 m 2
 330 -40 l 1
 140 -40 l 1
 140 -220 l 1
 220 -220 l 1
 220 -230 l 2
 220 -280 200 -285 140 -285 c 1
 140 -385 l 1
 180 -385 l 2
 290 -385 330 -335 330 -210 c 2
EndSplineSet
EndChar

StartChar: Tcaron
Encoding: 356 356 314
Width: 480
Flags: MW
HStem: 0 21G<140 340 140 140> 620 180<10 140 10 470 340 470 340 340> 840 200<165 170 310 315 165 165>
VStem: 140 200<0 620 0 620>
LayerCount: 2
Fore
SplineSet
10 800 m 1
 470 800 l 1
 470 620 l 1
 340 620 l 1
 340 0 l 1
 140 0 l 1
 140 620 l 1
 10 620 l 1
 10 800 l 1
470 1020 m 1
 315 840 l 1
 165 840 l 1
 10 1020 l 1
 10 1040 l 1
 170 1040 l 1
 235 950 l 1
 245 950 l 1
 310 1040 l 1
 470 1040 l 1
 470 1020 l 1
EndSplineSet
EndChar

StartChar: tcaron
Encoding: 357 357 416
Width: 635
Flags: MW
HStem: -10 160<188 355> 455 100<425 455 425 465 425 520> 490 160<10 100 10 105 290 385> 555 65<425 455> 620 180<425 505 505 505>
VStem: 100 190<180 490> 505 110<585 800 610 800>
LayerCount: 2
Fore
SplineSet
385 490 m 1xa6
 290 490 l 1
 290 180 l 2
 290 160 295 150 320 150 c 2
 355 150 l 1
 355 0 l 1
 355 0 330 -10 265 -10 c 0
 111 -10 100 80 100 180 c 2
 100 490 l 1
 10 490 l 1
 10 650 l 1
 105 650 l 1xa6
 105 755 l 1
 290 800 l 1xce
 290 650 l 1
 385 650 l 1
 385 490 l 1xa6
615 630 m 2
 615 800 l 1
 425 800 l 1xce
 425 620 l 1
 505 620 l 1x96
 505 610 l 2
 505 560 485 555 425 555 c 1
 425 455 l 1
 465 455 l 2xce
 575 455 615 505 615 630 c 2
EndSplineSet
EndChar

StartChar: Tbar
Encoding: 358 358 357
Width: 480
Flags: MW
HStem: 0 21G<140 340 140 140> 420 80<40 140 40 140 340 440> 620 180<10 140 10 470 340 340 340 470>
VStem: 140 200<0 420 0 420 500 620>
LayerCount: 2
Fore
SplineSet
40 420 m 1
 40 500 l 1
 140 500 l 1
 140 620 l 1
 10 620 l 1
 10 800 l 1
 470 800 l 1
 470 620 l 1
 340 620 l 1
 340 500 l 1
 440 500 l 1
 440 420 l 1
 340 420 l 1
 340 0 l 1
 140 0 l 1
 140 420 l 1
 40 420 l 1
EndSplineSet
EndChar

StartChar: tbar
Encoding: 359 359 361
Width: 395
Flags: MW
HStem: -10 160<188 355> 340 130<10 100 10 100 290 385> 520 130<10 100 10 105 290 385> 780 20G<290 290>
VStem: 100 190<180 340 170 340 470 520>
LayerCount: 2
Fore
SplineSet
385 520 m 1
 290 520 l 1
 290 470 l 1
 385 470 l 1
 385 340 l 1
 290 340 l 1
 290 180 l 2
 290 160 295 150 320 150 c 2
 355 150 l 1
 355 0 l 1
 355 0 330 -10 265 -10 c 0
 111 -10 100 80 100 180 c 2
 100 340 l 1
 10 340 l 1
 10 470 l 1
 100 470 l 1
 100 520 l 1
 10 520 l 1
 10 650 l 1
 105 650 l 1
 105 755 l 1
 290 800 l 1
 290 650 l 1
 385 650 l 1
 385 520 l 1
EndSplineSet
EndChar

StartChar: Utilde
Encoding: 360 360 367
Width: 520
Flags: MW
HStem: -15 155<248.5 271.5 248.5 342.5> 780 20G<30 230 230 230 290 490 490 490> 840 144<329.5 340 308.5 401.5> 881 144<181 190 118 212>
VStem: 30 200<210 800> 290 200<180 210 210 800>
LayerCount: 2
Fore
SplineSet
290 180 m 2xdc
 290 800 l 1
 490 800 l 1
 490 210 l 2
 490 75 425 -15 260 -15 c 0
 95 -15 30 75 30 210 c 2
 30 800 l 1
 230 800 l 1
 230 180 l 2
 230 160 237 140 260 140 c 0
 283 140 290 160 290 180 c 2xdc
358 1025 m 1
 490 1025 l 1xdc
 490 976 l 2
 490 889 436 840 367 840 c 0xec
 292 840 231 881 193 881 c 0xdc
 169 881 162 867 162 845 c 2
 162 840 l 1
 30 840 l 1xec
 30 888 l 2
 30 975 83 1025 153 1025 c 0xdc
 227 1025 289 984 328 984 c 0xec
 352 984 358 999 358 1020 c 2
 358 1025 l 1
EndSplineSet
EndChar

StartChar: utilde
Encoding: 361 361 375
Width: 500
Flags: MW
HStem: -15 150<117.5 260> 0 21G<300 470 300 300> 630 20G<30 220 220 220 280 470 470 470> 690 144<30 321 317 321 290.5 391.5> 731 144<180 182.5 108 210>
VStem: 30 190<160 170 170 650> 280 190<90 90 170 650 0 650>
LayerCount: 2
Fore
SplineSet
220 650 m 1xb6
 220 170 l 2
 220 150 230 135 250 135 c 0xae
 270 135 280 150 280 170 c 2
 280 650 l 1
 470 650 l 1
 470 0 l 1
 300 0 l 1x76
 287 90 l 1
 280 90 l 1
 280 90 245 -15 155 -15 c 0
 80 -15 30 30 30 155 c 2
 30 650 l 1
 220 650 l 1xb6
340 875 m 1
 470 875 l 1xae
 470 831 l 2
 470 744 426 690 357 690 c 0xb6
 277 690 229 731 191 731 c 0xae
 169 731 160 717 160 695 c 2
 160 690 l 1
 30 690 l 1xb6
 30 733 l 2
 30 820 73 875 143 875 c 0xae
 222 875 271 834 310 834 c 0xb6
 332 834 340 849 340 870 c 2
 340 875 l 1
EndSplineSet
EndChar

StartChar: umacron
Encoding: 363 363 376
Width: 500
Flags: MW
HStem: -15 150<117.5 260> 0 21G<300 470 470 470> 630 20G<30 220 30 30 280 280 280 470> 690 80<30 470 30 470>
VStem: 30 190<92.5 650 170 650 170 650 170 770 170 770> 280 190<90 90 160 170 170 650>
LayerCount: 2
Fore
SplineSet
220 170 m 2xbc
 220 650 l 1
 30 650 l 1
 30 155 l 2
 30 30 80 -15 155 -15 c 0xbc
 245 -15 280 90 280 90 c 1
 287 90 l 1
 300 0 l 1
 470 0 l 1x7c
 470 650 l 1
 280 650 l 1
 280 170 l 2
 280 150 270 135 250 135 c 0
 230 135 220 150 220 170 c 2xbc
30 690 m 1
 30 770 l 1
 470 770 l 1
 470 690 l 1
 30 690 l 1
EndSplineSet
EndChar

StartChar: Ubreve
Encoding: 364 364 343
Width: 520
Flags: MW
HStem: -15 155<248.5 271.5 248.5 342.5> 780 20G<30 230 230 230 290 490 490 490> 840 125<220 300 220 317.5> 840 180<100 317.5>
VStem: 30 200<210 800> 290 130 290 200<180 210 210 800>
LayerCount: 2
Fore
SplineSet
290 180 m 2xda
 290 800 l 1
 490 800 l 1
 490 210 l 2
 490 75 425 -15 260 -15 c 0
 95 -15 30 75 30 210 c 2
 30 800 l 1
 230 800 l 1
 230 180 l 2
 230 160 237 140 260 140 c 0
 283 140 290 160 290 180 c 2xda
350 1020 m 1
 420 1020 l 1
 420 1000 l 2
 420 905 375 840 260 840 c 0
 135 840 100 915 100 1000 c 2
 100 1020 l 1
 170 1020 l 1xdc
 170 1000 180 965 260 965 c 0xec
 340 965 350 1000 350 1020 c 1
EndSplineSet
EndChar

StartChar: ubreve
Encoding: 365 365 350
Width: 500
Flags: MW
HStem: -15 150<117.5 260> 0 21G<300 470 300 300> 630 20G<30 220 220 220 280 470 470 470> 690 125<210 290 210 307.5> 690 180<90 307.5>
VStem: 30 190<160 170 170 650> 280 130 280 190<90 90 170 650 0 650>
LayerCount: 2
Fore
SplineSet
220 650 m 1xb5
 220 170 l 2
 220 150 230 135 250 135 c 0xae
 270 135 280 150 280 170 c 2
 280 650 l 1
 470 650 l 1
 470 0 l 1
 300 0 l 1x75
 287 90 l 1
 280 90 l 1
 280 90 245 -15 155 -15 c 0
 80 -15 30 30 30 155 c 2
 30 650 l 1
 220 650 l 1xb5
340 870 m 1
 410 870 l 1
 410 850 l 2
 410 755 365 690 250 690 c 0
 125 690 90 765 90 850 c 2
 90 870 l 1
 160 870 l 1xae
 160 850 170 815 250 815 c 0xb6
 330 815 340 850 340 870 c 1
EndSplineSet
EndChar

StartChar: Uring
Encoding: 366 366 297
Width: 520
Flags: MW
HStem: -15 155<248.5 271.5 248.5 342.5> 780 20G<30 230 230 230 290 490 490 490> 840 100<248 272 248 310> 1060 100<248 272>
VStem: 30 200<210 800> 90 140 290 140 290 200<180 210 210 800>
LayerCount: 2
Fore
SplineSet
290 180 m 2xf9
 290 800 l 1
 490 800 l 1
 490 210 l 2
 490 75 425 -15 260 -15 c 0
 95 -15 30 75 30 210 c 2
 30 800 l 1
 230 800 l 1
 230 180 l 2
 230 160 237 140 260 140 c 0
 283 140 290 160 290 180 c 2xf9
295 990 m 2
 295 1010 l 2
 295 1042 284 1060 260 1060 c 0
 236 1060 225 1042 225 1010 c 2
 225 990 l 2
 225 958 236 940 260 940 c 0
 284 940 295 958 295 990 c 2
90 1000 m 0xf6
 90 1100 160 1160 260 1160 c 0
 360 1160 430 1100 430 1000 c 0
 430 900 360 840 260 840 c 0
 160 840 90 900 90 1000 c 0xf6
EndSplineSet
EndChar

StartChar: uring
Encoding: 367 367 303
Width: 500
Flags: MW
HStem: -15 150<117.5 260> 0 21G<300 470 470 470> 630 20G<30 220 30 30 280 280 280 470> 690 100<238 262 238 300> 790 130<238 262> 920 100<238 262>
VStem: 30 190<92.5 650 170 650 170 650> 215 70<824 870 840 870> 280 190<90 90 160 170 170 650> 420 50
LayerCount: 2
Fore
SplineSet
220 170 m 2xaa80
 220 650 l 1
 30 650 l 1
 30 155 l 2
 30 30 80 -15 155 -15 c 0xaa80
 245 -15 280 90 280 90 c 1
 287 90 l 1
 300 0 l 1
 470 0 l 1x6a80
 470 650 l 1
 280 650 l 1
 280 170 l 2
 280 150 270 135 250 135 c 0
 230 135 220 150 220 170 c 2xaa80
285 840 m 2xa940
 285 870 l 2
 285 902 274 920 250 920 c 0
 226 920 215 902 215 870 c 2
 215 840 l 2
 215 808 226 790 250 790 c 0
 274 790 285 808 285 840 c 2xa940
80 855 m 0
 80 960 150 1020 250 1020 c 0
 350 1020 420 960 420 855 c 0
 420 750 350 690 250 690 c 0xb640
 150 690 80 750 80 855 c 0
EndSplineSet
EndChar

StartChar: Uhungarumlaut
Encoding: 368 368 298
Width: 520
Flags: MW
HStem: -15 155<248.5 271.5 248.5 342.5> 780 20G<30 230 230 230 290 490 490 490> 840 230<150 190 80 325 280 280 280 325 350 390>
VStem: 30 200<210 800> 290 200<180 210 210 800>
LayerCount: 2
Fore
SplineSet
290 180 m 2
 290 800 l 1
 490 800 l 1
 490 210 l 2
 490 75 425 -15 260 -15 c 0
 95 -15 30 75 30 210 c 2
 30 800 l 1
 230 800 l 1
 230 180 l 2
 230 160 237 140 260 140 c 0
 283 140 290 160 290 180 c 2
325 1070 m 1
 190 840 l 1
 80 840 l 1
 150 1070 l 1
 325 1070 l 1
525 1070 m 1
 390 840 l 1
 280 840 l 1
 350 1070 l 1
 525 1070 l 1
EndSplineSet
EndChar

StartChar: uhungarumlaut
Encoding: 369 369 304
Width: 500
Flags: MW
HStem: -15 150<117.5 260> 0 21G<300 470 300 300> 630 20G<30 220 220 220 280 470 470 470> 690 230<140 180 70 315 270 270 270 315 340 380>
VStem: 30 190<160 170 170 650> 280 190<90 90 170 650 0 650>
LayerCount: 2
Fore
SplineSet
220 650 m 1xbc
 220 170 l 2
 220 150 230 135 250 135 c 0xbc
 270 135 280 150 280 170 c 2
 280 650 l 1
 470 650 l 1
 470 0 l 1
 300 0 l 1x7c
 287 90 l 1
 280 90 l 1
 280 90 245 -15 155 -15 c 0
 80 -15 30 30 30 155 c 2
 30 650 l 1
 220 650 l 1xbc
315 920 m 1
 180 690 l 1
 70 690 l 1
 140 920 l 1
 315 920 l 1
515 920 m 1
 380 690 l 1
 270 690 l 1
 340 920 l 1
 515 920 l 1
EndSplineSet
EndChar

StartChar: Uogonek
Encoding: 370 370 425
Width: 520
Flags: MW
HStem: -210 90<265 285 265 315> -210 150<300 315> -15 155 780 20G<30 230 230 230 290 490 490 490>
VStem: 30 200<210 800> 145 105<-91 -68.5> 290 110
LayerCount: 2
Fore
SplineSet
290 180 m 2xba
 290 800 l 1
 490 800 l 1
 490 210 l 2
 490 79 428 -10 274 -15 c 1
 262 -27 250 -47 250 -80 c 0
 250 -102 255 -120 275 -120 c 0xb6
 295 -120 300 -102 300 -80 c 2
 300 -60 l 1
 400 -60 l 1
 400 -90 l 2
 400 -165 355 -210 275 -210 c 0
 200 -210 145 -170 145 -95 c 0x76
 145 -42 164 -15 174 -5 c 1
 72 22 30 101 30 210 c 2
 30 800 l 1
 230 800 l 1
 230 180 l 2
 230 160 237 140 260 140 c 0
 283 140 290 160 290 180 c 2xba
EndSplineSet
EndChar

StartChar: uogonek
Encoding: 371 371 424
Width: 500
Flags: MW
HStem: -210 90<365 385 365 415> -210 150<400 415> -15 150<117.5 260> 0 21G<395 470 395 395> 630 20G<30 220 220 220 280 470 470 470>
VStem: 30 190<160 170 170 650> 245 105<-91 -57> 280 190<90 90 170 650>
LayerCount: 2
Fore
SplineSet
470 0 m 1x9d
 395 0 l 1
 395 0 350 -20 350 -80 c 0
 350 -102 355 -120 375 -120 c 0x9e
 395 -120 400 -102 400 -80 c 2
 400 -60 l 1
 500 -60 l 1
 500 -90 l 2
 500 -165 455 -210 375 -210 c 0
 300 -210 245 -170 245 -95 c 0x6e
 245 -19 293 12 295 14 c 1
 287 90 l 1
 280 90 l 1
 280 90 245 -15 155 -15 c 0
 80 -15 30 30 30 155 c 2
 30 650 l 1
 220 650 l 1
 220 170 l 2
 220 150 230 135 250 135 c 0xad
 270 135 280 150 280 170 c 2
 280 650 l 1
 470 650 l 1
 470 0 l 1x9d
EndSplineSet
EndChar

StartChar: Wcircumflex
Encoding: 372 372 386
Width: 820
Flags: MW
HStem: 0 21G<105 365 105 105 455 715 455 455> 780 20G<10 220 220 220 307 513 513 513 600 810 810 810> 840 210<335 340 180 485 480 485 335 640 480 480>
LayerCount: 2
Fore
SplineSet
600 800 m 1
 810 800 l 1
 715 0 l 1
 455 0 l 1
 415 438 l 1
 405 438 l 1
 365 0 l 1
 105 0 l 1
 10 800 l 1
 220 800 l 1
 245 270 l 1
 255 270 l 1
 307 800 l 1
 513 800 l 1
 565 270 l 1
 575 270 l 1
 600 800 l 1
180 860 m 1
 335 1050 l 1
 485 1050 l 1
 640 860 l 1
 640 840 l 1
 480 840 l 1
 415 940 l 1
 405 940 l 1
 340 840 l 1
 180 840 l 1
 180 860 l 1
EndSplineSet
EndChar

StartChar: wcircumflex
Encoding: 373 373 385
Width: 760
Flags: MW
HStem: 0 21G<92 331 92 92 429 668 429 429> 630 20G<10 200 200 200 290 470 470 470 560 750 750 750> 690 200<310 320 160 450 440 450 310 600 440 440>
LayerCount: 2
Fore
SplineSet
525 230 m 1
 535 230 l 1
 560 650 l 1
 750 650 l 1
 668 0 l 1
 429 0 l 1
 385 340 l 1
 375 340 l 1
 331 0 l 1
 92 0 l 1
 10 650 l 1
 200 650 l 1
 225 230 l 1
 235 230 l 1
 290 650 l 1
 470 650 l 1
 525 230 l 1
160 710 m 1
 310 890 l 1
 450 890 l 1
 600 710 l 1
 600 690 l 1
 440 690 l 1
 385 785 l 1
 375 785 l 1
 320 690 l 1
 160 690 l 1
 160 710 l 1
EndSplineSet
EndChar

StartChar: Ycircumflex
Encoding: 374 374 384
Width: 540
Flags: MW
HStem: 0 21G<157 383 157 157> 780 20G<10 220 220 220 320 530 530 530> 840 210<195 200 40 345 340 345 195 500 340 340>
VStem: 157 226<0 245 0 270>
LayerCount: 2
Fore
SplineSet
383 245 m 2
 383 0 l 1
 157 0 l 1
 157 245 l 2
 157 295 140 310 128 350 c 2
 10 755 l 1
 10 800 l 1
 220 800 l 1
 265 480 l 1
 275 480 l 1
 320 800 l 1
 530 800 l 1
 530 755 l 1
 412 350 l 2
 400 310 383 295 383 245 c 2
40 860 m 1
 195 1050 l 1
 345 1050 l 1
 500 860 l 1
 500 840 l 1
 340 840 l 1
 275 940 l 1
 265 940 l 1
 200 840 l 1
 40 840 l 1
 40 860 l 1
EndSplineSet
EndChar

StartChar: ycircumflex
Encoding: 375 375 383
Width: 515
Flags: MW
HStem: -160 160<30 135 30 205 30 135> 630 20G<10 210 210 210 305 505 505 505> 690 200<190 200 40 330 320 330 190 480 320 320>
LayerCount: 2
Fore
SplineSet
270 200 m 1
 305 650 l 1
 505 650 l 1
 425 120 l 2
 391 -103 355 -160 205 -160 c 2
 30 -160 l 1
 30 0 l 1
 135 0 l 1
 10 650 l 1
 210 650 l 1
 260 200 l 1
 270 200 l 1
40 710 m 1
 190 890 l 1
 330 890 l 1
 480 710 l 1
 480 690 l 1
 320 690 l 1
 265 785 l 1
 255 785 l 1
 200 690 l 1
 40 690 l 1
 40 710 l 1
EndSplineSet
EndChar

StartChar: Ydieresis
Encoding: 376 376 379
Width: 540
Flags: MW
HStem: 0 21G<157 383 157 157> 780 20G<10 220 220 220 320 530 530 530> 840 150<80 250 80 250 80 290 290 460>
VStem: 80 170<840 990 840 990> 157 226<0 245 0 270> 290 170<840 990 840 990>
LayerCount: 2
Fore
SplineSet
383 245 m 2xe8
 383 0 l 1
 157 0 l 1
 157 245 l 2
 157 295 140 310 128 350 c 2
 10 755 l 1
 10 800 l 1
 220 800 l 1
 265 480 l 1
 275 480 l 1
 320 800 l 1
 530 800 l 1
 530 755 l 1
 412 350 l 2
 400 310 383 295 383 245 c 2xe8
250 990 m 1xf4
 250 840 l 1
 80 840 l 1
 80 990 l 1
 250 990 l 1xf4
460 990 m 1
 460 840 l 1
 290 840 l 1
 290 990 l 1
 460 990 l 1
EndSplineSet
EndChar

StartChar: Zacute
Encoding: 377 377 288
Width: 470
Flags: MW
HStem: 0 180<20 20 225 450> 620 180<20 245 20 450 20 450> 840 230<220 280 150 415>
LayerCount: 2
Fore
SplineSet
20 0 m 1
 20 180 l 1
 245 620 l 1
 20 620 l 1
 20 800 l 1
 450 800 l 1
 450 620 l 1
 225 180 l 1
 450 180 l 1
 450 0 l 1
 20 0 l 1
415 1070 m 1
 280 840 l 1
 150 840 l 1
 220 1070 l 1
 415 1070 l 1
EndSplineSet
EndChar

StartChar: zacute
Encoding: 378 378 290
Width: 450
Flags: MW
HStem: 0 170<222 430 222 430> 480 170<20 228 20 430> 690 230<205 265 135 400>
LayerCount: 2
Fore
SplineSet
20 0 m 1
 20 165 l 1
 228 480 l 1
 20 480 l 1
 20 650 l 1
 430 650 l 1
 430 485 l 1
 222 170 l 1
 430 170 l 1
 430 0 l 1
 20 0 l 1
400 920 m 1
 265 690 l 1
 135 690 l 1
 205 920 l 1
 400 920 l 1
EndSplineSet
EndChar

StartChar: Zdotaccent
Encoding: 379 379 307
Width: 470
Flags: MW
HStem: 0 180<20 20 225 450> 620 180<20 245 20 450 20 450> 840 150<148 318 148 318>
VStem: 148 170<840 990 840 990>
LayerCount: 2
Fore
SplineSet
20 0 m 1
 20 180 l 1
 245 620 l 1
 20 620 l 1
 20 800 l 1
 450 800 l 1
 450 620 l 1
 225 180 l 1
 450 180 l 1
 450 0 l 1
 20 0 l 1
318 990 m 1
 318 840 l 1
 148 840 l 1
 148 990 l 1
 318 990 l 1
EndSplineSet
EndChar

StartChar: zdotaccent
Encoding: 380 380 305
Width: 450
Flags: MW
HStem: 0 170<222 430 222 430> 480 170<20 228 20 430> 690 160<138 313 138 313>
VStem: 138 175<690 850 690 850>
LayerCount: 2
Fore
SplineSet
20 0 m 1
 20 165 l 1
 228 480 l 1
 20 480 l 1
 20 650 l 1
 430 650 l 1
 430 485 l 1
 222 170 l 1
 430 170 l 1
 430 0 l 1
 20 0 l 1
138 850 m 1
 313 850 l 1
 313 690 l 1
 138 690 l 1
 138 850 l 1
EndSplineSet
EndChar

StartChar: Zcaron
Encoding: 381 381 313
Width: 470
Flags: MW
HStem: 0 180<20 20 225 450> 620 180<20 245 20 450 20 450> 841 200<162 167 307 312 162 162>
LayerCount: 2
Fore
SplineSet
20 0 m 1
 20 180 l 1
 245 620 l 1
 20 620 l 1
 20 800 l 1
 450 800 l 1
 450 620 l 1
 225 180 l 1
 450 180 l 1
 450 0 l 1
 20 0 l 1
467 1021 m 1
 312 841 l 1
 162 841 l 1
 7 1021 l 1
 7 1041 l 1
 167 1041 l 1
 232 951 l 1
 242 951 l 1
 307 1041 l 1
 467 1041 l 1
 467 1021 l 1
EndSplineSet
EndChar

StartChar: zcaron
Encoding: 382 382 324
Width: 450
Flags: MW
HStem: 0 170<222 430 222 430> 480 170<20 228 20 430> 690 200<155 165 285 295 155 155>
LayerCount: 2
Fore
SplineSet
20 0 m 1
 20 165 l 1
 228 480 l 1
 20 480 l 1
 20 650 l 1
 430 650 l 1
 430 485 l 1
 222 170 l 1
 430 170 l 1
 430 0 l 1
 20 0 l 1
445 870 m 1
 295 690 l 1
 155 690 l 1
 5 870 l 1
 5 890 l 1
 165 890 l 1
 220 795 l 1
 230 795 l 1
 285 890 l 1
 445 890 l 1
 445 870 l 1
EndSplineSet
EndChar

StartChar: Scommaaccent
Encoding: 536 536 326
Width: 496
Flags: MW
HStem: -390 100<153 183 153 193 153 248> -225 180<153 233 233 233> -15 165<236.5 259.5 236.5 330.5> 650 165<236.5 259.5>
VStem: 23 195<530 590 590 610> 278 200<190 220 220 310 150 610> 343 135
LayerCount: 2
Fore
SplineSet
18 300 m 1xfc
 218 300 l 1
 218 190 l 2
 218 170 225 150 248 150 c 0
 271 150 278 170 278 190 c 2
 278 220 l 2
 278 400 23 335 23 595 c 0
 23 720 91 815 246 815 c 0
 405 815 473 725 473 595 c 2
 473 535 l 1
 278 535 l 1
 278 610 l 2
 278 630 271 650 248 650 c 0
 225 650 218 630 218 610 c 2
 218 590 l 2
 218 470 478 495 478 225 c 0
 478 75 413 -15 248 -15 c 0
 83 -15 18 80 18 215 c 2
 18 300 l 1xfc
343 -215 m 2xfa
 343 -45 l 1
 153 -45 l 1
 153 -225 l 1
 233 -225 l 1
 233 -235 l 2
 233 -285 213 -290 153 -290 c 1
 153 -390 l 1
 193 -390 l 2
 303 -390 343 -340 343 -215 c 2xfa
EndSplineSet
EndChar

StartChar: scommaaccent
Encoding: 537 537 306
Width: 476
Flags: MW
HStem: -390 100<143 173 143 183 143 173> -225 180<143 223 143 333> -15 130<228 248 228 323> 425 240<268 323 160.5 453 268 268> 535 130<228 248>
VStem: 23 185<430 485 485 505> 143 190<-390 -215 -290 -215 -225 -215 -215 -45 -277.5 -45> 223 110<-235 -225 -225 -225> 268 190<145 170 170 235 122.5 505>
LayerCount: 2
Fore
SplineSet
238 115 m 0xec80
 258 115 268 128 268 145 c 2
 268 170 l 2
 268 300 23 280 23 475 c 0
 23 575 83 665 238 665 c 0
 408 665 453 560 453 495 c 2
 453 425 l 1
 268 425 l 1xf480
 268 505 l 2
 268 522 258 535 238 535 c 0
 218 535 208 522 208 505 c 2
 208 485 l 2
 208 375 458 385 458 175 c 0
 458 70 408 -15 238 -15 c 0
 68 -15 18 80 18 165 c 2
 18 240 l 1
 208 240 l 1
 208 145 l 2
 208 128 218 115 238 115 c 0xec80
333 -45 m 1xf2
 333 -215 l 2
 333 -340 293 -390 183 -390 c 2
 143 -390 l 1
 143 -290 l 1xf2
 203 -290 223 -285 223 -235 c 2
 223 -225 l 1xf5
 143 -225 l 1
 143 -45 l 1
 333 -45 l 1xf2
EndSplineSet
EndChar

StartChar: afii10023
Encoding: 1025 1025 179
Width: 430
Flags: MW
HStem: 0 180<230 410 230 410> 320 180<230 380 230 380> 620 180<230 410 230 230> 840 150<30 200 30 200 30 240 240 410>
VStem: 30 170<0 990 800 990 840 990 840 990> 30 200<180 320 180 500 500 620> 240 170<840 990>
LayerCount: 2
Fore
SplineSet
380 500 m 1xf6
 380 320 l 1
 230 320 l 1
 230 180 l 1
 410 180 l 1
 410 0 l 1
 30 0 l 1
 30 800 l 1
 410 800 l 1
 410 620 l 1
 230 620 l 1
 230 500 l 1
 380 500 l 1xf6
200 990 m 1xfa
 200 840 l 1
 30 840 l 1
 30 990 l 1
 200 990 l 1xfa
410 990 m 1
 410 840 l 1
 240 840 l 1
 240 990 l 1
 410 990 l 1
EndSplineSet
EndChar

StartChar: afii10051
Encoding: 1026 1026 214
Width: 610
Flags: MW
HStem: -10 21G<420 505> 0 21G<140 340 140 140 370 370> 415 150<360.5 502.5> 620 180<10 140 10 470 340 340 340 470>
VStem: 140 200<0 384 0 460 460 620> 370 220<137.5 140 140 140> 400 190<180 200 200 380 380 390>
LayerCount: 2
Fore
SplineSet
400 180 m 2xba
 400 380 l 2xba
 400 400 390 415 370 415 c 0
 351 415 341 402 340 384 c 1
 340 0 l 1
 140 0 l 1x7c
 140 620 l 1
 10 620 l 1
 10 800 l 1
 470 800 l 1
 470 620 l 1
 340 620 l 1
 340 460 l 1
 340 460 375 565 465 565 c 0
 540 565 590 520 590 395 c 2
 590 200 l 2
 590 75 565 -10 445 -10 c 0xbc
 395 -10 370 0 370 0 c 1
 370 140 l 1x7c
 370 140 400 133 400 180 c 2xba
EndSplineSet
EndChar

StartChar: afii10052
Encoding: 1027 1027 200
Width: 400
Flags: MW
HStem: 0 21G<30 230 30 30> 620 180<230 390 230 230> 840 230<200 260 130 395>
VStem: 30 200<0 620 0 800 0 800>
LayerCount: 2
Fore
SplineSet
30 800 m 1
 390 800 l 1
 390 620 l 1
 230 620 l 1
 230 0 l 1
 30 0 l 1
 30 800 l 1
395 1070 m 1
 260 840 l 1
 130 840 l 1
 200 1070 l 1
 395 1070 l 1
EndSplineSet
EndChar

StartChar: afii10053
Encoding: 1028 1028 188
Width: 500
Flags: MW
HStem: -15 165<238.5 261.5 238.5 332.5> 349 130<220 380 220 380> 650 165<238.5 261.5>
VStem: 20 200<235 349 479 565 565 610> 280 200<190 235 235 295 157.5 295 535 565>
LayerCount: 2
Fore
SplineSet
20 235 m 2
 20 565 l 2
 20 720 85 815 250 815 c 0
 415 815 480 720 480 565 c 2
 480 535 l 1
 280 535 l 1
 280 610 l 2
 280 630 273 650 250 650 c 0
 227 650 220 630 220 610 c 2
 220 479 l 1
 380 479 l 1
 380 349 l 1
 220 349 l 1
 220 190 l 2
 220 170 227 150 250 150 c 0
 273 150 280 170 280 190 c 2
 280 295 l 1
 480 295 l 1
 480 235 l 2
 480 80 415 -15 250 -15 c 0
 85 -15 20 80 20 235 c 2
EndSplineSet
EndChar

StartChar: uni0406
Encoding: 1030 1030 185
Width: 260
Flags: MW
HStem: 0 21G<30 230 30 30> 780 20G<30 230 230 230>
VStem: 30 200<0 800 0 800>
LayerCount: 2
Fore
SplineSet
230 800 m 1
 230 0 l 1
 30 0 l 1
 30 800 l 1
 230 800 l 1
EndSplineSet
EndChar

StartChar: afii10056
Encoding: 1031 1031 186
Width: 260
Flags: MW
HStem: 0 21G<30 230 30 30> 780 20G<30 230 230 230> 840 150<-55 110 -55 110 -55 150 150 315>
VStem: -55 165<840 990 840 990> 30 200<0 800 0 800> 150 165<840 990 840 990>
LayerCount: 2
Fore
SplineSet
230 800 m 1xe8
 230 0 l 1
 30 0 l 1
 30 800 l 1
 230 800 l 1xe8
110 990 m 1xf4
 110 840 l 1
 -55 840 l 1
 -55 990 l 1
 110 990 l 1xf4
315 990 m 1
 315 840 l 1
 150 840 l 1
 150 990 l 1
 315 990 l 1
EndSplineSet
EndChar

StartChar: afii10057
Encoding: 1032 1032 187
Width: 350
Flags: MW
HStem: -10 175<10 197.5> 780 20G<120 320 320 320>
VStem: 120 200<245 265 265 800>
LayerCount: 2
Fore
SplineSet
320 800 m 1
 320 265 l 2
 320 55 285 -10 110 -10 c 0
 50 -10 10 0 10 0 c 1
 10 165 l 1
 55 165 l 2
 90 165 120 175 120 245 c 2
 120 800 l 1
 320 800 l 1
EndSplineSet
EndChar

StartChar: afii10058
Encoding: 1033 1033 190
Width: 820
Flags: MW
HStem: -10 165 -10 180<10 180> 0 21G<10 10 340 590 340 340> 390 155<540 570 540 555> 620 180<280 340 280 280>
VStem: 105 175<520 620 292.5 800> 340 200<155 390 545 620 620 620> 600 200<205 210 210 310 310 325 135 342.5>
LayerCount: 2
Fore
SplineSet
590 0 m 2x3f
 340 0 l 1x3f
 340 620 l 1
 280 620 l 1
 280 480 l 2
 280 105 265 -10 95 -10 c 0x9f
 40 -10 10 0 10 0 c 1x3f
 10 170 l 1
 35 170 l 2x5f
 95 170 105 185 105 520 c 2
 105 800 l 1
 540 800 l 1
 540 545 l 1
 570 545 l 2
 700 545 800 500 800 325 c 2
 800 210 l 2
 800 60 730 0 590 0 c 2x3f
540 390 m 1
 540 155 l 1
 560 155 l 2x9f
 595 155 600 165 600 205 c 2
 600 310 l 2
 600 375 595 390 555 390 c 2
 540 390 l 1
EndSplineSet
EndChar

StartChar: afii10059
Encoding: 1034 1034 191
Width: 770
Flags: MW
HStem: 0 155<490 510 510 527.5 490 540> 340 180<230 290 230 290> 365 155<490 505> 780 20G<30 230 230 230 290 490 490 490>
VStem: 30 200<0 340 0 520 520 800> 290 200<155 340 340 340 520 800> 550 200<205 210 210 285 285 300 135 317.5>
CounterMasks: 1 0e
LayerCount: 2
Fore
SplineSet
540 0 m 2xde
 290 0 l 1
 290 340 l 1
 230 340 l 1
 230 0 l 1
 30 0 l 1
 30 800 l 1
 230 800 l 1
 230 520 l 1
 290 520 l 1
 290 800 l 1
 490 800 l 1
 490 520 l 1
 520 520 l 2
 650 520 750 475 750 300 c 2
 750 210 l 2
 750 60 680 0 540 0 c 2xde
490 365 m 1xbe
 490 155 l 1
 510 155 l 2
 545 155 550 165 550 205 c 2
 550 285 l 2
 550 350 545 365 505 365 c 2
 490 365 l 1xbe
EndSplineSet
EndChar

StartChar: afii10060
Encoding: 1035 1035 213
Width: 610
Flags: MW
HStem: 0 21G<140 340 140 140 400 590 400 400> 415 150<360.5 502.5> 620 180<10 140 10 470 340 340 340 470>
VStem: 140 200<0 384 0 460 460 620> 400 190<0 380 380 390>
LayerCount: 2
Fore
SplineSet
400 0 m 1
 400 380 l 2
 400 400 390 415 370 415 c 0
 351 415 341 402 340 384 c 1
 340 0 l 1
 140 0 l 1
 140 620 l 1
 10 620 l 1
 10 800 l 1
 470 800 l 1
 470 620 l 1
 340 620 l 1
 340 460 l 1
 340 460 375 565 465 565 c 0
 540 565 590 520 590 395 c 2
 590 0 l 1
 400 0 l 1
EndSplineSet
EndChar

StartChar: afii10062
Encoding: 1038 1038 195
Width: 540
Flags: MW
HStem: 0 175<35 125 35 270 35 125> 780 20G<10 220 220 220 320 530 530 530> 840 125<230 310 230 327.5> 840 180<110 327.5>
VStem: 302 128
LayerCount: 2
Fore
SplineSet
320 800 m 1xd8
 530 800 l 1
 440 210 l 2
 421 86 400 0 270 0 c 2
 35 0 l 1
 35 175 l 1
 125 175 l 1
 10 800 l 1
 220 800 l 1
 265 330 l 1
 285 330 l 1
 320 800 l 1xd8
360 1020 m 1
 430 1020 l 1
 430 1000 l 2
 430 905 385 840 270 840 c 0
 145 840 110 915 110 1000 c 2
 110 1020 l 1
 180 1020 l 1xd8
 180 1000 190 965 270 965 c 0xe8
 350 965 360 1000 360 1020 c 1
EndSplineSet
EndChar

StartChar: afii10145
Encoding: 1039 1039 189
Width: 520
Flags: MW
HStem: -150 21G<167 352 167 167> 0 21G<30 167 30 30 352 490 352 352> 780 20G<30 230 230 230 290 490 490 490>
VStem: 30 200<180 800 180 800 180 800> 167 185<-150 0 -150 0> 290 200<180 800 0 800>
LayerCount: 2
Fore
SplineSet
352 0 m 1xe8
 352 -150 l 1
 167 -150 l 1
 167 0 l 1xe8
 30 0 l 1
 30 800 l 1
 230 800 l 1
 230 180 l 1
 290 180 l 1
 290 800 l 1
 490 800 l 1
 490 0 l 1xf4
 352 0 l 1xe8
EndSplineSet
EndChar

StartChar: afii10017
Encoding: 1040 1040 67
Width: 556
Flags: MW
HStem: 0 21G<10 208 10 10 348 546 348 348> 130 170<237 318 237 335 221 318> 780 20G<136 420 420 420>
LayerCount: 2
Fore
SplineSet
348 0 m 1
 335 130 l 1
 221 130 l 1
 208 0 l 1
 10 0 l 1
 87 520 l 2
 126 780 136 800 136 800 c 1
 420 800 l 1
 420 800 430 780 469 520 c 2
 546 0 l 1
 348 0 l 1
268 610 m 1
 237 300 l 1
 318 300 l 1
 288 610 l 1
 268 610 l 1
EndSplineSet
EndChar

StartChar: afii10018
Encoding: 1041 1041 45
Width: 510
Flags: MW
HStem: 0 155<230 250 250 267.5 230 290> 365 155<230 260 230 245> 620 180<230 470 230 230>
VStem: 30 200<155 365 155 520 520 620> 290 200<0 200 205 285 285 300 125 317.5>
LayerCount: 2
Fore
SplineSet
230 365 m 1
 230 155 l 1
 250 155 l 2
 285 155 290 165 290 205 c 2
 290 285 l 2
 290 350 285 365 245 365 c 2
 230 365 l 1
30 800 m 1
 470 800 l 1
 470 620 l 1
 230 620 l 1
 230 520 l 1
 260 520 l 2
 420 520 490 475 490 300 c 2
 490 200 l 2
 490 50 420 0 290 0 c 2
 30 0 l 1
 30 800 l 1
EndSplineSet
EndChar

StartChar: afii10019
Encoding: 1042 1042 64
Width: 508
Flags: MW
HStem: 0 21G<30 280 30 30> 340 145<230 245 230 245 245 250> 780 20G<30 265 265 347.5>
VStem: 30 200<155 340 155 485 485 640> 290 200<185 210 210 252 140 285 140 307.5>
LayerCount: 2
Fore
SplineSet
280 0 m 2
 30 0 l 1
 30 800 l 1
 265 800 l 2
 430 800 480 710 480 590 c 0
 480 440 400 422 400 422 c 1
 390 422 l 1
 390 412 l 1
 400 412 l 1
 400 412 490 397 490 252 c 2
 490 210 l 2
 490 70 440 0 280 0 c 2
230 340 m 1
 230 155 l 1
 260 155 l 2
 280 155 290 168 290 185 c 2
 290 285 l 2
 290 330 285 340 250 340 c 2
 230 340 l 1
230 640 m 1
 230 485 l 1
 245 485 l 2
 280 485 285 500 285 540 c 2
 285 610 l 2
 285 627 275 640 255 640 c 2
 230 640 l 1
EndSplineSet
EndChar

StartChar: afii10020
Encoding: 1043 1043 14
Width: 400
Flags: MW
HStem: 0 21G<30 230 30 30> 620 180<230 390 230 230>
VStem: 30 200<0 620 0 800 0 800>
LayerCount: 2
Fore
SplineSet
30 800 m 1
 390 800 l 1
 390 620 l 1
 230 620 l 1
 230 0 l 1
 30 0 l 1
 30 800 l 1
EndSplineSet
EndChar

StartChar: afii10021
Encoding: 1044 1044 104
Width: 645
Flags: MW
HStem: -90 21G<10 190 10 10 455 635 455 455> 40 160<265 365 10 190> 620 180<305 365 305 305>
VStem: 10 180<-90 40 -90 200 -90 200> 125 180<545 560 560 620 395 800> 365 200<200 620 620 620> 455 180<-90 40 40 40>
LayerCount: 2
Fore
SplineSet
635 200 m 1xf2
 635 -90 l 1
 455 -90 l 1
 455 40 l 1
 190 40 l 1
 190 -90 l 1
 10 -90 l 1
 10 200 l 1xf2
 75 200 l 1
 75 200 125 220 125 545 c 2
 125 800 l 1
 565 800 l 1
 565 200 l 1xec
 635 200 l 1xf2
365 200 m 1xec
 365 620 l 1
 305 620 l 1
 305 560 l 2
 305 230 265 200 265 200 c 1
 365 200 l 1xec
EndSplineSet
EndChar

StartChar: afii10024
Encoding: 1046 1046 58
Width: 770
Flags: MW
HStem: 0 21G<10 210 10 10 285 485 285 285 560 760 560 560> 325 170<265 280 280 285 485 490> 780 20G<15 210>
VStem: 37 195<600 605 605 635 565 702.5> 285 200<0 325 0 325 495 800> 535 200<165 245 245 250 97.5 270>
LayerCount: 2
Fore
SplineSet
285 800 m 1
 485 800 l 1
 485 495 l 1
 525 495 538 525 538 605 c 2
 538 635 l 2
 538 790 560 800 560 800 c 1
 755 800 l 1
 755 780 l 1
 755 780 733 770 733 635 c 2
 733 600 l 2
 733 430 645 420 645 420 c 1
 635 420 l 1
 635 410 l 1
 645 410 l 1
 645 410 735 405 735 250 c 2
 735 165 l 2
 735 30 760 20 760 20 c 1
 760 0 l 1
 560 0 l 1
 560 0 535 10 535 165 c 2
 535 245 l 2
 535 295 530 325 490 325 c 2
 485 325 l 1
 485 0 l 1
 285 0 l 1
 285 325 l 1
 280 325 l 2
 240 325 235 295 235 245 c 2
 235 165 l 2
 235 10 210 0 210 0 c 1
 10 0 l 1
 10 20 l 1
 10 20 35 30 35 165 c 2
 35 250 l 2
 35 405 125 410 125 410 c 1
 135 410 l 1
 135 420 l 1
 125 420 l 1
 125 420 37 430 37 600 c 2
 37 635 l 2
 37 770 15 780 15 780 c 1
 15 800 l 1
 210 800 l 1
 210 800 232 790 232 635 c 2
 232 605 l 2
 232 525 245 495 285 495 c 1
 285 800 l 1
EndSplineSet
EndChar

StartChar: afii10025
Encoding: 1047 1047 108
Width: 500
Flags: MW
HStem: -15 165<238.5 261.5 238.5 332.5> 350 140<160 230 160 235> 650 165<238.5 261.5>
VStem: 25 195<540 595 595 610> 280 195<560 610 610 620>
LayerCount: 2
Fore
SplineSet
480 270 m 2
 480 215 l 2
 480 70 415 -15 250 -15 c 0
 85 -15 20 70 20 215 c 2
 20 300 l 1
 220 300 l 1
 220 190 l 2
 220 170 227 150 250 150 c 0
 273 150 280 170 280 190 c 2
 280 280 l 2
 280 330 280 350 230 350 c 2
 160 350 l 1
 160 490 l 1
 235 490 l 2
 275 490 280 505 280 560 c 2
 280 610 l 2
 280 630 273 650 250 650 c 0
 227 650 220 630 220 610 c 2
 220 540 l 1
 25 540 l 1
 25 595 l 2
 25 720 90 815 250 815 c 0
 415 815 475 715 475 595 c 0
 475 450 395 425 395 425 c 1
 385 425 l 1
 385 415 l 1
 395 415 l 1
 395 415 480 405 480 270 c 2
EndSplineSet
EndChar

StartChar: afii10026
Encoding: 1048 1048 46
Width: 533
Flags: MW
HStem: 0 21G<30 208 30 30 303 503 303 303> 780 20G<30 230 230 230 325 503 503 503>
VStem: 30 190 313 190
LayerCount: 2
Fore
SplineSet
325 800 m 1
 503 800 l 1
 503 0 l 1
 303 0 l 1
 323 389 l 1
 208 0 l 1
 30 0 l 1
 30 800 l 1
 230 800 l 1
 210 391 l 1
 325 800 l 1
EndSplineSet
EndChar

StartChar: afii10027
Encoding: 1049 1049 68
Width: 533
Flags: MW
HStem: 0 21G<30 208 30 30 303 503 303 303> 780 20G<30 230 230 230 325 503 503 503> 840 125<235 315 235 332.5> 840 180<115 332.5>
VStem: 30 190 313 190
LayerCount: 2
Fore
SplineSet
325 800 m 1xdc
 503 800 l 1
 503 0 l 1
 303 0 l 1
 323 389 l 1
 208 0 l 1
 30 0 l 1
 30 800 l 1
 230 800 l 1
 210 391 l 1
 325 800 l 1xdc
365 1020 m 1
 435 1020 l 1
 435 1000 l 2
 435 905 390 840 275 840 c 0
 150 840 115 915 115 1000 c 2
 115 1020 l 1
 185 1020 l 1xdc
 185 1000 195 965 275 965 c 0xec
 355 965 365 1000 365 1020 c 1
EndSplineSet
EndChar

StartChar: afii10028
Encoding: 1050 1050 57
Width: 525
Flags: MW
HStem: 0 21G<30 230 30 30 315 515 315 315> 325 170<230 240 240 245 230 240> 780 20G<507 507>
VStem: 30 200<0 325 495 800> 290 200<165 245 245 250 97.5 270>
LayerCount: 2
Fore
SplineSet
30 800 m 1
 230 800 l 1
 230 495 l 1
 240 495 l 2
 280 495 290 525 290 605 c 2
 290 635 l 2
 290 790 312 800 312 800 c 1
 507 800 l 1
 507 780 l 1
 507 780 485 770 485 635 c 2
 485 600 l 2
 485 430 400 420 400 420 c 1
 390 420 l 1
 390 410 l 1
 400 410 l 1
 400 410 490 405 490 250 c 2
 490 165 l 2
 490 30 515 20 515 20 c 1
 515 0 l 1
 315 0 l 1
 315 0 290 10 290 165 c 2
 290 245 l 2
 290 295 285 325 245 325 c 2
 230 325 l 1
 230 0 l 1
 30 0 l 1
 30 800 l 1
EndSplineSet
EndChar

StartChar: afii10029
Encoding: 1051 1051 103
Width: 570
Flags: MW
HStem: -10 180<10 180> 0 21G<10 10 340 540 340 340> 620 180<280 340 280 280>
VStem: 105 175<520 620 292.5 800> 340 200<0 620 620 620>
LayerCount: 2
Fore
SplineSet
105 800 m 1xb8
 540 800 l 1
 540 0 l 1
 340 0 l 1x78
 340 620 l 1
 280 620 l 1
 280 480 l 2
 280 105 265 -10 95 -10 c 0xb8
 40 -10 10 0 10 0 c 1x78
 10 170 l 1
 35 170 l 2
 95 170 105 185 105 520 c 2
 105 800 l 1xb8
EndSplineSet
EndChar

StartChar: afii10030
Encoding: 1052 1052 51
Width: 730
Flags: MW
HStem: 0 21G<15 200 15 15 290 290 290 440 530 530 530 715> 780 20G<67 280 280 280 450 663 663 663>
VStem: 41 164 525 164
LayerCount: 2
Fore
SplineSet
220 380 m 1
 210 380 l 1
 200 0 l 1
 15 0 l 1
 67 800 l 1
 280 800 l 1
 360 375 l 1
 370 375 l 1
 450 800 l 1
 663 800 l 1
 715 0 l 1
 530 0 l 1
 520 380 l 1
 510 380 l 1
 440 0 l 1
 290 0 l 1
 220 380 l 1
EndSplineSet
EndChar

StartChar: afii10033
Encoding: 1055 1055 4
Width: 520
Flags: MW
HStem: 0 21G<30 230 30 30 290 490 290 290> 620 180<230 290 230 230>
VStem: 30 200<0 620 0 800 0 800> 290 200<0 620 620 620>
LayerCount: 2
Fore
SplineSet
30 800 m 1
 490 800 l 1
 490 0 l 1
 290 0 l 1
 290 620 l 1
 230 620 l 1
 230 0 l 1
 30 0 l 1
 30 800 l 1
EndSplineSet
EndChar

StartChar: afii10034
Encoding: 1056 1056 25
Width: 508
Flags: MW
HStem: 0 21G<30 230 30 30> 645 155<230 250 230 230>
VStem: 30 200<0 290 440 645> 290 200<490 510 510 580 447.5 595 447.5 615>
LayerCount: 2
Fore
SplineSet
290 490 m 2
 290 595 l 2
 290 635 285 645 250 645 c 2
 230 645 l 1
 230 440 l 1
 250 440 l 2
 280 440 290 455 290 490 c 2
30 800 m 1
 270 800 l 2
 430 800 490 720 490 580 c 2
 490 510 l 2
 490 385 440 290 280 290 c 2
 230 290 l 1
 230 0 l 1
 30 0 l 1
 30 800 l 1
EndSplineSet
EndChar

StartChar: afii10035
Encoding: 1057 1057 7
Width: 500
Flags: MW
HStem: -15 165<238.5 261.5 238.5 332.5> 650 165<238.5 261.5>
VStem: 20 200<235 565 565 610> 280 200<190 235 235 340 157.5 340 480 565>
LayerCount: 2
Fore
SplineSet
20 235 m 2
 20 565 l 2
 20 720 85 815 250 815 c 0
 415 815 480 720 480 565 c 2
 480 480 l 1
 280 480 l 1
 280 610 l 2
 280 630 273 650 250 650 c 0
 227 650 220 630 220 610 c 2
 220 190 l 2
 220 170 227 150 250 150 c 0
 273 150 280 170 280 190 c 2
 280 340 l 1
 480 340 l 1
 480 235 l 2
 480 80 415 -15 250 -15 c 0
 85 -15 20 80 20 235 c 2
EndSplineSet
EndChar

StartChar: afii10036
Encoding: 1058 1058 9
Width: 480
Flags: MW
HStem: 0 21G<140 340 140 140> 620 180<10 140 10 470 340 470 340 340>
VStem: 140 200<0 620 0 620>
LayerCount: 2
Fore
SplineSet
10 800 m 1
 470 800 l 1
 470 620 l 1
 340 620 l 1
 340 0 l 1
 140 0 l 1
 140 620 l 1
 10 620 l 1
 10 800 l 1
EndSplineSet
EndChar

StartChar: afii10037
Encoding: 1059 1059 115
Width: 540
Flags: MW
HStem: 0 175<35 125 35 270 35 125> 780 20G<10 220 220 220 320 530 530 530>
LayerCount: 2
Fore
SplineSet
320 800 m 1
 530 800 l 1
 440 210 l 2
 421 86 400 0 270 0 c 2
 35 0 l 1
 35 175 l 1
 125 175 l 1
 10 800 l 1
 220 800 l 1
 265 330 l 1
 285 330 l 1
 320 800 l 1
EndSplineSet
EndChar

StartChar: afii10038
Encoding: 1060 1060 90
Width: 690
Flags: MW
HStem: 0 21G<245 445 245 245> 120 150<150 245 240 245 240 245 445 450 450 455> 530 150<235 240 240 245 445 450> 780 20G<245 445 445 445>
VStem: 0 190<385 415 415 430 342.5 490> 245 200<0 120 0 120 270 530 680 800> 500 190<370 385 385 415 310 430 310 457.5>
CounterMasks: 1 0e
LayerCount: 2
Fore
SplineSet
245 680 m 1
 245 800 l 1
 445 800 l 1
 445 680 l 1
 455 680 l 2
 625 680 690 565 690 415 c 2
 690 385 l 2
 690 235 625 120 455 120 c 2
 445 120 l 1
 445 0 l 1
 245 0 l 1
 245 120 l 1
 235 120 l 2
 65 120 0 235 0 385 c 2
 0 415 l 2
 0 565 65 680 235 680 c 2
 245 680 l 1
245 270 m 1
 245 530 l 1
 240 530 l 2
 200 530 190 485 190 430 c 2
 190 370 l 2
 190 315 200 270 240 270 c 2
 245 270 l 1
445 530 m 1
 445 270 l 1
 450 270 l 2
 490 270 500 315 500 370 c 2
 500 430 l 2
 500 485 490 530 450 530 c 2
 445 530 l 1
EndSplineSet
EndChar

StartChar: afii10039
Encoding: 1061 1061 72
Width: 560
Flags: MW
HStem: 0 21G<10 225 10 10 335 550 335 335> 780 20G<10 225 225 225 335 550 550 550>
LayerCount: 2
Fore
SplineSet
135 410 m 1
 10 800 l 1
 225 800 l 1
 275 585 l 1
 285 585 l 1
 335 800 l 1
 550 800 l 1
 425 410 l 1
 550 0 l 1
 335 0 l 1
 285 235 l 1
 275 235 l 1
 225 0 l 1
 10 0 l 1
 135 410 l 1
EndSplineSet
EndChar

StartChar: afii10040
Encoding: 1062 1062 92
Width: 575
Flags: MW
HStem: -130 21G<380 565 380 380> 0 180<230 290 230 380> 780 20G<30 230 230 230 290 490 490 490>
VStem: 30 200<180 800 180 800 180 800> 290 200<180 800 180 800> 380 185<-130 0 0 0>
LayerCount: 2
Fore
SplineSet
565 180 m 1xf4
 565 -130 l 1
 380 -130 l 1
 380 0 l 1xf4
 30 0 l 1
 30 800 l 1
 230 800 l 1
 230 180 l 1
 290 180 l 1
 290 800 l 1
 490 800 l 1
 490 180 l 1xf8
 565 180 l 1xf4
EndSplineSet
EndChar

StartChar: afii10041
Encoding: 1063 1063 100
Width: 510
Flags: MW
HStem: 0 21G<280 480 280 280> 265 160<132.5 260> 780 20G<20 220 220 220 280 480 480 480>
VStem: 20 200<450 460 460 800> 280 200<0 309 309 309 460 800 0 800>
LayerCount: 2
Fore
SplineSet
220 800 m 1
 220 460 l 2
 220 440 230 425 250 425 c 0
 270 425 280 440 280 460 c 2
 280 800 l 1
 480 800 l 1
 480 0 l 1
 280 0 l 1
 280 309 l 1
 277 305 251 265 175 265 c 0
 90 265 20 310 20 445 c 2
 20 800 l 1
 220 800 l 1
EndSplineSet
EndChar

StartChar: afii10042
Encoding: 1064 1064 15
Width: 770
Flags: MW
HStem: 0 180<230 285 485 540> 780 20G<30 230 230 230 285 485 485 485 540 740 740 740>
VStem: 30 200<180 800 180 800 180 800> 285 200<180 800 180 800> 540 200<180 800>
CounterMasks: 1 38
LayerCount: 2
Fore
SplineSet
740 0 m 1
 30 0 l 1
 30 800 l 1
 230 800 l 1
 230 180 l 1
 285 180 l 1
 285 800 l 1
 485 800 l 1
 485 180 l 1
 540 180 l 1
 540 800 l 1
 740 800 l 1
 740 0 l 1
EndSplineSet
EndChar

StartChar: afii10043
Encoding: 1065 1065 91
Width: 825
Flags: MW
HStem: -130 21G<630 815 630 630> 0 180<230 285 485 540> 780 20G<30 230 230 230 285 485 485 485 540 740 740 740>
VStem: 30 200<180 800 180 800 180 800> 285 200<180 800 180 800> 540 200<180 800 180 800> 630 185<-130 0 0 0>
LayerCount: 2
Fore
SplineSet
815 180 m 1xfa
 815 -130 l 1
 630 -130 l 1
 630 0 l 1xfa
 30 0 l 1
 30 800 l 1
 230 800 l 1
 230 180 l 1
 285 180 l 1
 285 800 l 1
 485 800 l 1
 485 180 l 1
 540 180 l 1
 540 800 l 1
 740 800 l 1
 740 180 l 1xfc
 815 180 l 1xfa
EndSplineSet
EndChar

StartChar: afii10044
Encoding: 1066 1066 28
Width: 590
Flags: MW
HStem: 0 155<310 330 330 347.5 310 360> 390 155<310 340 310 325> 620 180<10 110 10 310>
VStem: 110 200<155 390 545 620 620 620> 370 200<205 210 210 310 310 325 135 342.5>
LayerCount: 2
Fore
SplineSet
360 0 m 2
 110 0 l 1
 110 620 l 1
 10 620 l 1
 10 800 l 1
 310 800 l 1
 310 545 l 1
 340 545 l 2
 470 545 570 500 570 325 c 2
 570 210 l 2
 570 60 500 0 360 0 c 2
310 390 m 1
 310 155 l 1
 330 155 l 2
 365 155 370 165 370 205 c 2
 370 310 l 2
 370 375 365 390 325 390 c 2
 310 390 l 1
EndSplineSet
EndChar

StartChar: afii10046
Encoding: 1068 1068 26
Width: 510
Flags: MW
HStem: 0 155<230 250 250 267.5 230 280> 390 155<230 260 230 245> 780 20G<30 230 230 230>
VStem: 30 200<155 390 155 545 545 800> 290 200<205 210 210 310 310 325 135 342.5>
LayerCount: 2
Fore
SplineSet
230 390 m 1
 230 155 l 1
 250 155 l 2
 285 155 290 165 290 205 c 2
 290 310 l 2
 290 375 285 390 245 390 c 2
 230 390 l 1
280 0 m 2
 30 0 l 1
 30 800 l 1
 230 800 l 1
 230 545 l 1
 260 545 l 2
 390 545 490 500 490 325 c 2
 490 210 l 2
 490 60 420 0 280 0 c 2
EndSplineSet
EndChar

StartChar: afii10048
Encoding: 1070 1070 16
Width: 760
Flags: MW
HStem: -15 165<498.5 521.5 498.5 592.5> 0 21G<30 230 30 30> 650 165<498.5 521.5> 780 20G<30 230 230 230>
VStem: 30 200<0 320 0 500 500 800> 280 200<235 320 320 320 500 565 565 610> 540 200<190 235 235 565>
LayerCount: 2
Fore
SplineSet
280 500 m 1x5e
 280 565 l 2
 280 720 345 815 510 815 c 0
 675 815 740 720 740 565 c 2
 740 235 l 2
 740 80 675 -15 510 -15 c 0xae
 345 -15 280 80 280 235 c 2
 280 320 l 1
 230 320 l 1
 230 0 l 1
 30 0 l 1
 30 800 l 1
 230 800 l 1
 230 500 l 1
 280 500 l 1x5e
510 150 m 0
 533 150 540 170 540 190 c 2
 540 610 l 2
 540 630 533 650 510 650 c 0
 487 650 480 630 480 610 c 2
 480 190 l 2
 480 170 487 150 510 150 c 0
EndSplineSet
EndChar

StartChar: afii10049
Encoding: 1071 1071 55
Width: 520
Flags: MW
HStem: 0 21G<10 210 10 10 290 490 290 290> 300 165<265 290> 780 20G<245 490 490 490>
VStem: 30 200<165 195 195 200 87.5 277.5 565 575> 290 200<0 300 300 300 465 645 645 645>
LayerCount: 2
Fore
SplineSet
490 800 m 1
 490 0 l 1
 290 0 l 1
 290 300 l 1
 240 300 230 277 230 200 c 2
 230 165 l 2
 230 10 210 0 210 0 c 1
 10 0 l 1
 10 20 l 1
 10 20 30 30 30 165 c 2
 30 195 l 2
 30 360 120 380 120 380 c 1
 140 380 l 1
 140 390 l 1
 120 390 l 1
 120 390 30 420 30 565 c 2
 30 585 l 2
 30 710 85 800 245 800 c 2
 490 800 l 1
230 575 m 2
 230 560 l 2
 230 490 240 465 290 465 c 1
 290 645 l 1
 285 645 l 2
 245 645 230 630 230 575 c 2
EndSplineSet
EndChar

StartChar: afii10065
Encoding: 1072 1072 79
Width: 498
Flags: MW
HStem: -10 145<122.5 260.5> 0 21G<298 468 298 298> 430 235<175.5 218 28 328> 535 130<238 258>
VStem: 18 190<175 227.5 175 247.5> 278 190<70 70 195 325 325 325 414 475 0 505 0 513.5>
LayerCount: 2
Fore
SplineSet
288 70 m 1x6c
 278 70 l 1
 278 70 255 -10 165 -10 c 0
 80 -10 18 50 18 165 c 0
 18 330 165 363 258 405 c 2
 278 414 l 1
 278 505 l 2
 278 522 268 535 248 535 c 0x9c
 228 535 218 522 218 505 c 2
 218 430 l 1
 28 430 l 1
 28 465 l 2
 28 590 103 665 248 665 c 0
 408 665 468 595 468 475 c 2
 468 0 l 1
 298 0 l 1
 288 70 l 1x6c
278 195 m 2
 278 325 l 1
 253 305 l 2
 225 283 208 255 208 200 c 0
 208 150 226 135 246 135 c 0
 275 135 278 165 278 195 c 2
EndSplineSet
EndChar

StartChar: afii10066
Encoding: 1073 1073 106
Width: 480
Flags: MW
HStem: -15 130<230 250 230 322.5> 490 125<230 357.5> 650 150<240 290 280 290 290 300> 650 195<240 460 270 460>
VStem: 20 140<215 590 550 590 550 605> 20 190<215 455> 270 190<147.5 215 215 430>
LayerCount: 2
Fore
SplineSet
20 215 m 2xea
 20 500 l 2
 20 710 90 800 280 800 c 2
 290 800 l 2xea
 340 800 370 810 370 845 c 1
 460 845 l 1xda
 460 810 l 2
 460 730 450 650 300 650 c 2
 270 650 l 2
 210 650 160 630 160 550 c 1
 180 550 l 1
 180 550 205 615 300 615 c 0
 415 615 460 545 460 430 c 2
 460 215 l 2
 460 80 405 -15 240 -15 c 0
 75 -15 20 80 20 215 c 2xea
210 455 m 2xe6
 210 145 l 2
 210 128 220 115 240 115 c 0
 260 115 270 128 270 145 c 2
 270 455 l 2
 270 475 260 490 240 490 c 0
 220 490 210 475 210 455 c 2xe6
EndSplineSet
EndChar

StartChar: afii10067
Encoding: 1074 1074 89
Width: 480
Flags: MW
HStem: 0 21G<30 30 30 275> 630 20G<30 270 270 335>
VStem: 30 190<140 265 140 395 395 510> 275 175 275 190<0 255 170 235 235 245>
LayerCount: 2
Fore
SplineSet
30 0 m 1xe8
 30 650 l 1
 270 650 l 2
 400 650 450 590 450 480 c 0xf0
 450 360 375 345 375 345 c 1
 365 345 l 1
 365 335 l 1
 375 335 l 1
 375 335 465 320 465 190 c 0
 465 75 425 0 275 0 c 2
 30 0 l 1xe8
220 265 m 1
 220 140 l 1
 245 140 l 2
 265 140 275 150 275 170 c 2
 275 235 l 2
 275 255 265 265 245 265 c 2
 220 265 l 1
270 425 m 2
 270 480 l 2
 270 500 260 510 240 510 c 2
 220 510 l 1
 220 395 l 1
 240 395 l 2
 260 395 270 405 270 425 c 2
EndSplineSet
EndChar

StartChar: afii10068
Encoding: 1075 1075 20
Width: 380
Flags: MW
HStem: 0 21G<30 220 30 30> 490 160<220 370 220 220>
VStem: 30 190<0 490 0 650 0 650>
LayerCount: 2
Fore
SplineSet
30 650 m 1
 370 650 l 1
 370 490 l 1
 220 490 l 1
 220 0 l 1
 30 0 l 1
 30 650 l 1
EndSplineSet
EndChar

StartChar: afii10069
Encoding: 1076 1076 105
Width: 605
Flags: MW
HStem: -100 21G<10 180 10 10 425 595 425 425> 20 150<245 335 10 180> 630 20G<120 525 525 525>
VStem: 10 170<-100 20 -100 170 -100 170> 120 165<465 480 317.5 650> 335 190<170 480 480 480> 425 170<-100 20 20 20>
LayerCount: 2
Fore
SplineSet
595 170 m 1xf2
 595 -100 l 1
 425 -100 l 1
 425 20 l 1
 180 20 l 1
 180 -100 l 1
 10 -100 l 1
 10 170 l 1xf2
 65 170 l 1
 65 170 120 220 120 465 c 2
 120 650 l 1
 525 650 l 1
 525 170 l 1xec
 595 170 l 1xf2
335 170 m 1xec
 335 480 l 1
 285 480 l 1
 285 410 l 2
 285 225 245 170 245 170 c 1
 335 170 l 1xec
EndSplineSet
EndChar

StartChar: afii10070
Encoding: 1077 1077 35
Width: 480
Flags: MW
HStem: -15 130<230 250 230 322.5> 310 90<210 270 210 460 210 270> 535 130<230 250>
VStem: 20 190<215 310 400 435 435 502.5> 270 190<147.5 215 215 255 147.5 255 400 435>
LayerCount: 2
Fore
SplineSet
240 115 m 0
 260 115 270 128 270 145 c 2
 270 255 l 1
 460 255 l 1
 460 215 l 2
 460 80 405 -15 240 -15 c 0
 75 -15 20 80 20 215 c 2
 20 435 l 2
 20 570 75 665 240 665 c 0
 405 665 460 570 460 435 c 2
 460 310 l 1
 210 310 l 1
 210 145 l 2
 210 128 220 115 240 115 c 0
270 400 m 1
 270 505 l 2
 270 522 260 535 240 535 c 0
 220 535 210 522 210 505 c 2
 210 400 l 1
 270 400 l 1
EndSplineSet
EndChar

StartChar: afii10072
Encoding: 1078 1078 88
Width: 720
Flags: MW
HStem: 0 21G<10 200 10 10 265 455 265 265 520 710 520 520> 255 150<247.5 260 260 265 455 460> 630 20G<10 200>
VStem: 30 190<165 205 87.5 210 87.5 272.5 460 562.5> 265 190<0 255 0 255 405 650> 500 190<165 205 205 210 97.5 222.5 460 562.5>
CounterMasks: 1 1c
LayerCount: 2
Fore
SplineSet
265 650 m 1
 455 650 l 1
 455 405 l 1
 490 405 500 420 500 500 c 0
 500 640 520 650 520 650 c 1
 710 650 l 1
 710 630 l 1
 710 630 690 615 690 510 c 0
 690 350 605 345 605 345 c 1
 595 345 l 1
 595 335 l 1
 605 335 l 1
 605 335 690 335 690 210 c 2
 690 165 l 2
 690 30 710 20 710 20 c 1
 710 0 l 1
 520 0 l 1
 520 0 500 10 500 165 c 2
 500 205 l 2
 500 240 500 255 460 255 c 2
 455 255 l 1
 455 0 l 1
 265 0 l 1
 265 255 l 1
 260 255 l 2
 220 255 220 240 220 205 c 2
 220 165 l 2
 220 10 200 0 200 0 c 1
 10 0 l 1
 10 20 l 1
 10 20 30 30 30 165 c 2
 30 210 l 2
 30 335 115 335 115 335 c 1
 125 335 l 1
 125 345 l 1
 115 345 l 1
 115 345 30 350 30 510 c 0
 30 615 10 630 10 630 c 1
 10 650 l 1
 200 650 l 1
 200 650 220 640 220 500 c 0
 220 420 230 405 265 405 c 1
 265 650 l 1
EndSplineSet
EndChar

StartChar: afii10073
Encoding: 1079 1079 113
Width: 480
Flags: MW
HStem: -15 130<230 250 230 322.5> 280 110<165 230 165 230> 425 240<162.5 210 20 317.5> 535 130<230 250>
VStem: 20 190<185 240 136.5 240 425 465 465 505> 270 190<145 210 210 235 460 505 505 513.5>
LayerCount: 2
Fore
SplineSet
210 505 m 2xdc
 210 425 l 1
 20 425 l 1xec
 20 465 l 2
 20 580 85 665 240 665 c 0
 395 665 460 585 460 475 c 0
 460 365 385 345 385 345 c 1
 375 345 l 1
 375 335 l 1
 385 335 l 1
 385 335 460 315 460 190 c 0
 460 65 405 -15 240 -15 c 0
 85 -15 20 70 20 185 c 2
 20 240 l 1
 210 240 l 1
 210 145 l 2
 210 128 220 115 240 115 c 0
 260 115 270 128 270 145 c 2
 270 210 l 2
 270 260 270 280 230 280 c 2
 165 280 l 1
 165 390 l 1
 230 390 l 2
 270 390 270 410 270 460 c 2
 270 505 l 2
 270 522 260 535 240 535 c 0
 220 535 210 522 210 505 c 2xdc
EndSplineSet
EndChar

StartChar: afii10074
Encoding: 1080 1080 47
Width: 510
Flags: MW
HStem: 0 21G<30 200 30 30 290 480 290 290> 630 20G<30 220 220 220 310 480 480 480>
VStem: 30 180 300 180
LayerCount: 2
Fore
SplineSet
310 650 m 1
 480 650 l 1
 480 0 l 1
 290 0 l 1
 310 310 l 1
 200 0 l 1
 30 0 l 1
 30 650 l 1
 220 650 l 1
 200 320 l 1
 310 650 l 1
EndSplineSet
EndChar

StartChar: afii10075
Encoding: 1081 1081 110
Width: 510
Flags: MW
HStem: 0 21G<30 200 30 30 290 480 290 290> 630 20G<30 220 220 220 310 480 480 480> 690 125<220 300 220 317.5> 690 180<100 317.5>
VStem: 30 180 300 180
LayerCount: 2
Fore
SplineSet
310 650 m 1xdc
 480 650 l 1
 480 0 l 1
 290 0 l 1
 310 310 l 1
 200 0 l 1
 30 0 l 1
 30 650 l 1
 220 650 l 1
 200 320 l 1
 310 650 l 1xdc
350 870 m 1
 420 870 l 1
 420 850 l 2
 420 755 375 690 260 690 c 0
 135 690 100 765 100 850 c 2
 100 870 l 1
 170 870 l 1xdc
 170 850 180 815 260 815 c 0xec
 340 815 350 850 350 870 c 1
EndSplineSet
EndChar

StartChar: afii10076
Encoding: 1082 1082 73
Width: 490
Flags: MW
HStem: 0 21G<30 220 30 30 290 480 290 290> 630 20G<475 475>
VStem: 30 190<0 255 405 650> 270 190<165 205 205 210 97.5 222.5>
LayerCount: 2
Fore
SplineSet
30 650 m 1
 220 650 l 1
 220 405 l 1
 245 405 265 420 265 500 c 0
 265 640 285 650 285 650 c 1
 475 650 l 1
 475 630 l 1
 475 630 455 615 455 510 c 0
 455 350 375 345 375 345 c 1
 365 345 l 1
 365 335 l 1
 375 335 l 1
 375 335 460 335 460 210 c 2
 460 165 l 2
 460 30 480 20 480 20 c 1
 480 0 l 1
 290 0 l 1
 290 0 270 10 270 165 c 2
 270 205 l 2
 270 240 270 255 230 255 c 2
 220 255 l 1
 220 0 l 1
 30 0 l 1
 30 650 l 1
EndSplineSet
EndChar

StartChar: afii10077
Encoding: 1083 1083 102
Width: 545
Flags: MW
HStem: -10 170<10 150> 0 21G<10 10 325 515 325 325> 630 20G<100 515 515 515>
VStem: 100 170<425 480 215 650> 325 190<0 480 480 480>
LayerCount: 2
Fore
SplineSet
100 650 m 1xb8
 515 650 l 1
 515 0 l 1
 325 0 l 1x78
 325 480 l 1
 270 480 l 1
 270 370 l 2
 270 60 220 -10 80 -10 c 0xb8
 30 -10 10 0 10 0 c 1x78
 10 160 l 1
 30 160 l 2
 80 160 100 175 100 425 c 2
 100 650 l 1xb8
EndSplineSet
EndChar

StartChar: afii10078
Encoding: 1084 1084 99
Width: 670
Flags: MW
HStem: 0 21G<10 185 10 10 265 405 265 265 485 660 485 485> 630 20G<58 257 257 257 413 612 612 612>
VStem: 34 153 482 154
LayerCount: 2
Fore
SplineSet
660 0 m 1
 485 0 l 1
 480 315 l 1
 470 315 l 1
 405 0 l 1
 265 0 l 1
 200 315 l 1
 190 315 l 1
 185 0 l 1
 10 0 l 1
 58 650 l 1
 257 650 l 1
 330 295 l 1
 340 295 l 1
 413 650 l 1
 612 650 l 1
 660 0 l 1
EndSplineSet
EndChar

StartChar: afii10079
Encoding: 1085 1085 428
Width: 500
Flags: MW
HStem: 0 21G<30 220 30 30 280 470 280 280> 250 170<220 280 220 280> 630 20G<30 220 220 220 280 470 470 470>
VStem: 30 190<0 250 0 420 420 650> 280 190<0 250 250 250 420 650 0 650>
LayerCount: 2
Fore
SplineSet
280 650 m 1
 470 650 l 1
 470 0 l 1
 280 0 l 1
 280 250 l 1
 220 250 l 1
 220 0 l 1
 30 0 l 1
 30 650 l 1
 220 650 l 1
 220 420 l 1
 280 420 l 1
 280 650 l 1
EndSplineSet
EndChar

StartChar: afii10081
Encoding: 1087 1087 429
Width: 500
Flags: MW
HStem: 0 21G<30 220 30 30 280 470 280 280> 480 170<220 280 220 220>
VStem: 30 190<0 480 0 650 0 650> 280 190<0 480 480 480>
LayerCount: 2
Fore
SplineSet
30 650 m 1
 470 650 l 1
 470 0 l 1
 280 0 l 1
 280 480 l 1
 220 480 l 1
 220 0 l 1
 30 0 l 1
 30 650 l 1
EndSplineSet
EndChar

StartChar: afii10083
Encoding: 1089 1089 22
Width: 480
Flags: MW
HStem: -15 130<230 250 230 322.5> 535 130<230 250>
VStem: 20 190<215 435 435 502.5> 270 190<147.5 215 215 285 147.5 285 390 435>
LayerCount: 2
Fore
SplineSet
270 390 m 1
 270 505 l 2
 270 522 260 535 240 535 c 0
 220 535 210 522 210 505 c 2
 210 145 l 2
 210 128 220 115 240 115 c 0
 260 115 270 128 270 145 c 2
 270 285 l 1
 460 285 l 1
 460 215 l 2
 460 80 405 -15 240 -15 c 0
 75 -15 20 80 20 215 c 2
 20 435 l 2
 20 570 75 665 240 665 c 0
 405 665 460 570 460 435 c 2
 460 390 l 1
 270 390 l 1
EndSplineSet
EndChar

StartChar: afii10084
Encoding: 1090 1090 21
Width: 440
Flags: MW
HStem: 0 21G<125 315 125 125> 490 160<10 125 10 430 315 430 315 315>
VStem: 125 190<0 490 0 490>
LayerCount: 2
Fore
SplineSet
10 650 m 1
 430 650 l 1
 430 490 l 1
 315 490 l 1
 315 0 l 1
 125 0 l 1
 125 490 l 1
 10 490 l 1
 10 650 l 1
EndSplineSet
EndChar

StartChar: afii10086
Encoding: 1092 1092 93
Width: 710
Flags: MW
HStem: -150 245<227.5 450 227.5 260> -15 110<120 242.5> 555 110<117.5 242.5> 555 245<227.5 450 260 482.5>
VStem: 20 190<150 480 480 530> 260 190<-150 44 44 44 120 530 605 800> 500 190<120 170 170 500>
CounterMasks: 1 0e
LayerCount: 2
Fore
SplineSet
260 800 m 1x9e
 450 800 l 1x9e
 450 605 l 1
 450 605 490 665 555 665 c 0
 625 665 690 625 690 500 c 2
 690 170 l 2
 690 35 630 -15 555 -15 c 0x6e
 485 -15 450 45 450 45 c 1
 450 -150 l 1
 260 -150 l 1xae
 260 44 l 1
 257 39 226 -15 155 -15 c 0
 85 -15 20 25 20 150 c 2
 20 480 l 2
 20 615 80 665 155 665 c 0x6e
 225 665 260 605 260 605 c 1
 260 800 l 1x9e
450 530 m 2
 450 120 l 2
 450 105 460 95 475 95 c 0
 490 95 500 105 500 120 c 2
 500 530 l 2
 500 545 490 555 475 555 c 0
 460 555 450 545 450 530 c 2
210 530 m 2
 210 120 l 2
 210 105 220 95 235 95 c 0
 250 95 260 105 260 120 c 2
 260 530 l 2
 260 545 250 555 235 555 c 0
 220 555 210 545 210 530 c 2
EndSplineSet
EndChar

StartChar: afii10087
Encoding: 1093 1093 82
Width: 504
Flags: MW
HStem: 0 21G<10 205 10 10 299 494 299 299> 630 20G<10 205 205 205 299 494 494 494>
LayerCount: 2
Fore
SplineSet
10 650 m 1
 205 650 l 1
 247 470 l 1
 257 470 l 1
 299 650 l 1
 494 650 l 1
 382 330 l 1
 494 0 l 1
 299 0 l 1
 257 185 l 1
 247 185 l 1
 205 0 l 1
 10 0 l 1
 122 330 l 1
 10 650 l 1
EndSplineSet
EndChar

StartChar: afii10088
Encoding: 1094 1094 97
Width: 560
Flags: MW
HStem: -120 21G<360 550 360 360> 0 170<220 280 220 360> 630 20G<30 220 220 220 280 470 470 470>
VStem: 30 190<170 650 170 650 170 650> 280 190<170 650> 360 190<-120 0 0 0>
LayerCount: 2
Fore
SplineSet
470 170 m 1xf8
 550 170 l 1
 550 -120 l 1
 360 -120 l 1
 360 0 l 1xf4
 30 0 l 1
 30 650 l 1
 220 650 l 1
 220 170 l 1
 280 170 l 1
 280 650 l 1
 470 650 l 1
 470 170 l 1xf8
EndSplineSet
EndChar

StartChar: afii10089
Encoding: 1095 1095 87
Width: 490
Flags: MW
HStem: 0 21G<270 460 270 270> 190 150<125 250> 630 20G<20 210 210 210 270 460 460 460>
VStem: 20 190<370 375 375 650> 270 190<0 244 244 244 375 650 0 650>
LayerCount: 2
Fore
SplineSet
210 650 m 1
 210 375 l 2
 210 355 220 340 240 340 c 0
 260 340 270 355 270 375 c 2
 270 650 l 1
 460 650 l 1
 460 0 l 1
 270 0 l 1
 270 244 l 1
 267 239 241 190 165 190 c 0
 85 190 20 235 20 370 c 2
 20 650 l 1
 210 650 l 1
EndSplineSet
EndChar

StartChar: afii10090
Encoding: 1096 1096 19
Width: 740
Flags: MW
HStem: 0 160<220 275 465 520> 630 20G<30 220 220 220 275 465 465 465 520 710 710 710>
VStem: 30 190<160 650 160 650 160 650> 275 190<160 650 160 650> 520 190<160 650>
CounterMasks: 1 38
LayerCount: 2
Fore
SplineSet
710 0 m 1
 30 0 l 1
 30 650 l 1
 220 650 l 1
 220 160 l 1
 275 160 l 1
 275 650 l 1
 465 650 l 1
 465 160 l 1
 520 160 l 1
 520 650 l 1
 710 650 l 1
 710 0 l 1
EndSplineSet
EndChar

StartChar: afii10091
Encoding: 1097 1097 96
Width: 800
Flags: MW
HStem: -120 21G<600 790 600 600> 0 170<220 275 465 520> 630 20G<30 220 220 220 275 465 465 465 520 710 710 710>
VStem: 30 190<170 650 170 650 170 650> 275 190<170 650 170 650> 520 190<170 650> 600 190<-120 0 0 0>
LayerCount: 2
Fore
SplineSet
710 170 m 1xfc
 790 170 l 1
 790 -120 l 1
 600 -120 l 1
 600 0 l 1xfa
 30 0 l 1
 30 650 l 1
 220 650 l 1
 220 170 l 1
 275 170 l 1
 275 650 l 1
 465 650 l 1
 465 170 l 1
 520 170 l 1
 520 650 l 1
 710 650 l 1
 710 170 l 1xfc
EndSplineSet
EndChar

StartChar: afii10092
Encoding: 1098 1098 95
Width: 565
Flags: MW
HStem: 0 21G<115 345 115 115> 490 160<10 115 10 305>
VStem: 115 190<150 310 460 490 490 490> 355 190<180 210 210 250 150 280 150 288.5>
LayerCount: 2
Fore
SplineSet
345 0 m 2
 115 0 l 1
 115 490 l 1
 10 490 l 1
 10 650 l 1
 305 650 l 1
 305 460 l 1
 345 460 l 2
 495 460 545 370 545 250 c 2
 545 210 l 2
 545 90 495 0 345 0 c 2
355 180 m 2
 355 280 l 2
 355 297 345 310 325 310 c 2
 305 310 l 1
 305 150 l 1
 325 150 l 2
 345 150 355 163 355 180 c 2
EndSplineSet
EndChar

StartChar: afii10093
Encoding: 1099 1099 94
Width: 715
Flags: MW
HStem: 0 21G<30 260 30 30 495 685 495 495> 630 20G<30 220 220 220 495 685 685 685>
VStem: 30 190<150 310 150 460 460 650> 270 190<180 210 210 250 150 280 150 288.5> 495 190<0 650 0 650>
LayerCount: 2
Fore
SplineSet
495 650 m 1
 685 650 l 1
 685 0 l 1
 495 0 l 1
 495 650 l 1
270 180 m 2
 270 280 l 2
 270 297 260 310 240 310 c 2
 220 310 l 1
 220 150 l 1
 240 150 l 2
 260 150 270 163 270 180 c 2
260 0 m 2
 30 0 l 1
 30 650 l 1
 220 650 l 1
 220 460 l 1
 260 460 l 2
 410 460 460 370 460 250 c 2
 460 210 l 2
 460 90 410 0 260 0 c 2
EndSplineSet
EndChar

StartChar: afii10095
Encoding: 1101 1101 101
Width: 480
Flags: MW
HStem: -15 130<230 250 230 322.5> 280 110<130 270 130 270> 430 235<157.5 210 20 322.5> 535 130<230 250>
VStem: 20 190<180 237 136.5 237 430 465 465 505> 270 190<145 180 180 280 280 280 390 465>
LayerCount: 2
Fore
SplineSet
270 390 m 1xec
 270 505 l 2
 270 522 260 535 240 535 c 0xdc
 220 535 210 522 210 505 c 2
 210 430 l 1
 20 430 l 1
 20 465 l 2
 20 570 75 665 240 665 c 0
 405 665 460 570 460 465 c 2
 460 180 l 2
 460 75 405 -15 240 -15 c 0
 75 -15 20 75 20 180 c 2
 20 237 l 1
 210 237 l 1
 210 145 l 2
 210 128 220 115 240 115 c 0
 260 115 270 128 270 145 c 2
 270 280 l 1
 130 280 l 1
 130 390 l 1
 270 390 l 1xec
EndSplineSet
EndChar

StartChar: afii10096
Encoding: 1102 1102 18
Width: 725
Flags: MW
HStem: -15 140<475 495 475 567.5> 0 21G<30 220 30 30> 525 140<475 495> 630 20G<30 220 220 220>
VStem: 30 190<0 250 0 400 400 650> 265 190<215 250 250 250 400 435 435 495> 515 190<155 215 215 435>
LayerCount: 2
Fore
SplineSet
265 400 m 1x5e
 265 435 l 2
 265 570 320 665 485 665 c 0
 650 665 705 570 705 435 c 2
 705 215 l 2
 705 80 650 -15 485 -15 c 0xae
 320 -15 265 80 265 215 c 2
 265 250 l 1
 220 250 l 1
 220 0 l 1
 30 0 l 1
 30 650 l 1
 220 650 l 1
 220 400 l 1
 265 400 l 1x5e
515 155 m 2
 515 495 l 2
 515 512 505 525 485 525 c 0
 465 525 455 512 455 495 c 2
 455 155 l 2
 455 138 465 125 485 125 c 0
 505 125 515 138 515 155 c 2
EndSplineSet
EndChar

StartChar: afii10097
Encoding: 1103 1103 114
Width: 500
Flags: MW
HStem: 0 21G<10 200 10 10 280 470 280 280> 630 20G<225 470 470 470>
VStem: 35 185<410 430 430 465> 280 190<0 230 230 230 375 495 495 495>
LayerCount: 2
Fore
SplineSet
470 650 m 1
 470 0 l 1
 280 0 l 1
 280 230 l 1
 255 230 l 2
 230 230 220 215 220 175 c 2
 220 165 l 2
 220 10 200 0 200 0 c 1
 10 0 l 1
 10 20 l 1
 10 20 30 25 30 140 c 0
 30 295 120 300 120 300 c 1
 130 300 l 1
 130 310 l 1
 120 310 l 1
 120 310 35 325 35 465 c 0
 35 590 95 650 225 650 c 2
 470 650 l 1
280 375 m 1
 280 495 l 1
 250 495 l 2
 230 495 220 485 220 465 c 2
 220 430 l 2
 220 390 230 375 265 375 c 2
 280 375 l 1
EndSplineSet
EndChar

StartChar: afii10099
Encoding: 1106 1106 212
Width: 500
Flags: MW
HStem: -180 150<200 250 250 260 200 320 200 250> 0 21G<30 220 30 30 280 280> 500 150<240 382.5> 680 90<-50 30 -50 35 220 315> 880 20G<220 220>
VStem: 30 190<0 465 0 545 545 680> 280 190<0 30 30 465 465 475>
LayerCount: 2
Fore
SplineSet
280 0 m 2
 280 465 l 2
 280 485 270 500 250 500 c 0
 230 500 220 485 220 465 c 2
 220 0 l 1
 30 0 l 1
 30 680 l 1
 -50 680 l 1
 -50 770 l 1
 35 770 l 1
 35 855 l 1
 220 900 l 1
 220 770 l 1
 315 770 l 1
 315 680 l 1
 220 680 l 1
 220 545 l 1
 220 545 255 650 345 650 c 0
 420 650 470 605 470 480 c 2
 470 30 l 2
 470 -95 450 -180 320 -180 c 2
 200 -180 l 1
 200 -30 l 1
 250 -30 l 2
 270 -30 280 -17 280 0 c 2
EndSplineSet
EndChar

StartChar: afii10100
Encoding: 1107 1107 201
Width: 380
Flags: MW
HStem: 0 21G<30 220 30 30> 490 160<220 370 220 220> 690 230<190 250 120 385>
VStem: 30 190<0 490 0 650 0 650>
LayerCount: 2
Fore
SplineSet
30 650 m 1
 370 650 l 1
 370 490 l 1
 220 490 l 1
 220 0 l 1
 30 0 l 1
 30 650 l 1
385 920 m 1
 250 690 l 1
 120 690 l 1
 190 920 l 1
 385 920 l 1
EndSplineSet
EndChar

StartChar: afii10101
Encoding: 1108 1108 183
Width: 480
Flags: MW
HStem: -15 130<230 250 230 322.5> 280 110<210 350 210 350> 430 235<270 322.5 157.5 460 270 270> 535 130<230 250>
VStem: 20 190<180 280 390 465 465 505> 270 190<145 180 180 237 127.5 237 430 465>
LayerCount: 2
Fore
SplineSet
210 505 m 2xdc
 210 390 l 1
 350 390 l 1
 350 280 l 1
 210 280 l 1
 210 145 l 2
 210 128 220 115 240 115 c 0
 260 115 270 128 270 145 c 2
 270 237 l 1
 460 237 l 1
 460 180 l 2
 460 75 405 -15 240 -15 c 0
 75 -15 20 75 20 180 c 2
 20 465 l 2
 20 570 75 665 240 665 c 0
 405 665 460 570 460 465 c 2
 460 430 l 1
 270 430 l 1xec
 270 505 l 2
 270 522 260 535 240 535 c 0
 220 535 210 522 210 505 c 2xdc
EndSplineSet
EndChar

StartChar: afii10103
Encoding: 1110 1110 184
Width: 250
Flags: MW
HStem: 0 21G<30 220 30 30> 630 20G<30 220 220 220> 690 150<30 220 30 220>
VStem: 30 190<0 650 0 650 690 840>
LayerCount: 2
Fore
SplineSet
30 650 m 1
 220 650 l 1
 220 0 l 1
 30 0 l 1
 30 650 l 1
30 840 m 1
 220 840 l 1
 220 690 l 1
 30 690 l 1
 30 840 l 1
EndSplineSet
EndChar

StartChar: afii10105
Encoding: 1112 1112 182
Width: 250
Flags: MW
HStem: -180 150<-50 0 0 10 -50 70 -50 0> 630 20G<30 220 220 220> 690 150<30 220 30 220>
VStem: 30 190<0 30 30 650 690 840>
LayerCount: 2
Fore
SplineSet
30 840 m 1
 220 840 l 1
 220 690 l 1
 30 690 l 1
 30 840 l 1
30 0 m 2
 30 650 l 1
 220 650 l 1
 220 30 l 2
 220 -95 200 -180 70 -180 c 2
 -50 -180 l 1
 -50 -30 l 1
 0 -30 l 2
 20 -30 30 -17 30 0 c 2
EndSplineSet
EndChar

StartChar: afii10106
Encoding: 1113 1113 192
Width: 775
Flags: MW
HStem: -10 170<10 150> 0 21G<10 10 325 555 325 325> 630 20G<100 515 515 515>
VStem: 100 170<425 480 215 650> 325 190<150 310 460 480 480 480> 565 190<180 210 210 250 150 280 150 288.5>
LayerCount: 2
Fore
SplineSet
555 0 m 2x7c
 325 0 l 1x7c
 325 480 l 1
 270 480 l 1
 270 370 l 2
 270 60 220 -10 80 -10 c 0xbc
 30 -10 10 0 10 0 c 1x7c
 10 160 l 1
 30 160 l 2xbc
 80 160 100 175 100 425 c 2
 100 650 l 1
 515 650 l 1
 515 460 l 1
 555 460 l 2
 705 460 755 370 755 250 c 2
 755 210 l 2
 755 90 705 0 555 0 c 2x7c
565 180 m 2
 565 280 l 2
 565 297 555 310 535 310 c 2
 515 310 l 1
 515 150 l 1
 535 150 l 2
 555 150 565 163 565 180 c 2
EndSplineSet
EndChar

StartChar: afii10107
Encoding: 1114 1114 193
Width: 730
Flags: MW
HStem: 0 21G<30 220 30 30 280 510 280 280> 270 180<520 520> 630 20G<30 220 220 220 280 470 470 470>
VStem: 30 190<0 270 0 440 440 650> 280 190<150 270 270 270 450 650> 520 190<180 210 210 240 150 270 150 278.5>
LayerCount: 2
Fore
SplineSet
510 0 m 2
 280 0 l 1
 280 270 l 1
 220 270 l 1
 220 0 l 1
 30 0 l 1
 30 650 l 1
 220 650 l 1
 220 440 l 1
 280 440 l 1
 280 650 l 1
 470 650 l 1
 470 450 l 1
 510 450 l 2
 660 450 710 360 710 240 c 2
 710 210 l 2
 710 90 660 0 510 0 c 2
520 180 m 2
 520 270 l 2
 520 287 510 300 490 300 c 2
 470 300 l 1
 470 150 l 1
 490 150 l 2
 510 150 520 163 520 180 c 2
EndSplineSet
EndChar

StartChar: afii10108
Encoding: 1115 1115 211
Width: 500
Flags: MW
HStem: 0 21G<30 220 30 30 280 470 280 280> 500 150<240 382.5> 680 90<-50 30 -50 35 220 315> 880 20G<220 220>
VStem: 30 190<0 465 0 545 545 680> 280 190<0 465 465 475>
LayerCount: 2
Fore
SplineSet
280 0 m 1
 280 465 l 2
 280 485 270 500 250 500 c 0
 230 500 220 485 220 465 c 2
 220 0 l 1
 30 0 l 1
 30 680 l 1
 -50 680 l 1
 -50 770 l 1
 35 770 l 1
 35 855 l 1
 220 900 l 1
 220 770 l 1
 315 770 l 1
 315 680 l 1
 220 680 l 1
 220 545 l 1
 220 545 255 650 345 650 c 0
 420 650 470 605 470 480 c 2
 470 0 l 1
 280 0 l 1
EndSplineSet
EndChar

StartChar: afii10110
Encoding: 1118 1118 194
Width: 515
Flags: MW
HStem: -160 160<30 135 30 205 30 135> 630 20G<10 210 210 210 305 505 505 505> 690 125<220 300 220 317.5> 690 180<100 317.5>
VStem: 287 133
LayerCount: 2
Fore
SplineSet
270 200 m 1xd8
 305 650 l 1
 505 650 l 1
 425 120 l 2
 391 -103 355 -160 205 -160 c 2
 30 -160 l 1
 30 0 l 1
 135 0 l 1
 10 650 l 1
 210 650 l 1
 260 200 l 1
 270 200 l 1xd8
350 870 m 1
 420 870 l 1
 420 850 l 2
 420 755 375 690 260 690 c 0
 135 690 100 765 100 850 c 2
 100 870 l 1
 170 870 l 1xd8
 170 850 180 815 260 815 c 0xe8
 340 815 350 850 350 870 c 1
EndSplineSet
EndChar

StartChar: afii10193
Encoding: 1119 1119 196
Width: 500
Flags: MW
HStem: -150 21G<155 345 155 155> 0 21G<30 155 30 30 345 345 345 470> 630 20G<30 220 220 220 280 470 470 470>
VStem: 30 190<170 650 170 650 170 650> 155 190<-150 0 -150 0> 280 190<170 650 0 650>
LayerCount: 2
Fore
SplineSet
155 0 m 1xe8
 30 0 l 1
 30 650 l 1
 220 650 l 1
 220 170 l 1
 280 170 l 1
 280 650 l 1
 470 650 l 1
 470 0 l 1xf4
 345 0 l 1
 345 -150 l 1
 155 -150 l 1
 155 0 l 1xe8
EndSplineSet
EndChar

StartChar: afii10050
Encoding: 1168 1168 197
Width: 440
Flags: MW
HStem: 0 21G<30 230 30 30> 620 180<230 250 30 430 230 230> 890 20G<250 430 430 430>
VStem: 30 200<0 620 0 800 0 800> 250 180<800 910 620 910>
LayerCount: 2
Fore
SplineSet
250 800 m 1
 250 910 l 1
 430 910 l 1
 430 620 l 1
 230 620 l 1
 230 0 l 1
 30 0 l 1
 30 800 l 1
 250 800 l 1
EndSplineSet
EndChar

StartChar: afii10098
Encoding: 1169 1169 198
Width: 420
Flags: MW
HStem: 0 21G<30 220 30 30> 490 160<220 250 30 410 220 220> 740 20G<250 410 410 410>
VStem: 30 190<0 490 0 650 0 650> 250 160<650 760 490 760>
LayerCount: 2
Fore
SplineSet
250 650 m 1
 250 760 l 1
 410 760 l 1
 410 490 l 1
 220 490 l 1
 220 0 l 1
 30 0 l 1
 30 650 l 1
 250 650 l 1
EndSplineSet
EndChar

StartChar: uni1E02
Encoding: 7682 7682 405
Width: 508
Flags: MW
HStem: 0 21G<30 280 30 30> 340 145<230 245 230 245 245 250> 780 20G<30 265 265 347.5> 840 150<155 325 155 325>
VStem: 30 200<155 340 155 485 485 640> 155 170<840 990 840 990> 290 200<185 210 210 252 140 285 140 307.5>
LayerCount: 2
Fore
SplineSet
280 0 m 2xfa
 30 0 l 1
 30 800 l 1
 265 800 l 2
 430 800 480 710 480 590 c 0
 480 440 400 422 400 422 c 1
 390 422 l 1
 390 412 l 1
 400 412 l 1
 400 412 490 397 490 252 c 2
 490 210 l 2
 490 70 440 0 280 0 c 2xfa
230 340 m 1
 230 155 l 1
 260 155 l 2
 280 155 290 168 290 185 c 2
 290 285 l 2
 290 330 285 340 250 340 c 2
 230 340 l 1
230 640 m 1
 230 485 l 1
 245 485 l 2
 280 485 285 500 285 540 c 2
 285 610 l 2
 285 627 275 640 255 640 c 2
 230 640 l 1
325 990 m 1xf4
 325 840 l 1
 155 840 l 1
 155 990 l 1
 325 990 l 1xf4
EndSplineSet
EndChar

StartChar: uni1E03
Encoding: 7683 7683 404
Width: 490
Flags: MW
HStem: -15 120<240 372.5> 0 105<30 260> 535 130<240 377.5> 695 160<250 425 250 425> 780 20G<30 220 220 220>
VStem: 30 190<0 59 130 140 140 500 575 800> 250 175<695 855 695 855> 280 190<140 190 190 495>
LayerCount: 2
Fore
SplineSet
30 0 m 1x76
 30 800 l 1
 220 800 l 1
 220 575 l 1
 223 583 254 665 340 665 c 0
 415 665 470 620 470 495 c 2
 470 190 l 2
 470 30 410 -15 335 -15 c 0xad
 252 -15 221 56 220 59 c 1
 220 0 l 1
 30 0 l 1x76
250 855 m 1x76
 425 855 l 1
 425 695 l 1
 250 695 l 1
 250 855 l 1x76
280 140 m 2xb5
 280 500 l 2xb5
 280 520 270 535 250 535 c 0
 230 535 220 520 220 500 c 2
 220 140 l 2
 220 120 230 105 250 105 c 0xb6
 270 105 280 120 280 140 c 2xb5
EndSplineSet
EndChar

StartChar: uni1E0A
Encoding: 7690 7690 403
Width: 505
Flags: MW
HStem: 0 150<220 230 230 250 220 255> 650 150<220 230 220 220> 840 150<160 330 160 330>
VStem: 30 190<150 650 150 800 150 800> 160 170<840 990 840 990> 285 200<225 240 240 560>
LayerCount: 2
Fore
SplineSet
30 0 m 1xf4
 30 800 l 1
 255 800 l 2
 405 800 485 750 485 560 c 2
 485 240 l 2
 485 50 405 0 255 0 c 2
 30 0 l 1xf4
285 225 m 2
 285 575 l 2
 285 635 270 650 230 650 c 2
 220 650 l 1
 220 150 l 1
 230 150 l 2
 270 150 285 165 285 225 c 2
330 990 m 1xe8
 330 840 l 1
 160 840 l 1
 160 990 l 1
 330 990 l 1xe8
EndSplineSet
EndChar

StartChar: uni1E0B
Encoding: 7691 7691 400
Width: 490
Flags: MW
HStem: -15 120<120.5 250> 0 21G<290 460 290 290> 560 105<120 250> 560 240<230 460> 695 160<65 240 65 240>
VStem: 20 190<165 460 460 525> 65 175<695 855 695 855> 270 190<140 525 525 535 605 800 0 800>
LayerCount: 2
Fore
SplineSet
460 800 m 1x95
 460 0 l 1
 290 0 l 1x55
 275 65 l 1
 275 65 253 -15 158 -15 c 0
 83 -15 20 30 20 165 c 2
 20 460 l 2
 20 620 80 665 160 665 c 0xad
 238 665 268 608 270 605 c 1
 270 800 l 1
 460 800 l 1x95
65 855 m 1xab
 240 855 l 1
 240 695 l 1
 65 695 l 1
 65 855 l 1xab
210 525 m 2xad
 210 140 l 2xad
 210 120 220 105 240 105 c 0
 260 105 270 120 270 140 c 2
 270 525 l 2
 270 545 260 560 240 560 c 0xab
 220 560 210 545 210 525 c 2xad
EndSplineSet
EndChar

StartChar: uni1E1E
Encoding: 7710 7710 398
Width: 430
Flags: MW
HStem: 0 21G<30 230 30 30> 320 180<230 390 230 390> 620 180<230 410 230 230> 840 150<140 310 140 310>
VStem: 30 200<0 320 0 500 500 620> 140 170<840 990 840 990>
LayerCount: 2
Fore
SplineSet
390 500 m 1xf8
 390 320 l 1
 230 320 l 1
 230 0 l 1
 30 0 l 1
 30 800 l 1
 410 800 l 1
 410 620 l 1
 230 620 l 1
 230 500 l 1
 390 500 l 1xf8
310 990 m 1xf4
 310 840 l 1
 140 840 l 1
 140 990 l 1
 310 990 l 1xf4
EndSplineSet
EndChar

StartChar: uni1E1F
Encoding: 7711 7711 397
Width: 400
Flags: MW
HStem: 0 21G<105 295 105 105> 490 160<10 100 10 105 10 100 300 390> 710 160<291.5 300 300 375> 910 150<140 310 140 310>
VStem: 105 165 105 190<0 490 0 490> 140 170<910 1060 910 1060>
LayerCount: 2
Fore
SplineSet
270 680 m 0xf8
 270 660 283 650 300 650 c 2
 390 650 l 1
 390 490 l 1
 295 490 l 1
 295 0 l 1xf4
 105 0 l 1
 105 490 l 1
 10 490 l 1
 10 650 l 1
 100 650 l 1
 100 700 l 2
 100 840 185 870 290 870 c 2
 375 870 l 1
 375 710 l 1
 300 710 l 2
 283 710 270 700 270 680 c 0xf8
310 1060 m 1xf2
 310 910 l 1
 140 910 l 1
 140 1060 l 1
 310 1060 l 1xf2
EndSplineSet
EndChar

StartChar: uni1E40
Encoding: 7744 7744 396
Width: 730
Flags: MW
HStem: 0 21G<15 200 15 15 290 290 290 440 530 530 530 715> 780 20G<67 280 280 280 450 663 663 663> 840 150<280 450 280 450>
VStem: 41 164 280 170<800 800 840 990> 525 164
CounterMasks: 1 1c
LayerCount: 2
Fore
SplineSet
220 380 m 1
 210 380 l 1
 200 0 l 1
 15 0 l 1
 67 800 l 1
 280 800 l 1
 360 375 l 1
 370 375 l 1
 450 800 l 1
 663 800 l 1
 715 0 l 1
 530 0 l 1
 520 380 l 1
 510 380 l 1
 440 0 l 1
 290 0 l 1
 220 380 l 1
450 990 m 1
 450 840 l 1
 280 840 l 1
 280 990 l 1
 450 990 l 1
EndSplineSet
EndChar

StartChar: uni1E41
Encoding: 7745 7745 395
Width: 750
Flags: MW
HStem: 0 21G<30 220 30 30 280 470 280 280 530 720 530 530> 515 135<30 260> 515 150<240 376.5 300 510> 695 160<285 460 285 460>
VStem: 30 190<0 480 0 560 560 650 0 650> 280 190<0 480 480 484 0 490> 530 190<0 480 480 490>
CounterMasks: 1 0e
LayerCount: 2
Fore
SplineSet
530 0 m 1xbe
 530 480 l 2
 530 500 520 515 500 515 c 0
 481 515 471 502 470 484 c 1
 470 0 l 1
 280 0 l 1
 280 480 l 2
 280 500 270 515 250 515 c 0
 230 515 220 500 220 480 c 2
 220 0 l 1
 30 0 l 1
 30 650 l 1
 220 650 l 1xde
 220 560 l 1
 220 560 255 665 345 665 c 0
 408 665 453 633 466 550 c 1
 470 560 505 665 595 665 c 0
 670 665 720 620 720 495 c 2
 720 0 l 1
 530 0 l 1xbe
285 855 m 1
 460 855 l 1
 460 695 l 1
 285 695 l 1
 285 855 l 1
EndSplineSet
EndChar

StartChar: uni1E56
Encoding: 7766 7766 394
Width: 508
Flags: MW
HStem: 0 21G<30 230 30 30> 645 155<230 250 230 230> 840 150<155 325 155 325>
VStem: 30 200<0 290 440 645> 155 170<840 990 840 990> 290 200<490 510 510 580 447.5 595 447.5 615>
LayerCount: 2
Fore
SplineSet
290 490 m 2xf4
 290 595 l 2
 290 635 285 645 250 645 c 2
 230 645 l 1
 230 440 l 1
 250 440 l 2
 280 440 290 455 290 490 c 2xf4
30 800 m 1
 270 800 l 2
 430 800 490 720 490 580 c 2
 490 510 l 2
 490 385 440 290 280 290 c 2
 230 290 l 1
 230 0 l 1
 30 0 l 1
 30 800 l 1
325 990 m 1xe8
 325 840 l 1
 155 840 l 1
 155 990 l 1
 325 990 l 1xe8
EndSplineSet
EndChar

StartChar: uni1E57
Encoding: 7767 7767 392
Width: 490
Flags: MW
HStem: -150 245<30 260 30 260> -15 110<240 370> 525 125<30 260> 525 140<240 377.5> 695 160<148 323 148 323>
VStem: 30 190<-150 44 120 130 130 490> 148 175<695 855 695 855> 280 190<130 190 190 490 490 495>
LayerCount: 2
Fore
SplineSet
30 -150 m 1xad
 30 650 l 1
 220 650 l 1xad
 210 570 l 1
 220 570 l 1
 220 570 250 665 340 665 c 0
 415 665 470 620 470 495 c 2
 470 190 l 2
 470 30 410 -15 330 -15 c 0x5d
 252 -15 221 41 220 44 c 1
 220 -150 l 1
 30 -150 l 1xad
148 855 m 1xaa
 323 855 l 1
 323 695 l 1
 148 695 l 1
 148 855 l 1xaa
280 130 m 2xad
 280 490 l 2
 280 510 270 525 250 525 c 0
 230 525 220 510 220 490 c 2
 220 130 l 2
 220 110 230 95 250 95 c 0
 270 95 280 110 280 130 c 2xad
EndSplineSet
EndChar

StartChar: uni1E60
Encoding: 7776 7776 390
Width: 496
Flags: MW
HStem: -15 165<236.5 259.5 236.5 330.5> 650 165<236.5 259.5> 840 150<164 334 164 334>
VStem: 23 195<530 590 590 610> 164 170<840 990 840 990> 278 200<190 220 220 310 150 610>
LayerCount: 2
Fore
SplineSet
18 300 m 1xf4
 218 300 l 1
 218 190 l 2
 218 170 225 150 248 150 c 0
 271 150 278 170 278 190 c 2
 278 220 l 2
 278 400 23 335 23 595 c 0
 23 720 91 815 246 815 c 0
 405 815 473 725 473 595 c 2
 473 535 l 1
 278 535 l 1
 278 610 l 2
 278 630 271 650 248 650 c 0
 225 650 218 630 218 610 c 2
 218 590 l 2
 218 470 478 495 478 225 c 0
 478 75 413 -15 248 -15 c 0
 83 -15 18 80 18 215 c 2
 18 300 l 1xf4
334 990 m 1xe8
 334 840 l 1
 164 840 l 1
 164 990 l 1
 334 990 l 1xe8
EndSplineSet
EndChar

StartChar: uni1E61
Encoding: 7777 7777 406
Width: 476
Flags: MW
HStem: -15 130<228 248 228 323> 425 240<268 323 160.5 453 268 268> 535 130<228 248> 695 160<153 328 153 328>
VStem: 23 185<430 485 485 505> 153 175<695 855 695 855> 268 190<145 170 170 235 122.5 505>
LayerCount: 2
Fore
SplineSet
238 115 m 0xba
 258 115 268 128 268 145 c 2
 268 170 l 2
 268 300 23 280 23 475 c 0
 23 575 83 665 238 665 c 0
 408 665 453 560 453 495 c 2
 453 425 l 1
 268 425 l 1xda
 268 505 l 2
 268 522 258 535 238 535 c 0
 218 535 208 522 208 505 c 2
 208 485 l 2
 208 375 458 385 458 175 c 0
 458 70 408 -15 238 -15 c 0
 68 -15 18 80 18 165 c 2
 18 240 l 1
 208 240 l 1
 208 145 l 2
 208 128 218 115 238 115 c 0xba
153 855 m 1xd4
 328 855 l 1
 328 695 l 1
 153 695 l 1
 153 855 l 1xd4
EndSplineSet
EndChar

StartChar: uni1E6A
Encoding: 7786 7786 407
Width: 480
Flags: MW
HStem: 0 21G<140 340 140 140> 620 180<10 140 10 470 340 470 340 340> 840 150<155 325 155 325>
VStem: 140 200<0 620 0 620> 155 170<840 990 840 990>
LayerCount: 2
Fore
SplineSet
10 800 m 1xf0
 470 800 l 1
 470 620 l 1
 340 620 l 1
 340 0 l 1
 140 0 l 1
 140 620 l 1
 10 620 l 1
 10 800 l 1xf0
325 990 m 1xe8
 325 840 l 1
 155 840 l 1
 155 990 l 1
 325 990 l 1xe8
EndSplineSet
EndChar

StartChar: uni1E6B
Encoding: 7787 7787 408
Width: 395
Flags: MW
HStem: -10 160<188 355> 490 160<10 100 10 105 290 385> 830 150<110 280 110 280>
VStem: 100 190<180 490>
LayerCount: 2
Fore
SplineSet
385 490 m 1
 290 490 l 1
 290 180 l 2
 290 160 295 150 320 150 c 2
 355 150 l 1
 355 0 l 1
 355 0 330 -10 265 -10 c 0
 111 -10 100 80 100 180 c 2
 100 490 l 1
 10 490 l 1
 10 650 l 1
 105 650 l 1
 105 755 l 1
 290 800 l 1
 290 650 l 1
 385 650 l 1
 385 490 l 1
280 980 m 1
 280 830 l 1
 110 830 l 1
 110 980 l 1
 280 980 l 1
EndSplineSet
EndChar

StartChar: Wgrave
Encoding: 7808 7808 402
Width: 820
Flags: MW
HStem: 0 21G<105 365 365 365 455 715 715 715> 780 20G<10 220 10 10 307 513 307 307 600 810 600 600> 840 230<335 335 335 395 200 465>
LayerCount: 2
Fore
SplineSet
810 800 m 1
 600 800 l 1
 575 270 l 1
 565 270 l 1
 513 800 l 1
 307 800 l 1
 255 270 l 1
 245 270 l 1
 220 800 l 1
 10 800 l 1
 105 0 l 1
 365 0 l 1
 405 438 l 1
 415 438 l 1
 455 0 l 1
 715 0 l 1
 810 800 l 1
335 840 m 1
 200 1070 l 1
 395 1070 l 1
 465 840 l 1
 335 840 l 1
EndSplineSet
EndChar

StartChar: wgrave
Encoding: 7809 7809 393
Width: 760
Flags: MW
HStem: 0 21G<92 331 331 331 429 668 668 668> 630 20G<10 200 10 10 290 470 290 290 560 560 560 750> 690 230<320 320 320 390 195 450>
LayerCount: 2
Fore
SplineSet
535 230 m 1
 525 230 l 1
 470 650 l 1
 290 650 l 1
 235 230 l 1
 225 230 l 1
 200 650 l 1
 10 650 l 1
 92 0 l 1
 331 0 l 1
 375 340 l 1
 385 340 l 1
 429 0 l 1
 668 0 l 1
 750 650 l 1
 560 650 l 1
 535 230 l 1
320 690 m 1
 195 920 l 1
 390 920 l 1
 450 690 l 1
 320 690 l 1
EndSplineSet
EndChar

StartChar: Wacute
Encoding: 7810 7810 401
Width: 820
Flags: MW
HStem: 0 21G<105 365 105 105 455 715 455 455> 780 20G<10 220 220 220 307 513 513 513 600 810 810 810> 840 230<405 465 335 600>
LayerCount: 2
Fore
SplineSet
600 800 m 1
 810 800 l 1
 715 0 l 1
 455 0 l 1
 415 438 l 1
 405 438 l 1
 365 0 l 1
 105 0 l 1
 10 800 l 1
 220 800 l 1
 245 270 l 1
 255 270 l 1
 307 800 l 1
 513 800 l 1
 565 270 l 1
 575 270 l 1
 600 800 l 1
600 1070 m 1
 465 840 l 1
 335 840 l 1
 405 1070 l 1
 600 1070 l 1
EndSplineSet
EndChar

StartChar: wdieresis
Encoding: 7813 7813 387
Width: 760
Flags: MW
HStem: 0 21G<92 331 92 92 429 668 429 429> 630 20G<10 200 200 200 290 470 470 470 560 750 750 750> 695 160<185 360 185 360 185 400 400 575>
VStem: 185 175<695 855 695 855> 400 175<695 855 695 855>
LayerCount: 2
Fore
SplineSet
525 230 m 1
 535 230 l 1
 560 650 l 1
 750 650 l 1
 668 0 l 1
 429 0 l 1
 385 340 l 1
 375 340 l 1
 331 0 l 1
 92 0 l 1
 10 650 l 1
 200 650 l 1
 225 230 l 1
 235 230 l 1
 290 650 l 1
 470 650 l 1
 525 230 l 1
185 855 m 1
 360 855 l 1
 360 695 l 1
 185 695 l 1
 185 855 l 1
400 855 m 1
 575 855 l 1
 575 695 l 1
 400 695 l 1
 400 855 l 1
EndSplineSet
EndChar

StartChar: Ygrave
Encoding: 7922 7922 399
Width: 540
Flags: MW
HStem: 0 21G<157 383 383 383> 780 20G<10 220 10 10 320 530 320 320> 840 230<215 215 215 275 80 345>
VStem: 157 226<0 245 0 245>
LayerCount: 2
Fore
SplineSet
383 0 m 1
 383 245 l 2
 383 295 400 310 412 350 c 2
 530 755 l 1
 530 800 l 1
 320 800 l 1
 275 480 l 1
 265 480 l 1
 220 800 l 1
 10 800 l 1
 10 755 l 1
 128 350 l 2
 140 310 157 295 157 245 c 2
 157 0 l 1
 383 0 l 1
215 840 m 1
 80 1070 l 1
 275 1070 l 1
 345 840 l 1
 215 840 l 1
EndSplineSet
EndChar

StartChar: ygrave
Encoding: 7923 7923 389
Width: 515
Flags: MW
HStem: -160 160<30 135 30 205 30 280> 630 20G<10 210 10 10 305 505 305 305> 690 230<200 200 200 270 75 330>
LayerCount: 2
Fore
SplineSet
305 650 m 1
 270 200 l 1
 260 200 l 1
 210 650 l 1
 10 650 l 1
 135 0 l 1
 30 0 l 1
 30 -160 l 1
 205 -160 l 2
 355 -160 391 -103 425 120 c 2
 505 650 l 1
 305 650 l 1
200 690 m 1
 75 920 l 1
 270 920 l 1
 330 690 l 1
 200 690 l 1
EndSplineSet
EndChar

StartChar: endash
Encoding: 8211 8211 121
Width: 500
Flags: MW
HStem: 270 170<20 480 20 480>
LayerCount: 2
Fore
SplineSet
480 440 m 1
 480 270 l 1
 20 270 l 1
 20 440 l 1
 480 440 l 1
EndSplineSet
EndChar

StartChar: emdash
Encoding: 8212 8212 122
Width: 710
Flags: MW
HStem: 270 170<20 690 20 690>
LayerCount: 2
Fore
SplineSet
690 440 m 1
 690 270 l 1
 20 270 l 1
 20 440 l 1
 690 440 l 1
EndSplineSet
EndChar

StartChar: quoteleft
Encoding: 8216 8216 154
Width: 230
Flags: MW
HStem: 455 180<20 210 130 210 130 210> 700 100<180 210>
VStem: 20 110<455 645 635 645 635 687.5> 20 190<455 625 625 635 455 687.5>
LayerCount: 2
Fore
SplineSet
20 455 m 1xd0
 20 625 l 2
 20 750 60 800 170 800 c 2
 210 800 l 1
 210 700 l 1xd0
 150 700 130 695 130 645 c 2
 130 635 l 1xe0
 210 635 l 1
 210 455 l 1
 20 455 l 1xd0
EndSplineSet
EndChar

StartChar: quoteright
Encoding: 8217 8217 153
Width: 230
Flags: MW
HStem: 455 100<20 50 20 60 20 50> 620 180<20 100 20 210>
VStem: 20 190<455 630 555 630 620 630 630 800 567.5 800> 100 110<610 620 620 620>
LayerCount: 2
Fore
SplineSet
210 800 m 1xe0
 210 630 l 2
 210 505 170 455 60 455 c 2
 20 455 l 1
 20 555 l 1xe0
 80 555 100 560 100 610 c 2
 100 620 l 1xd0
 20 620 l 1
 20 800 l 1
 210 800 l 1xe0
EndSplineSet
EndChar

StartChar: quotedblleft
Encoding: 8220 8220 155
Width: 455
Flags: MW
HStem: 455 180<20 210 130 210 130 210 130 245 355 435> 700 100<180 210 405 435>
VStem: 20 110<455 645 635 645 635 687.5> 20 190<455 625 625 635 455 687.5> 245 110<455 645 635 645 635 687.5> 245 190<455 625 625 635 455 687.5>
LayerCount: 2
Fore
SplineSet
245 455 m 1xe4
 245 625 l 2
 245 750 285 800 395 800 c 2
 435 800 l 1
 435 700 l 1xd4
 375 700 355 695 355 645 c 2
 355 635 l 1xe8
 435 635 l 1
 435 455 l 1
 245 455 l 1xe4
20 455 m 1
 20 625 l 2
 20 750 60 800 170 800 c 2
 210 800 l 1
 210 700 l 1xd8
 150 700 130 695 130 645 c 2
 130 635 l 1xe8
 210 635 l 1
 210 455 l 1
 20 455 l 1
EndSplineSet
EndChar

StartChar: quotedblright
Encoding: 8221 8221 152
Width: 455
Flags: MW
HStem: 455 100<20 50 20 60 20 50 245 275> 620 180<20 100 20 210 20 245 245 325>
VStem: 20 190<455 630 555 630 620 630 630 800 567.5 800> 100 110<610 620 620 620> 245 190<455 630 555 630 620 630 630 800 567.5 800> 325 110<610 620 620 620>
LayerCount: 2
Fore
SplineSet
210 800 m 1xe8
 210 630 l 2
 210 505 170 455 60 455 c 2
 20 455 l 1
 20 555 l 1xe8
 80 555 100 560 100 610 c 2
 100 620 l 1xd8
 20 620 l 1
 20 800 l 1
 210 800 l 1xe8
435 800 m 1
 435 630 l 2
 435 505 395 455 285 455 c 2
 245 455 l 1
 245 555 l 1xe8
 305 555 325 560 325 610 c 2
 325 620 l 1xe4
 245 620 l 1
 245 800 l 1
 435 800 l 1
EndSplineSet
EndChar

StartChar: quotedblbase
Encoding: 8222 8222 151
Width: 455
Flags: MW
HStem: -165 100<20 50 20 60 20 50 245 275> 0 180<20 100 20 210 20 245 245 325>
VStem: 20 190<-165 10 -65 10 0 10 10 180 -52.5 180> 100 110<-10 0 0 0> 245 190<-165 10 -65 10 0 10 10 180 -52.5 180> 325 110<-10 0 0 0>
LayerCount: 2
Fore
SplineSet
210 180 m 1xe8
 210 10 l 2
 210 -115 170 -165 60 -165 c 2
 20 -165 l 1
 20 -65 l 1xe8
 80 -65 100 -60 100 -10 c 2
 100 0 l 1xd8
 20 0 l 1
 20 180 l 1
 210 180 l 1xe8
435 180 m 1
 435 10 l 2
 435 -115 395 -165 285 -165 c 2
 245 -165 l 1
 245 -65 l 1xe8
 305 -65 325 -60 325 -10 c 2
 325 0 l 1xe4
 245 0 l 1
 245 180 l 1
 435 180 l 1
EndSplineSet
EndChar

StartChar: dagger
Encoding: 8224 8224 168
Width: 460
Flags: MW
HStem: 230 21G<155 305 155 155> 530 140<30 65 30 65 395 430> 800 20G<155 305 305 305>
VStem: 161 137
LayerCount: 2
Fore
SplineSet
155 820 m 1
 305 820 l 1
 305 785 l 1
 290 660 l 1
 395 670 l 1
 430 670 l 1
 430 530 l 1
 395 530 l 1
 292 541 l 1
 305 265 l 1
 305 230 l 1
 155 230 l 1
 155 265 l 1
 168 541 l 1
 65 530 l 1
 30 530 l 1
 30 670 l 1
 65 670 l 1
 170 660 l 1
 155 785 l 1
 155 820 l 1
EndSplineSet
EndChar

StartChar: daggerdbl
Encoding: 8225 8225 169
Width: 460
Flags: MW
HStem: 100 21G<155 305 155 155> 330 140<30 65 30 65 395 430> 530 140<30 65 30 65 395 430> 800 20G<155 305 305 305>
VStem: 161 137 170 128
LayerCount: 2
Fore
SplineSet
155 820 m 1xf8
 305 820 l 1
 305 785 l 1
 290 660 l 1
 395 670 l 1
 430 670 l 1
 430 530 l 1
 395 530 l 1
 290 541 l 1
 290 460 l 1
 395 470 l 1
 430 470 l 1
 430 330 l 1
 395 330 l 1
 292 341 l 1
 305 135 l 1
 305 100 l 1
 155 100 l 1
 155 135 l 1
 168 341 l 1
 65 330 l 1
 30 330 l 1
 30 470 l 1
 65 470 l 1
 170 460 l 1
 170 541 l 1
 65 530 l 1
 30 530 l 1
 30 670 l 1
 65 670 l 1
 170 660 l 1xf4
 155 785 l 1
 155 820 l 1xf8
EndSplineSet
EndChar

StartChar: bullet
Encoding: 8226 8226 156
Width: 390
Flags: MW
HStem: 275 21G<157.5 232.5> 525 20G<157.5 232.5>
LayerCount: 2
Fore
SplineSet
60 410 m 0
 60 485 120 545 195 545 c 0
 270 545 330 485 330 410 c 0
 330 335 270 275 195 275 c 0
 120 275 60 335 60 410 c 0
EndSplineSet
EndChar

StartChar: ellipsis
Encoding: 8230 8230 141
Width: 890
Flags: MW
HStem: 0 180<60 250 60 250 60 350 350 540 640 830>
VStem: 60 190<0 180 0 180> 350 190<0 180 0 180> 640 190<0 180 0 180>
CounterMasks: 1 70
LayerCount: 2
Fore
SplineSet
250 180 m 1
 250 0 l 1
 60 0 l 1
 60 180 l 1
 250 180 l 1
540 180 m 1
 540 0 l 1
 350 0 l 1
 350 180 l 1
 540 180 l 1
830 180 m 1
 830 0 l 1
 640 0 l 1
 640 180 l 1
 830 180 l 1
EndSplineSet
EndChar

StartChar: guilsinglleft
Encoding: 8249 8249 171
Width: 340
Flags: MW
HStem: 130 21G<190 320 190 190> 540 20G<190 320 320 320>
LayerCount: 2
Fore
SplineSet
190 560 m 1
 320 560 l 1
 200 345 l 1
 320 130 l 1
 190 130 l 1
 20 345 l 1
 190 560 l 1
EndSplineSet
EndChar

StartChar: guilsinglright
Encoding: 8250 8250 172
Width: 340
Flags: MW
HStem: 130 21G<20 150 20 20> 540 20G<20 150 150 150>
LayerCount: 2
Fore
SplineSet
20 560 m 1
 150 560 l 1
 320 345 l 1
 150 130 l 1
 20 130 l 1
 140 345 l 1
 20 560 l 1
EndSplineSet
EndChar

StartChar: Euro
Encoding: 8364 8364 170
Width: 620
Flags: MW
HStem: -15 165<358.5 381.5 358.5 452.5> 310 80<10 140 10 140 340 500> 430 80<10 140 10 140 340 500> 650 165<358.5 381.5>
VStem: 140 200<235 310 180 310 390 430 510 565 565 610> 400 200<190 235 235 280 157.5 280 540 565>
LayerCount: 2
Fore
SplineSet
140 235 m 2
 140 310 l 1
 10 310 l 1
 10 390 l 1
 140 390 l 1
 140 430 l 1
 10 430 l 1
 10 510 l 1
 140 510 l 1
 140 565 l 2
 140 720 205 815 370 815 c 0
 535 815 600 720 600 565 c 2
 600 540 l 1
 400 540 l 1
 400 610 l 2
 400 630 393 650 370 650 c 0
 347 650 340 630 340 610 c 2
 340 510 l 1
 500 510 l 1
 500 430 l 1
 340 430 l 1
 340 390 l 1
 500 390 l 1
 500 310 l 1
 340 310 l 1
 340 190 l 2
 340 170 347 150 370 150 c 0
 393 150 400 170 400 190 c 2
 400 280 l 1
 600 280 l 1
 600 235 l 2
 600 80 535 -15 370 -15 c 0
 205 -15 140 80 140 235 c 2
EndSplineSet
EndChar

StartChar: afii61352
Encoding: 8470 8470 148
Width: 890
Flags: MW
HStem: 0 21G<30 215 30 30 315 490 315 315> 405 145<688 712 688 870> 445 105<688 712 688 750> 710 105<688 712> 780 20G<30 205 205 205 305 490 490 490>
VStem: 30 177 312 178 530 135<584 600 600 660 584 695> 665 70<584 660 600 660> 735 135<600 660 660 676>
LayerCount: 2
Fore
SplineSet
30 800 m 1xcf40
 205 800 l 1
 320 435 l 1
 305 800 l 1
 490 800 l 1
 490 0 l 1
 315 0 l 1
 200 365 l 1
 215 0 l 1
 30 0 l 1
 30 800 l 1xcf40
870 405 m 1
 530 405 l 1
 530 275 l 1
 870 275 l 1
 870 405 l 1
735 600 m 2
 735 660 l 2
 735 692 724 710 700 710 c 0xd680
 676 710 665 692 665 660 c 2
 665 600 l 2
 665 568 676 550 700 550 c 0
 724 550 735 568 735 600 c 2
530 630 m 0xb740
 530 760 600 815 700 815 c 0
 800 815 870 760 870 630 c 0
 870 500 800 445 700 445 c 0
 600 445 530 500 530 630 c 0xb740
EndSplineSet
EndChar

StartChar: trademark
Encoding: 8482 8482 210
Width: 675
Flags: MW
HStem: 475 21G<87 202 87 87 270 270 270 382 417 417 417 497 532 532 532 645> 700 100<20 87 20 270 202 270 202 202>
VStem: 20 250<700 800> 87 115<475 700 475 700> 378 158
LayerCount: 2
Fore
SplineSet
20 800 m 1xe8
 270 800 l 1
 270 700 l 1xe8
 202 700 l 1
 202 475 l 1
 87 475 l 1
 87 700 l 1xd8
 20 700 l 1
 20 800 l 1xe8
645 475 m 1
 532 475 l 1
 540 623 l 1
 525 623 l 1
 497 475 l 1
 417 475 l 1
 390 623 l 1
 375 623 l 1
 382 475 l 1
 270 475 l 1
 299 800 l 1
 418 800 l 1
 455 643 l 1
 460 643 l 1
 496 800 l 1
 616 800 l 1
 645 475 l 1
EndSplineSet
EndChar
